%TF.GenerationSoftware,KiCad,Pcbnew,8.0.6*%
%TF.CreationDate,2024-11-14T19:13:37+01:00*%
%TF.ProjectId,AxxSolder,41787853-6f6c-4646-9572-2e6b69636164,rev?*%
%TF.SameCoordinates,Original*%
%TF.FileFunction,Drillmap*%
%TF.FilePolarity,Positive*%
%FSLAX45Y45*%
G04 Gerber Fmt 4.5, Leading zero omitted, Abs format (unit mm)*
G04 Created by KiCad (PCBNEW 8.0.6) date 2024-11-14 19:13:37*
%MOMM*%
%LPD*%
G01*
G04 APERTURE LIST*
%ADD10C,0.100000*%
%ADD11C,0.200000*%
%ADD12C,0.102000*%
%ADD13C,0.110000*%
G04 APERTURE END LIST*
D10*
X20000000Y-7050000D02*
X20000000Y-14700000D01*
X16100000Y-7050000D02*
G75*
G02*
X16400000Y-6750000I300000J0D01*
G01*
X19700000Y-6750000D02*
G75*
G02*
X20000000Y-7050000I0J-300000D01*
G01*
X16400000Y-15000000D02*
G75*
G02*
X16100000Y-14700000I0J300000D01*
G01*
X20000000Y-14700000D02*
G75*
G02*
X19700000Y-15000000I-300000J0D01*
G01*
X16100000Y-14700000D02*
X16100000Y-7050000D01*
X16400000Y-6750000D02*
X19700000Y-6750000D01*
X19700000Y-15000000D02*
X16400000Y-15000000D01*
D11*
D10*
X16160000Y-7985000D02*
X16190000Y-8015000D01*
X16190000Y-7985000D02*
X16160000Y-8015000D01*
X16160000Y-8060000D02*
X16190000Y-8090000D01*
X16190000Y-8060000D02*
X16160000Y-8090000D01*
X16160000Y-8135000D02*
X16190000Y-8165000D01*
X16190000Y-8135000D02*
X16160000Y-8165000D01*
X16160000Y-8210000D02*
X16190000Y-8240000D01*
X16190000Y-8210000D02*
X16160000Y-8240000D01*
X16160000Y-8285000D02*
X16190000Y-8315000D01*
X16190000Y-8285000D02*
X16160000Y-8315000D01*
X16160000Y-8360000D02*
X16190000Y-8390000D01*
X16190000Y-8360000D02*
X16160000Y-8390000D01*
X16160000Y-8435000D02*
X16190000Y-8465000D01*
X16190000Y-8435000D02*
X16160000Y-8465000D01*
X16160000Y-8510000D02*
X16190000Y-8540000D01*
X16190000Y-8510000D02*
X16160000Y-8540000D01*
X16170000Y-10781000D02*
X16200000Y-10811000D01*
X16200000Y-10781000D02*
X16170000Y-10811000D01*
X16175000Y-12615000D02*
X16205000Y-12645000D01*
X16205000Y-12615000D02*
X16175000Y-12645000D01*
X16210000Y-13285000D02*
X16240000Y-13315000D01*
X16240000Y-13285000D02*
X16210000Y-13315000D01*
X16235000Y-7985000D02*
X16265000Y-8015000D01*
X16265000Y-7985000D02*
X16235000Y-8015000D01*
X16235000Y-8060000D02*
X16265000Y-8090000D01*
X16265000Y-8060000D02*
X16235000Y-8090000D01*
X16235000Y-8135000D02*
X16265000Y-8165000D01*
X16265000Y-8135000D02*
X16235000Y-8165000D01*
X16235000Y-8210000D02*
X16265000Y-8240000D01*
X16265000Y-8210000D02*
X16235000Y-8240000D01*
X16235000Y-8285000D02*
X16265000Y-8315000D01*
X16265000Y-8285000D02*
X16235000Y-8315000D01*
X16235000Y-8360000D02*
X16265000Y-8390000D01*
X16265000Y-8360000D02*
X16235000Y-8390000D01*
X16235000Y-8435000D02*
X16265000Y-8465000D01*
X16265000Y-8435000D02*
X16235000Y-8465000D01*
X16235000Y-8510000D02*
X16265000Y-8540000D01*
X16265000Y-8510000D02*
X16235000Y-8540000D01*
X16285000Y-13285000D02*
X16315000Y-13315000D01*
X16315000Y-13285000D02*
X16285000Y-13315000D01*
X16285000Y-13985000D02*
X16315000Y-14015000D01*
X16315000Y-13985000D02*
X16285000Y-14015000D01*
X16294555Y-14266479D02*
X16324555Y-14296479D01*
X16324555Y-14266479D02*
X16294555Y-14296479D01*
X16335000Y-10235000D02*
X16365000Y-10265000D01*
X16365000Y-10235000D02*
X16335000Y-10265000D01*
X16335000Y-10310000D02*
X16365000Y-10340000D01*
X16365000Y-10310000D02*
X16335000Y-10340000D01*
X16335000Y-10385000D02*
X16365000Y-10415000D01*
X16365000Y-10385000D02*
X16335000Y-10415000D01*
X16335000Y-10460000D02*
X16365000Y-10490000D01*
X16365000Y-10460000D02*
X16335000Y-10490000D01*
X16415000Y-10235000D02*
X16445000Y-10265000D01*
X16445000Y-10235000D02*
X16415000Y-10265000D01*
X16415000Y-10310000D02*
X16445000Y-10340000D01*
X16445000Y-10310000D02*
X16415000Y-10340000D01*
X16415000Y-10385000D02*
X16445000Y-10415000D01*
X16445000Y-10385000D02*
X16415000Y-10415000D01*
X16415000Y-10460000D02*
X16445000Y-10490000D01*
X16445000Y-10460000D02*
X16415000Y-10490000D01*
X16495000Y-12535000D02*
X16525000Y-12565000D01*
X16525000Y-12535000D02*
X16495000Y-12565000D01*
X16535000Y-14105000D02*
X16565000Y-14135000D01*
X16565000Y-14105000D02*
X16535000Y-14135000D01*
X16570000Y-13005000D02*
X16600000Y-13035000D01*
X16600000Y-13005000D02*
X16570000Y-13035000D01*
X16585000Y-11225000D02*
X16615000Y-11255000D01*
X16615000Y-11225000D02*
X16585000Y-11255000D01*
X16605000Y-12365000D02*
X16635000Y-12395000D01*
X16635000Y-12365000D02*
X16605000Y-12395000D01*
X16610298Y-11300895D02*
X16640298Y-11330895D01*
X16640298Y-11300895D02*
X16610298Y-11330895D01*
X16620000Y-13740000D02*
X16650000Y-13770000D01*
X16650000Y-13740000D02*
X16620000Y-13770000D01*
X16625000Y-12065000D02*
X16655000Y-12095000D01*
X16655000Y-12065000D02*
X16625000Y-12095000D01*
X16630000Y-11755000D02*
X16660000Y-11785000D01*
X16660000Y-11755000D02*
X16630000Y-11785000D01*
X16638396Y-7670000D02*
X16668396Y-7700000D01*
X16668396Y-7670000D02*
X16638396Y-7700000D01*
X16645000Y-13005000D02*
X16675000Y-13035000D01*
X16675000Y-13005000D02*
X16645000Y-13035000D01*
X16645000Y-13265000D02*
X16675000Y-13295000D01*
X16675000Y-13265000D02*
X16645000Y-13295000D01*
X16700000Y-11225000D02*
X16730000Y-11255000D01*
X16730000Y-11225000D02*
X16700000Y-11255000D01*
X16705000Y-11755000D02*
X16735000Y-11785000D01*
X16735000Y-11755000D02*
X16705000Y-11785000D01*
X16725000Y-13265000D02*
X16755000Y-13295000D01*
X16755000Y-13265000D02*
X16725000Y-13295000D01*
X16756077Y-12200000D02*
X16786077Y-12230000D01*
X16786077Y-12200000D02*
X16756077Y-12230000D01*
X16795000Y-9295000D02*
X16825000Y-9325000D01*
X16825000Y-9295000D02*
X16795000Y-9325000D01*
X16813717Y-12269943D02*
X16843717Y-12299943D01*
X16843717Y-12269943D02*
X16813717Y-12299943D01*
X16830000Y-12475000D02*
X16860000Y-12505000D01*
X16860000Y-12475000D02*
X16830000Y-12505000D01*
X16867237Y-7717090D02*
X16897237Y-7747090D01*
X16897237Y-7717090D02*
X16867237Y-7747090D01*
X16870000Y-7510000D02*
X16900000Y-7540000D01*
X16900000Y-7510000D02*
X16870000Y-7540000D01*
X16905000Y-14275000D02*
X16935000Y-14305000D01*
X16935000Y-14275000D02*
X16905000Y-14305000D01*
X16920000Y-12580000D02*
X16950000Y-12610000D01*
X16950000Y-12580000D02*
X16920000Y-12610000D01*
X16930000Y-13005000D02*
X16960000Y-13035000D01*
X16960000Y-13005000D02*
X16930000Y-13035000D01*
X16985000Y-11585000D02*
X17015000Y-11615000D01*
X17015000Y-11585000D02*
X16985000Y-11615000D01*
X16985000Y-11810000D02*
X17015000Y-11840000D01*
X17015000Y-11810000D02*
X16985000Y-11840000D01*
X16985000Y-12035000D02*
X17015000Y-12065000D01*
X17015000Y-12035000D02*
X16985000Y-12065000D01*
X16995000Y-6790000D02*
X17025000Y-6820000D01*
X17025000Y-6790000D02*
X16995000Y-6820000D01*
X16995000Y-6860000D02*
X17025000Y-6890000D01*
X17025000Y-6860000D02*
X16995000Y-6890000D01*
X17005000Y-12725000D02*
X17035000Y-12755000D01*
X17035000Y-12725000D02*
X17005000Y-12755000D01*
X17005000Y-13005000D02*
X17035000Y-13035000D01*
X17035000Y-13005000D02*
X17005000Y-13035000D01*
X17034393Y-7687418D02*
X17064393Y-7717418D01*
X17064393Y-7687418D02*
X17034393Y-7717418D01*
X17035000Y-9710000D02*
X17065000Y-9740000D01*
X17065000Y-9710000D02*
X17035000Y-9740000D01*
X17070000Y-6790000D02*
X17100000Y-6820000D01*
X17100000Y-6790000D02*
X17070000Y-6820000D01*
X17070000Y-6860000D02*
X17100000Y-6890000D01*
X17100000Y-6860000D02*
X17070000Y-6890000D01*
X17095000Y-7605000D02*
X17125000Y-7635000D01*
X17125000Y-7605000D02*
X17095000Y-7635000D01*
X17121757Y-13820000D02*
X17151757Y-13850000D01*
X17151757Y-13820000D02*
X17121757Y-13850000D01*
X17127953Y-13118913D02*
X17157953Y-13148913D01*
X17157953Y-13118913D02*
X17127953Y-13148913D01*
X17130000Y-7225000D02*
X17160000Y-7255000D01*
X17160000Y-7225000D02*
X17130000Y-7255000D01*
X17130000Y-7505000D02*
X17160000Y-7535000D01*
X17160000Y-7505000D02*
X17130000Y-7535000D01*
X17135000Y-10835000D02*
X17165000Y-10865000D01*
X17165000Y-10835000D02*
X17135000Y-10865000D01*
X17145000Y-6790000D02*
X17175000Y-6820000D01*
X17175000Y-6790000D02*
X17145000Y-6820000D01*
X17145000Y-6860000D02*
X17175000Y-6890000D01*
X17175000Y-6860000D02*
X17145000Y-6890000D01*
X17180000Y-13275000D02*
X17210000Y-13305000D01*
X17210000Y-13275000D02*
X17180000Y-13305000D01*
X17185000Y-13415000D02*
X17215000Y-13445000D01*
X17215000Y-13415000D02*
X17185000Y-13445000D01*
X17195000Y-8375000D02*
X17225000Y-8405000D01*
X17225000Y-8375000D02*
X17195000Y-8405000D01*
X17205000Y-7225000D02*
X17235000Y-7255000D01*
X17235000Y-7225000D02*
X17205000Y-7255000D01*
X17205000Y-7505000D02*
X17235000Y-7535000D01*
X17235000Y-7505000D02*
X17205000Y-7535000D01*
X17220000Y-6790000D02*
X17250000Y-6820000D01*
X17250000Y-6790000D02*
X17220000Y-6820000D01*
X17220000Y-6860000D02*
X17250000Y-6890000D01*
X17250000Y-6860000D02*
X17220000Y-6890000D01*
X17280000Y-7225000D02*
X17310000Y-7255000D01*
X17310000Y-7225000D02*
X17280000Y-7255000D01*
X17280000Y-7505000D02*
X17310000Y-7535000D01*
X17310000Y-7505000D02*
X17280000Y-7535000D01*
X17295000Y-6790000D02*
X17325000Y-6820000D01*
X17325000Y-6790000D02*
X17295000Y-6820000D01*
X17295000Y-6860000D02*
X17325000Y-6890000D01*
X17325000Y-6860000D02*
X17295000Y-6890000D01*
X17330000Y-12635000D02*
X17360000Y-12665000D01*
X17360000Y-12635000D02*
X17330000Y-12665000D01*
X17332047Y-13727499D02*
X17362047Y-13757499D01*
X17362047Y-13727499D02*
X17332047Y-13757499D01*
X17335000Y-11245000D02*
X17365000Y-11275000D01*
X17365000Y-11245000D02*
X17335000Y-11275000D01*
X17348918Y-14039178D02*
X17378918Y-14069178D01*
X17378918Y-14039178D02*
X17348918Y-14069178D01*
X17355000Y-7225000D02*
X17385000Y-7255000D01*
X17385000Y-7225000D02*
X17355000Y-7255000D01*
X17355000Y-7505000D02*
X17385000Y-7535000D01*
X17385000Y-7505000D02*
X17355000Y-7535000D01*
X17370000Y-6790000D02*
X17400000Y-6820000D01*
X17400000Y-6790000D02*
X17370000Y-6820000D01*
X17370000Y-6860000D02*
X17400000Y-6890000D01*
X17400000Y-6860000D02*
X17370000Y-6890000D01*
X17395000Y-11185000D02*
X17425000Y-11215000D01*
X17425000Y-11185000D02*
X17395000Y-11215000D01*
X17415000Y-9735000D02*
X17445000Y-9765000D01*
X17445000Y-9735000D02*
X17415000Y-9765000D01*
X17445000Y-6790000D02*
X17475000Y-6820000D01*
X17475000Y-6790000D02*
X17445000Y-6820000D01*
X17445000Y-6860000D02*
X17475000Y-6890000D01*
X17475000Y-6860000D02*
X17445000Y-6890000D01*
X17455000Y-8435000D02*
X17485000Y-8465000D01*
X17485000Y-8435000D02*
X17455000Y-8465000D01*
X17455000Y-11125000D02*
X17485000Y-11155000D01*
X17485000Y-11125000D02*
X17455000Y-11155000D01*
X17476309Y-11546309D02*
X17506309Y-11576309D01*
X17506309Y-11546309D02*
X17476309Y-11576309D01*
X17505000Y-8595000D02*
X17535000Y-8625000D01*
X17535000Y-8595000D02*
X17505000Y-8625000D01*
X17520000Y-6790000D02*
X17550000Y-6820000D01*
X17550000Y-6790000D02*
X17520000Y-6820000D01*
X17520000Y-6860000D02*
X17550000Y-6890000D01*
X17550000Y-6860000D02*
X17520000Y-6890000D01*
X17535000Y-10235000D02*
X17565000Y-10265000D01*
X17565000Y-10235000D02*
X17535000Y-10265000D01*
X17535000Y-11045000D02*
X17565000Y-11075000D01*
X17565000Y-11045000D02*
X17535000Y-11075000D01*
X17545000Y-11480000D02*
X17575000Y-11510000D01*
X17575000Y-11480000D02*
X17545000Y-11510000D01*
X17545000Y-13845000D02*
X17575000Y-13875000D01*
X17575000Y-13845000D02*
X17545000Y-13875000D01*
X17545000Y-13920000D02*
X17575000Y-13950000D01*
X17575000Y-13920000D02*
X17545000Y-13950000D01*
X17575000Y-8595000D02*
X17605000Y-8625000D01*
X17605000Y-8595000D02*
X17575000Y-8625000D01*
X17595000Y-6790000D02*
X17625000Y-6820000D01*
X17625000Y-6790000D02*
X17595000Y-6820000D01*
X17595000Y-6860000D02*
X17625000Y-6890000D01*
X17625000Y-6860000D02*
X17595000Y-6890000D01*
X17595363Y-11940408D02*
X17625363Y-11970408D01*
X17625363Y-11940408D02*
X17595363Y-11970408D01*
X17645000Y-9135000D02*
X17675000Y-9165000D01*
X17675000Y-9135000D02*
X17645000Y-9165000D01*
X17645000Y-9235000D02*
X17675000Y-9265000D01*
X17675000Y-9235000D02*
X17645000Y-9265000D01*
X17645000Y-9335000D02*
X17675000Y-9365000D01*
X17675000Y-9335000D02*
X17645000Y-9365000D01*
X17645000Y-11515000D02*
X17675000Y-11545000D01*
X17675000Y-11515000D02*
X17645000Y-11545000D01*
X17665000Y-13305000D02*
X17695000Y-13335000D01*
X17695000Y-13305000D02*
X17665000Y-13335000D01*
X17670000Y-6790000D02*
X17700000Y-6820000D01*
X17700000Y-6790000D02*
X17670000Y-6820000D01*
X17670000Y-6860000D02*
X17700000Y-6890000D01*
X17700000Y-6860000D02*
X17670000Y-6890000D01*
X17674462Y-14455646D02*
X17704462Y-14485646D01*
X17704462Y-14455646D02*
X17674462Y-14485646D01*
X17685000Y-11925000D02*
X17715000Y-11955000D01*
X17715000Y-11925000D02*
X17685000Y-11955000D01*
X17685500Y-14160000D02*
X17715500Y-14190000D01*
X17715500Y-14160000D02*
X17685500Y-14190000D01*
X17720000Y-11631924D02*
X17750000Y-11661924D01*
X17750000Y-11631924D02*
X17720000Y-11661924D01*
X17731027Y-14525000D02*
X17761027Y-14555000D01*
X17761027Y-14525000D02*
X17731027Y-14555000D01*
X17737500Y-10495000D02*
X17767500Y-10525000D01*
X17767500Y-10495000D02*
X17737500Y-10525000D01*
X17745000Y-6790000D02*
X17775000Y-6820000D01*
X17775000Y-6790000D02*
X17745000Y-6820000D01*
X17745000Y-6860000D02*
X17775000Y-6890000D01*
X17775000Y-6860000D02*
X17745000Y-6890000D01*
X17755000Y-10755000D02*
X17785000Y-10785000D01*
X17785000Y-10755000D02*
X17755000Y-10785000D01*
X17770962Y-11580962D02*
X17800962Y-11610962D01*
X17800962Y-11580962D02*
X17770962Y-11610962D01*
X17778174Y-11840000D02*
X17808174Y-11870000D01*
X17808174Y-11840000D02*
X17778174Y-11870000D01*
X17785000Y-11150000D02*
X17815000Y-11180000D01*
X17815000Y-11150000D02*
X17785000Y-11180000D01*
X17785000Y-11250000D02*
X17815000Y-11280000D01*
X17815000Y-11250000D02*
X17785000Y-11280000D01*
X17790000Y-11919104D02*
X17820000Y-11949104D01*
X17820000Y-11919104D02*
X17790000Y-11949104D01*
X17791774Y-11332537D02*
X17821774Y-11362537D01*
X17821774Y-11332537D02*
X17791774Y-11362537D01*
X17795000Y-14134700D02*
X17825000Y-14164700D01*
X17825000Y-14134700D02*
X17795000Y-14164700D01*
X17855000Y-7805000D02*
X17885000Y-7835000D01*
X17885000Y-7805000D02*
X17855000Y-7835000D01*
X17865000Y-8080000D02*
X17895000Y-8110000D01*
X17895000Y-8080000D02*
X17865000Y-8110000D01*
X17879998Y-11341926D02*
X17909998Y-11371926D01*
X17909998Y-11341926D02*
X17879998Y-11371926D01*
X17895000Y-10280000D02*
X17925000Y-10310000D01*
X17925000Y-10280000D02*
X17895000Y-10310000D01*
X17905000Y-13510000D02*
X17935000Y-13540000D01*
X17935000Y-13510000D02*
X17905000Y-13540000D01*
X17925000Y-7805000D02*
X17955000Y-7835000D01*
X17955000Y-7805000D02*
X17925000Y-7835000D01*
X17925000Y-14385000D02*
X17955000Y-14415000D01*
X17955000Y-14385000D02*
X17925000Y-14415000D01*
X17935000Y-8080000D02*
X17965000Y-8110000D01*
X17965000Y-8080000D02*
X17935000Y-8110000D01*
X17945000Y-12725000D02*
X17975000Y-12755000D01*
X17975000Y-12725000D02*
X17945000Y-12755000D01*
X17959192Y-9728049D02*
X17989192Y-9758049D01*
X17989192Y-9728049D02*
X17959192Y-9758049D01*
X17960034Y-13004610D02*
X17990034Y-13034610D01*
X17990034Y-13004610D02*
X17960034Y-13034610D01*
X17995000Y-7805000D02*
X18025000Y-7835000D01*
X18025000Y-7805000D02*
X17995000Y-7835000D01*
X17995074Y-10329927D02*
X18025074Y-10359927D01*
X18025074Y-10329927D02*
X17995074Y-10359927D01*
X17997454Y-9899194D02*
X18027454Y-9929194D01*
X18027454Y-9899194D02*
X17997454Y-9929194D01*
X18005000Y-8080000D02*
X18035000Y-8110000D01*
X18035000Y-8080000D02*
X18005000Y-8110000D01*
X18005087Y-11479262D02*
X18035087Y-11509262D01*
X18035087Y-11479262D02*
X18005087Y-11509262D01*
X18015000Y-11345000D02*
X18045000Y-11375000D01*
X18045000Y-11345000D02*
X18015000Y-11375000D01*
X18040000Y-14420000D02*
X18070000Y-14450000D01*
X18070000Y-14420000D02*
X18040000Y-14450000D01*
X18060000Y-8935000D02*
X18090000Y-8965000D01*
X18090000Y-8935000D02*
X18060000Y-8965000D01*
X18060000Y-9015000D02*
X18090000Y-9045000D01*
X18090000Y-9015000D02*
X18060000Y-9045000D01*
X18060000Y-12540000D02*
X18090000Y-12570000D01*
X18090000Y-12540000D02*
X18060000Y-12570000D01*
X18065000Y-7805000D02*
X18095000Y-7835000D01*
X18095000Y-7805000D02*
X18065000Y-7835000D01*
X18070000Y-13148167D02*
X18100000Y-13178167D01*
X18100000Y-13148167D02*
X18070000Y-13178167D01*
X18070000Y-11423129D02*
X18100000Y-11453129D01*
X18100000Y-11423129D02*
X18070000Y-11453129D01*
X18075000Y-8080000D02*
X18105000Y-8110000D01*
X18105000Y-8080000D02*
X18075000Y-8110000D01*
X18075000Y-8335000D02*
X18105000Y-8365000D01*
X18105000Y-8335000D02*
X18075000Y-8365000D01*
X18080000Y-14045000D02*
X18110000Y-14075000D01*
X18110000Y-14045000D02*
X18080000Y-14075000D01*
X18085117Y-11284883D02*
X18115117Y-11314883D01*
X18115117Y-11284883D02*
X18085117Y-11314883D01*
X18096640Y-11726640D02*
X18126640Y-11756640D01*
X18126640Y-11726640D02*
X18096640Y-11756640D01*
X18125000Y-10115000D02*
X18155000Y-10145000D01*
X18155000Y-10115000D02*
X18125000Y-10145000D01*
X18135000Y-8935000D02*
X18165000Y-8965000D01*
X18165000Y-8935000D02*
X18135000Y-8965000D01*
X18135000Y-9015000D02*
X18165000Y-9045000D01*
X18165000Y-9015000D02*
X18135000Y-9045000D01*
X18145000Y-8080000D02*
X18175000Y-8110000D01*
X18175000Y-8080000D02*
X18145000Y-8110000D01*
X18151468Y-10536514D02*
X18181468Y-10566514D01*
X18181468Y-10536514D02*
X18151468Y-10566514D01*
X18195000Y-10615000D02*
X18225000Y-10645000D01*
X18225000Y-10615000D02*
X18195000Y-10645000D01*
X18197500Y-11847500D02*
X18227500Y-11877500D01*
X18227500Y-11847500D02*
X18197500Y-11877500D01*
X18210000Y-8935000D02*
X18240000Y-8965000D01*
X18240000Y-8935000D02*
X18210000Y-8965000D01*
X18210000Y-9015000D02*
X18240000Y-9045000D01*
X18240000Y-9015000D02*
X18210000Y-9045000D01*
X18225000Y-10505000D02*
X18255000Y-10535000D01*
X18255000Y-10505000D02*
X18225000Y-10535000D01*
X18225000Y-14134700D02*
X18255000Y-14164700D01*
X18255000Y-14134700D02*
X18225000Y-14164700D01*
X18225000Y-14495000D02*
X18255000Y-14525000D01*
X18255000Y-14495000D02*
X18225000Y-14525000D01*
X18225117Y-11424883D02*
X18255117Y-11454883D01*
X18255117Y-11424883D02*
X18225117Y-11454883D01*
X18235000Y-14365000D02*
X18265000Y-14395000D01*
X18265000Y-14365000D02*
X18235000Y-14395000D01*
X18255000Y-12575000D02*
X18285000Y-12605000D01*
X18285000Y-12575000D02*
X18255000Y-12605000D01*
X18265000Y-12135000D02*
X18295000Y-12165000D01*
X18295000Y-12135000D02*
X18265000Y-12165000D01*
X18267788Y-13427788D02*
X18297788Y-13457788D01*
X18297788Y-13427788D02*
X18267788Y-13457788D01*
X18325000Y-13935000D02*
X18355000Y-13965000D01*
X18355000Y-13935000D02*
X18325000Y-13965000D01*
X18333462Y-14495189D02*
X18363462Y-14525189D01*
X18363462Y-14495189D02*
X18333462Y-14525189D01*
X18340025Y-13170025D02*
X18370025Y-13200025D01*
X18370025Y-13170025D02*
X18340025Y-13200025D01*
X18357547Y-10319586D02*
X18387547Y-10349586D01*
X18387547Y-10319586D02*
X18357547Y-10349586D01*
X18380000Y-10520000D02*
X18410000Y-10550000D01*
X18410000Y-10520000D02*
X18380000Y-10550000D01*
X18387000Y-14305000D02*
X18417000Y-14335000D01*
X18417000Y-14305000D02*
X18387000Y-14335000D01*
X18395000Y-9670000D02*
X18425000Y-9700000D01*
X18425000Y-9670000D02*
X18395000Y-9700000D01*
X18420000Y-12585000D02*
X18450000Y-12615000D01*
X18450000Y-12585000D02*
X18420000Y-12615000D01*
X18460000Y-14025000D02*
X18490000Y-14055000D01*
X18490000Y-14025000D02*
X18460000Y-14055000D01*
X18510000Y-8760000D02*
X18540000Y-8790000D01*
X18540000Y-8760000D02*
X18510000Y-8790000D01*
X18510000Y-8835000D02*
X18540000Y-8865000D01*
X18540000Y-8835000D02*
X18510000Y-8865000D01*
X18510000Y-8935000D02*
X18540000Y-8965000D01*
X18540000Y-8935000D02*
X18510000Y-8965000D01*
X18510000Y-9010000D02*
X18540000Y-9040000D01*
X18540000Y-9010000D02*
X18510000Y-9040000D01*
X18520000Y-9610000D02*
X18550000Y-9640000D01*
X18550000Y-9610000D02*
X18520000Y-9640000D01*
X18525000Y-12810000D02*
X18555000Y-12840000D01*
X18555000Y-12810000D02*
X18525000Y-12840000D01*
X18531034Y-9461310D02*
X18561034Y-9491310D01*
X18561034Y-9461310D02*
X18531034Y-9491310D01*
X18585000Y-8760000D02*
X18615000Y-8790000D01*
X18615000Y-8760000D02*
X18585000Y-8790000D01*
X18585000Y-8835000D02*
X18615000Y-8865000D01*
X18615000Y-8835000D02*
X18585000Y-8865000D01*
X18585000Y-8935000D02*
X18615000Y-8965000D01*
X18615000Y-8935000D02*
X18585000Y-8965000D01*
X18585000Y-9010000D02*
X18615000Y-9040000D01*
X18615000Y-9010000D02*
X18585000Y-9040000D01*
X18585000Y-11945000D02*
X18615000Y-11975000D01*
X18615000Y-11945000D02*
X18585000Y-11975000D01*
X18595000Y-12145000D02*
X18625000Y-12175000D01*
X18625000Y-12145000D02*
X18595000Y-12175000D01*
X18595000Y-12585000D02*
X18625000Y-12615000D01*
X18625000Y-12585000D02*
X18595000Y-12615000D01*
X18625000Y-9185000D02*
X18655000Y-9215000D01*
X18655000Y-9185000D02*
X18625000Y-9215000D01*
X18625000Y-9360000D02*
X18655000Y-9390000D01*
X18655000Y-9360000D02*
X18625000Y-9390000D01*
X18625000Y-9612500D02*
X18655000Y-9642500D01*
X18655000Y-9612500D02*
X18625000Y-9642500D01*
X18626514Y-12071468D02*
X18656514Y-12101468D01*
X18656514Y-12071468D02*
X18626514Y-12101468D01*
X18639406Y-11364992D02*
X18669406Y-11394992D01*
X18669406Y-11364992D02*
X18639406Y-11394992D01*
X18639538Y-11215000D02*
X18669538Y-11245000D01*
X18669538Y-11215000D02*
X18639538Y-11245000D01*
X18645000Y-11015000D02*
X18675000Y-11045000D01*
X18675000Y-11015000D02*
X18645000Y-11045000D01*
X18655000Y-10785000D02*
X18685000Y-10815000D01*
X18685000Y-10785000D02*
X18655000Y-10815000D01*
X18660000Y-8760000D02*
X18690000Y-8790000D01*
X18690000Y-8760000D02*
X18660000Y-8790000D01*
X18660000Y-8835000D02*
X18690000Y-8865000D01*
X18690000Y-8835000D02*
X18660000Y-8865000D01*
X18660000Y-8935000D02*
X18690000Y-8965000D01*
X18690000Y-8935000D02*
X18660000Y-8965000D01*
X18660000Y-9010000D02*
X18690000Y-9040000D01*
X18690000Y-9010000D02*
X18660000Y-9040000D01*
X18665000Y-11927500D02*
X18695000Y-11957500D01*
X18695000Y-11927500D02*
X18665000Y-11957500D01*
X18665000Y-12585000D02*
X18695000Y-12615000D01*
X18695000Y-12585000D02*
X18665000Y-12615000D01*
X18714038Y-11075962D02*
X18744038Y-11105962D01*
X18744038Y-11075962D02*
X18714038Y-11105962D01*
X18725000Y-9410000D02*
X18755000Y-9440000D01*
X18755000Y-9410000D02*
X18725000Y-9440000D01*
X18735000Y-12585000D02*
X18765000Y-12615000D01*
X18765000Y-12585000D02*
X18735000Y-12615000D01*
X18765000Y-13925000D02*
X18795000Y-13955000D01*
X18795000Y-13925000D02*
X18765000Y-13955000D01*
X18770000Y-11140000D02*
X18800000Y-11170000D01*
X18800000Y-11140000D02*
X18770000Y-11170000D01*
X18805000Y-13237500D02*
X18835000Y-13267500D01*
X18835000Y-13237500D02*
X18805000Y-13267500D01*
X18810000Y-12585000D02*
X18840000Y-12615000D01*
X18840000Y-12585000D02*
X18810000Y-12615000D01*
X18885467Y-12081043D02*
X18915467Y-12111043D01*
X18915467Y-12081043D02*
X18885467Y-12111043D01*
X18940000Y-10870000D02*
X18970000Y-10900000D01*
X18970000Y-10870000D02*
X18940000Y-10900000D01*
X18965000Y-11365000D02*
X18995000Y-11395000D01*
X18995000Y-11365000D02*
X18965000Y-11395000D01*
X18988750Y-11655000D02*
X19018750Y-11685000D01*
X19018750Y-11655000D02*
X18988750Y-11685000D01*
X19047500Y-9122500D02*
X19077500Y-9152500D01*
X19077500Y-9122500D02*
X19047500Y-9152500D01*
X19092500Y-13710000D02*
X19122500Y-13740000D01*
X19122500Y-13710000D02*
X19092500Y-13740000D01*
X19099995Y-13560005D02*
X19129995Y-13590005D01*
X19129995Y-13560005D02*
X19099995Y-13590005D01*
X19100000Y-13235000D02*
X19130000Y-13265000D01*
X19130000Y-13235000D02*
X19100000Y-13265000D01*
X19110000Y-12535000D02*
X19140000Y-12565000D01*
X19140000Y-12535000D02*
X19110000Y-12565000D01*
X19125000Y-12165000D02*
X19155000Y-12195000D01*
X19155000Y-12165000D02*
X19125000Y-12195000D01*
X19160000Y-12640000D02*
X19190000Y-12670000D01*
X19190000Y-12640000D02*
X19160000Y-12670000D01*
X19160000Y-13010000D02*
X19190000Y-13040000D01*
X19190000Y-13010000D02*
X19160000Y-13040000D01*
X19165000Y-13235000D02*
X19195000Y-13265000D01*
X19195000Y-13235000D02*
X19165000Y-13265000D01*
X19175000Y-14640000D02*
X19205000Y-14670000D01*
X19205000Y-14640000D02*
X19175000Y-14670000D01*
X19250000Y-14640000D02*
X19280000Y-14670000D01*
X19280000Y-14640000D02*
X19250000Y-14670000D01*
X19260000Y-7985000D02*
X19290000Y-8015000D01*
X19290000Y-7985000D02*
X19260000Y-8015000D01*
X19260000Y-8060000D02*
X19290000Y-8090000D01*
X19290000Y-8060000D02*
X19260000Y-8090000D01*
X19275000Y-11088500D02*
X19305000Y-11118500D01*
X19305000Y-11088500D02*
X19275000Y-11118500D01*
X19275000Y-11538500D02*
X19305000Y-11568500D01*
X19305000Y-11538500D02*
X19275000Y-11568500D01*
X19275000Y-11988500D02*
X19305000Y-12018500D01*
X19305000Y-11988500D02*
X19275000Y-12018500D01*
X19325000Y-14640000D02*
X19355000Y-14670000D01*
X19355000Y-14640000D02*
X19325000Y-14670000D01*
X19335000Y-7985000D02*
X19365000Y-8015000D01*
X19365000Y-7985000D02*
X19335000Y-8015000D01*
X19335000Y-8060000D02*
X19365000Y-8090000D01*
X19365000Y-8060000D02*
X19335000Y-8090000D01*
X19341962Y-12246538D02*
X19371962Y-12276538D01*
X19371962Y-12246538D02*
X19341962Y-12276538D01*
X19355000Y-11358500D02*
X19385000Y-11388500D01*
X19385000Y-11358500D02*
X19355000Y-11388500D01*
X19355000Y-11833500D02*
X19385000Y-11863500D01*
X19385000Y-11833500D02*
X19355000Y-11863500D01*
X19410000Y-7985000D02*
X19440000Y-8015000D01*
X19440000Y-7985000D02*
X19410000Y-8015000D01*
X19410000Y-8060000D02*
X19440000Y-8090000D01*
X19440000Y-8060000D02*
X19410000Y-8090000D01*
X19425000Y-12850000D02*
X19455000Y-12880000D01*
X19455000Y-12850000D02*
X19425000Y-12880000D01*
X19485000Y-7985000D02*
X19515000Y-8015000D01*
X19515000Y-7985000D02*
X19485000Y-8015000D01*
X19485000Y-8060000D02*
X19515000Y-8090000D01*
X19515000Y-8060000D02*
X19485000Y-8090000D01*
X19520000Y-13120000D02*
X19550000Y-13150000D01*
X19550000Y-13120000D02*
X19520000Y-13150000D01*
X19560000Y-7985000D02*
X19590000Y-8015000D01*
X19590000Y-7985000D02*
X19560000Y-8015000D01*
X19574375Y-11884125D02*
X19604375Y-11914125D01*
X19604375Y-11884125D02*
X19574375Y-11914125D01*
X19575435Y-11433065D02*
X19605435Y-11463065D01*
X19605435Y-11433065D02*
X19575435Y-11463065D01*
X19575934Y-10985684D02*
X19605934Y-11015684D01*
X19605934Y-10985684D02*
X19575934Y-11015684D01*
X19705000Y-12051000D02*
X19735000Y-12081000D01*
X19735000Y-12051000D02*
X19705000Y-12081000D01*
X19710841Y-12233500D02*
X19740841Y-12263500D01*
X19740841Y-12233500D02*
X19710841Y-12263500D01*
X19735000Y-12560000D02*
X19765000Y-12590000D01*
X19765000Y-12560000D02*
X19735000Y-12590000D01*
X19735000Y-12635000D02*
X19765000Y-12665000D01*
X19765000Y-12635000D02*
X19735000Y-12665000D01*
X19735000Y-12710000D02*
X19765000Y-12740000D01*
X19765000Y-12710000D02*
X19735000Y-12740000D01*
X19805000Y-12410000D02*
X19835000Y-12440000D01*
X19835000Y-12410000D02*
X19805000Y-12440000D01*
X19805000Y-12485000D02*
X19835000Y-12515000D01*
X19835000Y-12485000D02*
X19805000Y-12515000D01*
X19805000Y-12560000D02*
X19835000Y-12590000D01*
X19835000Y-12560000D02*
X19805000Y-12590000D01*
X19805000Y-12635000D02*
X19835000Y-12665000D01*
X19835000Y-12635000D02*
X19805000Y-12665000D01*
X19805000Y-12710000D02*
X19835000Y-12740000D01*
X19835000Y-12710000D02*
X19805000Y-12740000D01*
X19875000Y-12410000D02*
X19905000Y-12440000D01*
X19905000Y-12410000D02*
X19875000Y-12440000D01*
X19875000Y-12485000D02*
X19905000Y-12515000D01*
X19905000Y-12485000D02*
X19875000Y-12515000D01*
X19875000Y-12560000D02*
X19905000Y-12590000D01*
X19905000Y-12560000D02*
X19875000Y-12590000D01*
X19875000Y-12635000D02*
X19905000Y-12665000D01*
X19905000Y-12635000D02*
X19875000Y-12665000D01*
X19875000Y-12710000D02*
X19905000Y-12740000D01*
X19905000Y-12710000D02*
X19875000Y-12740000D01*
X16300000Y-10931000D02*
G75*
G02*
X16200000Y-10931000I-50000J0D01*
G01*
X16200000Y-10931000D02*
G75*
G02*
X16300000Y-10931000I50000J0D01*
G01*
X16300000Y-11185000D02*
G75*
G02*
X16200000Y-11185000I-50000J0D01*
G01*
X16200000Y-11185000D02*
G75*
G02*
X16300000Y-11185000I50000J0D01*
G01*
X16300000Y-11439000D02*
G75*
G02*
X16200000Y-11439000I-50000J0D01*
G01*
X16200000Y-11439000D02*
G75*
G02*
X16300000Y-11439000I50000J0D01*
G01*
X16300000Y-11693000D02*
G75*
G02*
X16200000Y-11693000I-50000J0D01*
G01*
X16200000Y-11693000D02*
G75*
G02*
X16300000Y-11693000I50000J0D01*
G01*
X16300000Y-11947000D02*
G75*
G02*
X16200000Y-11947000I-50000J0D01*
G01*
X16200000Y-11947000D02*
G75*
G02*
X16300000Y-11947000I50000J0D01*
G01*
X16300000Y-12201000D02*
G75*
G02*
X16200000Y-12201000I-50000J0D01*
G01*
X16200000Y-12201000D02*
G75*
G02*
X16300000Y-12201000I50000J0D01*
G01*
X19463500Y-12410000D02*
G75*
G02*
X19363500Y-12410000I-50000J0D01*
G01*
X19363500Y-12410000D02*
G75*
G02*
X19463500Y-12410000I50000J0D01*
G01*
X19717500Y-12410000D02*
G75*
G02*
X19617500Y-12410000I-50000J0D01*
G01*
X19617500Y-12410000D02*
G75*
G02*
X19717500Y-12410000I50000J0D01*
G01*
D12*
X16225000Y-7241500D02*
X16225000Y-7343500D01*
X16174000Y-7292500D02*
X16276000Y-7292500D01*
X16225000Y-7495500D02*
X16225000Y-7597500D01*
X16174000Y-7546500D02*
X16276000Y-7546500D01*
X16250000Y-12404000D02*
X16250000Y-12506000D01*
X16199000Y-12455000D02*
X16301000Y-12455000D01*
X17272000Y-12339000D02*
X17272000Y-12441000D01*
X17221000Y-12390000D02*
X17323000Y-12390000D01*
X17526000Y-12339000D02*
X17526000Y-12441000D01*
X17475000Y-12390000D02*
X17577000Y-12390000D01*
X17780000Y-12339000D02*
X17780000Y-12441000D01*
X17729000Y-12390000D02*
X17831000Y-12390000D01*
X18034000Y-12339000D02*
X18034000Y-12441000D01*
X17983000Y-12390000D02*
X18085000Y-12390000D01*
X18288000Y-12339000D02*
X18288000Y-12441000D01*
X18237000Y-12390000D02*
X18339000Y-12390000D01*
X18542000Y-12339000D02*
X18542000Y-12441000D01*
X18491000Y-12390000D02*
X18593000Y-12390000D01*
X18796000Y-12339000D02*
X18796000Y-12441000D01*
X18745000Y-12390000D02*
X18847000Y-12390000D01*
X19050000Y-12339000D02*
X19050000Y-12441000D01*
X18999000Y-12390000D02*
X19101000Y-12390000D01*
X19875000Y-7241500D02*
X19875000Y-7343500D01*
X19824000Y-7292500D02*
X19926000Y-7292500D01*
X19875000Y-7495500D02*
X19875000Y-7597500D01*
X19824000Y-7546500D02*
X19926000Y-7546500D01*
D13*
X19663891Y-7858891D02*
X19663891Y-7781109D01*
X19586109Y-7781109D01*
X19586109Y-7858891D01*
X19663891Y-7858891D01*
X19663891Y-8208891D02*
X19663891Y-8131109D01*
X19586109Y-8131109D01*
X19586109Y-8208891D01*
X19663891Y-8208891D01*
X19663891Y-8558891D02*
X19663891Y-8481109D01*
X19586109Y-8481109D01*
X19586109Y-8558891D01*
X19663891Y-8558891D01*
X19663891Y-8908891D02*
X19663891Y-8831109D01*
X19586109Y-8831109D01*
X19586109Y-8908891D01*
X19663891Y-8908891D01*
X19663891Y-9258891D02*
X19663891Y-9181109D01*
X19586109Y-9181109D01*
X19586109Y-9258891D01*
X19663891Y-9258891D01*
X19663891Y-9608891D02*
X19663891Y-9531109D01*
X19586109Y-9531109D01*
X19586109Y-9608891D01*
X19663891Y-9608891D01*
X19663891Y-9958891D02*
X19663891Y-9881109D01*
X19586109Y-9881109D01*
X19586109Y-9958891D01*
X19663891Y-9958891D01*
X19663891Y-10308891D02*
X19663891Y-10231109D01*
X19586109Y-10231109D01*
X19586109Y-10308891D01*
X19663891Y-10308891D01*
X19663891Y-10658891D02*
X19663891Y-10581109D01*
X19586109Y-10581109D01*
X19586109Y-10658891D01*
X19663891Y-10658891D01*
D11*
X16355777Y-15316484D02*
X16355777Y-15116484D01*
X16355777Y-15116484D02*
X16403396Y-15116484D01*
X16403396Y-15116484D02*
X16431967Y-15126008D01*
X16431967Y-15126008D02*
X16451015Y-15145055D01*
X16451015Y-15145055D02*
X16460539Y-15164103D01*
X16460539Y-15164103D02*
X16470062Y-15202198D01*
X16470062Y-15202198D02*
X16470062Y-15230769D01*
X16470062Y-15230769D02*
X16460539Y-15268865D01*
X16460539Y-15268865D02*
X16451015Y-15287912D01*
X16451015Y-15287912D02*
X16431967Y-15306960D01*
X16431967Y-15306960D02*
X16403396Y-15316484D01*
X16403396Y-15316484D02*
X16355777Y-15316484D01*
X16555777Y-15316484D02*
X16555777Y-15183150D01*
X16555777Y-15221246D02*
X16565301Y-15202198D01*
X16565301Y-15202198D02*
X16574824Y-15192674D01*
X16574824Y-15192674D02*
X16593872Y-15183150D01*
X16593872Y-15183150D02*
X16612920Y-15183150D01*
X16679586Y-15316484D02*
X16679586Y-15183150D01*
X16679586Y-15116484D02*
X16670062Y-15126008D01*
X16670062Y-15126008D02*
X16679586Y-15135531D01*
X16679586Y-15135531D02*
X16689110Y-15126008D01*
X16689110Y-15126008D02*
X16679586Y-15116484D01*
X16679586Y-15116484D02*
X16679586Y-15135531D01*
X16803396Y-15316484D02*
X16784348Y-15306960D01*
X16784348Y-15306960D02*
X16774824Y-15287912D01*
X16774824Y-15287912D02*
X16774824Y-15116484D01*
X16908158Y-15316484D02*
X16889110Y-15306960D01*
X16889110Y-15306960D02*
X16879586Y-15287912D01*
X16879586Y-15287912D02*
X16879586Y-15116484D01*
X17136729Y-15316484D02*
X17136729Y-15116484D01*
X17136729Y-15116484D02*
X17203396Y-15259341D01*
X17203396Y-15259341D02*
X17270063Y-15116484D01*
X17270063Y-15116484D02*
X17270063Y-15316484D01*
X17451015Y-15316484D02*
X17451015Y-15211722D01*
X17451015Y-15211722D02*
X17441491Y-15192674D01*
X17441491Y-15192674D02*
X17422444Y-15183150D01*
X17422444Y-15183150D02*
X17384348Y-15183150D01*
X17384348Y-15183150D02*
X17365301Y-15192674D01*
X17451015Y-15306960D02*
X17431967Y-15316484D01*
X17431967Y-15316484D02*
X17384348Y-15316484D01*
X17384348Y-15316484D02*
X17365301Y-15306960D01*
X17365301Y-15306960D02*
X17355777Y-15287912D01*
X17355777Y-15287912D02*
X17355777Y-15268865D01*
X17355777Y-15268865D02*
X17365301Y-15249817D01*
X17365301Y-15249817D02*
X17384348Y-15240293D01*
X17384348Y-15240293D02*
X17431967Y-15240293D01*
X17431967Y-15240293D02*
X17451015Y-15230769D01*
X17546253Y-15183150D02*
X17546253Y-15383150D01*
X17546253Y-15192674D02*
X17565301Y-15183150D01*
X17565301Y-15183150D02*
X17603396Y-15183150D01*
X17603396Y-15183150D02*
X17622444Y-15192674D01*
X17622444Y-15192674D02*
X17631967Y-15202198D01*
X17631967Y-15202198D02*
X17641491Y-15221246D01*
X17641491Y-15221246D02*
X17641491Y-15278388D01*
X17641491Y-15278388D02*
X17631967Y-15297436D01*
X17631967Y-15297436D02*
X17622444Y-15306960D01*
X17622444Y-15306960D02*
X17603396Y-15316484D01*
X17603396Y-15316484D02*
X17565301Y-15316484D01*
X17565301Y-15316484D02*
X17546253Y-15306960D01*
X17727205Y-15297436D02*
X17736729Y-15306960D01*
X17736729Y-15306960D02*
X17727205Y-15316484D01*
X17727205Y-15316484D02*
X17717682Y-15306960D01*
X17717682Y-15306960D02*
X17727205Y-15297436D01*
X17727205Y-15297436D02*
X17727205Y-15316484D01*
X17727205Y-15192674D02*
X17736729Y-15202198D01*
X17736729Y-15202198D02*
X17727205Y-15211722D01*
X17727205Y-15211722D02*
X17717682Y-15202198D01*
X17717682Y-15202198D02*
X17727205Y-15192674D01*
X17727205Y-15192674D02*
X17727205Y-15211722D01*
D10*
X16065000Y-15630000D02*
X16095000Y-15660000D01*
X16095000Y-15630000D02*
X16065000Y-15660000D01*
D11*
X16393872Y-15536484D02*
X16412920Y-15536484D01*
X16412920Y-15536484D02*
X16431967Y-15546008D01*
X16431967Y-15546008D02*
X16441491Y-15555531D01*
X16441491Y-15555531D02*
X16451015Y-15574579D01*
X16451015Y-15574579D02*
X16460539Y-15612674D01*
X16460539Y-15612674D02*
X16460539Y-15660293D01*
X16460539Y-15660293D02*
X16451015Y-15698388D01*
X16451015Y-15698388D02*
X16441491Y-15717436D01*
X16441491Y-15717436D02*
X16431967Y-15726960D01*
X16431967Y-15726960D02*
X16412920Y-15736484D01*
X16412920Y-15736484D02*
X16393872Y-15736484D01*
X16393872Y-15736484D02*
X16374824Y-15726960D01*
X16374824Y-15726960D02*
X16365301Y-15717436D01*
X16365301Y-15717436D02*
X16355777Y-15698388D01*
X16355777Y-15698388D02*
X16346253Y-15660293D01*
X16346253Y-15660293D02*
X16346253Y-15612674D01*
X16346253Y-15612674D02*
X16355777Y-15574579D01*
X16355777Y-15574579D02*
X16365301Y-15555531D01*
X16365301Y-15555531D02*
X16374824Y-15546008D01*
X16374824Y-15546008D02*
X16393872Y-15536484D01*
X16546253Y-15717436D02*
X16555777Y-15726960D01*
X16555777Y-15726960D02*
X16546253Y-15736484D01*
X16546253Y-15736484D02*
X16536729Y-15726960D01*
X16536729Y-15726960D02*
X16546253Y-15717436D01*
X16546253Y-15717436D02*
X16546253Y-15736484D01*
X16622443Y-15536484D02*
X16746253Y-15536484D01*
X16746253Y-15536484D02*
X16679586Y-15612674D01*
X16679586Y-15612674D02*
X16708158Y-15612674D01*
X16708158Y-15612674D02*
X16727205Y-15622198D01*
X16727205Y-15622198D02*
X16736729Y-15631722D01*
X16736729Y-15631722D02*
X16746253Y-15650769D01*
X16746253Y-15650769D02*
X16746253Y-15698388D01*
X16746253Y-15698388D02*
X16736729Y-15717436D01*
X16736729Y-15717436D02*
X16727205Y-15726960D01*
X16727205Y-15726960D02*
X16708158Y-15736484D01*
X16708158Y-15736484D02*
X16651015Y-15736484D01*
X16651015Y-15736484D02*
X16631967Y-15726960D01*
X16631967Y-15726960D02*
X16622443Y-15717436D01*
X16870063Y-15536484D02*
X16889110Y-15536484D01*
X16889110Y-15536484D02*
X16908158Y-15546008D01*
X16908158Y-15546008D02*
X16917682Y-15555531D01*
X16917682Y-15555531D02*
X16927205Y-15574579D01*
X16927205Y-15574579D02*
X16936729Y-15612674D01*
X16936729Y-15612674D02*
X16936729Y-15660293D01*
X16936729Y-15660293D02*
X16927205Y-15698388D01*
X16927205Y-15698388D02*
X16917682Y-15717436D01*
X16917682Y-15717436D02*
X16908158Y-15726960D01*
X16908158Y-15726960D02*
X16889110Y-15736484D01*
X16889110Y-15736484D02*
X16870063Y-15736484D01*
X16870063Y-15736484D02*
X16851015Y-15726960D01*
X16851015Y-15726960D02*
X16841491Y-15717436D01*
X16841491Y-15717436D02*
X16831967Y-15698388D01*
X16831967Y-15698388D02*
X16822444Y-15660293D01*
X16822444Y-15660293D02*
X16822444Y-15612674D01*
X16822444Y-15612674D02*
X16831967Y-15574579D01*
X16831967Y-15574579D02*
X16841491Y-15555531D01*
X16841491Y-15555531D02*
X16851015Y-15546008D01*
X16851015Y-15546008D02*
X16870063Y-15536484D01*
X17060539Y-15536484D02*
X17079586Y-15536484D01*
X17079586Y-15536484D02*
X17098634Y-15546008D01*
X17098634Y-15546008D02*
X17108158Y-15555531D01*
X17108158Y-15555531D02*
X17117682Y-15574579D01*
X17117682Y-15574579D02*
X17127205Y-15612674D01*
X17127205Y-15612674D02*
X17127205Y-15660293D01*
X17127205Y-15660293D02*
X17117682Y-15698388D01*
X17117682Y-15698388D02*
X17108158Y-15717436D01*
X17108158Y-15717436D02*
X17098634Y-15726960D01*
X17098634Y-15726960D02*
X17079586Y-15736484D01*
X17079586Y-15736484D02*
X17060539Y-15736484D01*
X17060539Y-15736484D02*
X17041491Y-15726960D01*
X17041491Y-15726960D02*
X17031967Y-15717436D01*
X17031967Y-15717436D02*
X17022444Y-15698388D01*
X17022444Y-15698388D02*
X17012920Y-15660293D01*
X17012920Y-15660293D02*
X17012920Y-15612674D01*
X17012920Y-15612674D02*
X17022444Y-15574579D01*
X17022444Y-15574579D02*
X17031967Y-15555531D01*
X17031967Y-15555531D02*
X17041491Y-15546008D01*
X17041491Y-15546008D02*
X17060539Y-15536484D01*
X17212920Y-15736484D02*
X17212920Y-15603150D01*
X17212920Y-15622198D02*
X17222444Y-15612674D01*
X17222444Y-15612674D02*
X17241491Y-15603150D01*
X17241491Y-15603150D02*
X17270063Y-15603150D01*
X17270063Y-15603150D02*
X17289110Y-15612674D01*
X17289110Y-15612674D02*
X17298634Y-15631722D01*
X17298634Y-15631722D02*
X17298634Y-15736484D01*
X17298634Y-15631722D02*
X17308158Y-15612674D01*
X17308158Y-15612674D02*
X17327205Y-15603150D01*
X17327205Y-15603150D02*
X17355777Y-15603150D01*
X17355777Y-15603150D02*
X17374825Y-15612674D01*
X17374825Y-15612674D02*
X17384348Y-15631722D01*
X17384348Y-15631722D02*
X17384348Y-15736484D01*
X17479586Y-15736484D02*
X17479586Y-15603150D01*
X17479586Y-15622198D02*
X17489110Y-15612674D01*
X17489110Y-15612674D02*
X17508158Y-15603150D01*
X17508158Y-15603150D02*
X17536729Y-15603150D01*
X17536729Y-15603150D02*
X17555777Y-15612674D01*
X17555777Y-15612674D02*
X17565301Y-15631722D01*
X17565301Y-15631722D02*
X17565301Y-15736484D01*
X17565301Y-15631722D02*
X17574825Y-15612674D01*
X17574825Y-15612674D02*
X17593872Y-15603150D01*
X17593872Y-15603150D02*
X17622444Y-15603150D01*
X17622444Y-15603150D02*
X17641491Y-15612674D01*
X17641491Y-15612674D02*
X17651015Y-15631722D01*
X17651015Y-15631722D02*
X17651015Y-15736484D01*
X18041491Y-15526960D02*
X17870063Y-15784103D01*
X18298634Y-15536484D02*
X18317682Y-15536484D01*
X18317682Y-15536484D02*
X18336729Y-15546008D01*
X18336729Y-15546008D02*
X18346253Y-15555531D01*
X18346253Y-15555531D02*
X18355777Y-15574579D01*
X18355777Y-15574579D02*
X18365301Y-15612674D01*
X18365301Y-15612674D02*
X18365301Y-15660293D01*
X18365301Y-15660293D02*
X18355777Y-15698388D01*
X18355777Y-15698388D02*
X18346253Y-15717436D01*
X18346253Y-15717436D02*
X18336729Y-15726960D01*
X18336729Y-15726960D02*
X18317682Y-15736484D01*
X18317682Y-15736484D02*
X18298634Y-15736484D01*
X18298634Y-15736484D02*
X18279587Y-15726960D01*
X18279587Y-15726960D02*
X18270063Y-15717436D01*
X18270063Y-15717436D02*
X18260539Y-15698388D01*
X18260539Y-15698388D02*
X18251015Y-15660293D01*
X18251015Y-15660293D02*
X18251015Y-15612674D01*
X18251015Y-15612674D02*
X18260539Y-15574579D01*
X18260539Y-15574579D02*
X18270063Y-15555531D01*
X18270063Y-15555531D02*
X18279587Y-15546008D01*
X18279587Y-15546008D02*
X18298634Y-15536484D01*
X18451015Y-15717436D02*
X18460539Y-15726960D01*
X18460539Y-15726960D02*
X18451015Y-15736484D01*
X18451015Y-15736484D02*
X18441491Y-15726960D01*
X18441491Y-15726960D02*
X18451015Y-15717436D01*
X18451015Y-15717436D02*
X18451015Y-15736484D01*
X18584348Y-15536484D02*
X18603396Y-15536484D01*
X18603396Y-15536484D02*
X18622444Y-15546008D01*
X18622444Y-15546008D02*
X18631968Y-15555531D01*
X18631968Y-15555531D02*
X18641491Y-15574579D01*
X18641491Y-15574579D02*
X18651015Y-15612674D01*
X18651015Y-15612674D02*
X18651015Y-15660293D01*
X18651015Y-15660293D02*
X18641491Y-15698388D01*
X18641491Y-15698388D02*
X18631968Y-15717436D01*
X18631968Y-15717436D02*
X18622444Y-15726960D01*
X18622444Y-15726960D02*
X18603396Y-15736484D01*
X18603396Y-15736484D02*
X18584348Y-15736484D01*
X18584348Y-15736484D02*
X18565301Y-15726960D01*
X18565301Y-15726960D02*
X18555777Y-15717436D01*
X18555777Y-15717436D02*
X18546253Y-15698388D01*
X18546253Y-15698388D02*
X18536729Y-15660293D01*
X18536729Y-15660293D02*
X18536729Y-15612674D01*
X18536729Y-15612674D02*
X18546253Y-15574579D01*
X18546253Y-15574579D02*
X18555777Y-15555531D01*
X18555777Y-15555531D02*
X18565301Y-15546008D01*
X18565301Y-15546008D02*
X18584348Y-15536484D01*
X18841491Y-15736484D02*
X18727206Y-15736484D01*
X18784348Y-15736484D02*
X18784348Y-15536484D01*
X18784348Y-15536484D02*
X18765301Y-15565055D01*
X18765301Y-15565055D02*
X18746253Y-15584103D01*
X18746253Y-15584103D02*
X18727206Y-15593627D01*
X19031968Y-15736484D02*
X18917682Y-15736484D01*
X18974825Y-15736484D02*
X18974825Y-15536484D01*
X18974825Y-15536484D02*
X18955777Y-15565055D01*
X18955777Y-15565055D02*
X18936729Y-15584103D01*
X18936729Y-15584103D02*
X18917682Y-15593627D01*
X19146253Y-15622198D02*
X19127206Y-15612674D01*
X19127206Y-15612674D02*
X19117682Y-15603150D01*
X19117682Y-15603150D02*
X19108158Y-15584103D01*
X19108158Y-15584103D02*
X19108158Y-15574579D01*
X19108158Y-15574579D02*
X19117682Y-15555531D01*
X19117682Y-15555531D02*
X19127206Y-15546008D01*
X19127206Y-15546008D02*
X19146253Y-15536484D01*
X19146253Y-15536484D02*
X19184349Y-15536484D01*
X19184349Y-15536484D02*
X19203396Y-15546008D01*
X19203396Y-15546008D02*
X19212920Y-15555531D01*
X19212920Y-15555531D02*
X19222444Y-15574579D01*
X19222444Y-15574579D02*
X19222444Y-15584103D01*
X19222444Y-15584103D02*
X19212920Y-15603150D01*
X19212920Y-15603150D02*
X19203396Y-15612674D01*
X19203396Y-15612674D02*
X19184349Y-15622198D01*
X19184349Y-15622198D02*
X19146253Y-15622198D01*
X19146253Y-15622198D02*
X19127206Y-15631722D01*
X19127206Y-15631722D02*
X19117682Y-15641246D01*
X19117682Y-15641246D02*
X19108158Y-15660293D01*
X19108158Y-15660293D02*
X19108158Y-15698388D01*
X19108158Y-15698388D02*
X19117682Y-15717436D01*
X19117682Y-15717436D02*
X19127206Y-15726960D01*
X19127206Y-15726960D02*
X19146253Y-15736484D01*
X19146253Y-15736484D02*
X19184349Y-15736484D01*
X19184349Y-15736484D02*
X19203396Y-15726960D01*
X19203396Y-15726960D02*
X19212920Y-15717436D01*
X19212920Y-15717436D02*
X19222444Y-15698388D01*
X19222444Y-15698388D02*
X19222444Y-15660293D01*
X19222444Y-15660293D02*
X19212920Y-15641246D01*
X19212920Y-15641246D02*
X19203396Y-15631722D01*
X19203396Y-15631722D02*
X19184349Y-15622198D01*
X19298634Y-15536484D02*
X19298634Y-15574579D01*
X19374825Y-15536484D02*
X19374825Y-15574579D01*
X19670063Y-15812674D02*
X19660539Y-15803150D01*
X19660539Y-15803150D02*
X19641491Y-15774579D01*
X19641491Y-15774579D02*
X19631968Y-15755531D01*
X19631968Y-15755531D02*
X19622444Y-15726960D01*
X19622444Y-15726960D02*
X19612920Y-15679341D01*
X19612920Y-15679341D02*
X19612920Y-15641246D01*
X19612920Y-15641246D02*
X19622444Y-15593627D01*
X19622444Y-15593627D02*
X19631968Y-15565055D01*
X19631968Y-15565055D02*
X19641491Y-15546008D01*
X19641491Y-15546008D02*
X19660539Y-15517436D01*
X19660539Y-15517436D02*
X19670063Y-15507912D01*
X19736730Y-15555531D02*
X19746253Y-15546008D01*
X19746253Y-15546008D02*
X19765301Y-15536484D01*
X19765301Y-15536484D02*
X19812920Y-15536484D01*
X19812920Y-15536484D02*
X19831968Y-15546008D01*
X19831968Y-15546008D02*
X19841491Y-15555531D01*
X19841491Y-15555531D02*
X19851015Y-15574579D01*
X19851015Y-15574579D02*
X19851015Y-15593627D01*
X19851015Y-15593627D02*
X19841491Y-15622198D01*
X19841491Y-15622198D02*
X19727206Y-15736484D01*
X19727206Y-15736484D02*
X19851015Y-15736484D01*
X19917682Y-15536484D02*
X20051015Y-15536484D01*
X20051015Y-15536484D02*
X19965301Y-15736484D01*
X20222444Y-15536484D02*
X20127206Y-15536484D01*
X20127206Y-15536484D02*
X20117682Y-15631722D01*
X20117682Y-15631722D02*
X20127206Y-15622198D01*
X20127206Y-15622198D02*
X20146253Y-15612674D01*
X20146253Y-15612674D02*
X20193872Y-15612674D01*
X20193872Y-15612674D02*
X20212920Y-15622198D01*
X20212920Y-15622198D02*
X20222444Y-15631722D01*
X20222444Y-15631722D02*
X20231968Y-15650769D01*
X20231968Y-15650769D02*
X20231968Y-15698388D01*
X20231968Y-15698388D02*
X20222444Y-15717436D01*
X20222444Y-15717436D02*
X20212920Y-15726960D01*
X20212920Y-15726960D02*
X20193872Y-15736484D01*
X20193872Y-15736484D02*
X20146253Y-15736484D01*
X20146253Y-15736484D02*
X20127206Y-15726960D01*
X20127206Y-15726960D02*
X20117682Y-15717436D01*
X20470063Y-15736484D02*
X20470063Y-15536484D01*
X20555777Y-15736484D02*
X20555777Y-15631722D01*
X20555777Y-15631722D02*
X20546253Y-15612674D01*
X20546253Y-15612674D02*
X20527206Y-15603150D01*
X20527206Y-15603150D02*
X20498634Y-15603150D01*
X20498634Y-15603150D02*
X20479587Y-15612674D01*
X20479587Y-15612674D02*
X20470063Y-15622198D01*
X20679587Y-15736484D02*
X20660539Y-15726960D01*
X20660539Y-15726960D02*
X20651015Y-15717436D01*
X20651015Y-15717436D02*
X20641492Y-15698388D01*
X20641492Y-15698388D02*
X20641492Y-15641246D01*
X20641492Y-15641246D02*
X20651015Y-15622198D01*
X20651015Y-15622198D02*
X20660539Y-15612674D01*
X20660539Y-15612674D02*
X20679587Y-15603150D01*
X20679587Y-15603150D02*
X20708158Y-15603150D01*
X20708158Y-15603150D02*
X20727206Y-15612674D01*
X20727206Y-15612674D02*
X20736730Y-15622198D01*
X20736730Y-15622198D02*
X20746253Y-15641246D01*
X20746253Y-15641246D02*
X20746253Y-15698388D01*
X20746253Y-15698388D02*
X20736730Y-15717436D01*
X20736730Y-15717436D02*
X20727206Y-15726960D01*
X20727206Y-15726960D02*
X20708158Y-15736484D01*
X20708158Y-15736484D02*
X20679587Y-15736484D01*
X20860539Y-15736484D02*
X20841492Y-15726960D01*
X20841492Y-15726960D02*
X20831968Y-15707912D01*
X20831968Y-15707912D02*
X20831968Y-15536484D01*
X21012920Y-15726960D02*
X20993873Y-15736484D01*
X20993873Y-15736484D02*
X20955777Y-15736484D01*
X20955777Y-15736484D02*
X20936730Y-15726960D01*
X20936730Y-15726960D02*
X20927206Y-15707912D01*
X20927206Y-15707912D02*
X20927206Y-15631722D01*
X20927206Y-15631722D02*
X20936730Y-15612674D01*
X20936730Y-15612674D02*
X20955777Y-15603150D01*
X20955777Y-15603150D02*
X20993873Y-15603150D01*
X20993873Y-15603150D02*
X21012920Y-15612674D01*
X21012920Y-15612674D02*
X21022444Y-15631722D01*
X21022444Y-15631722D02*
X21022444Y-15650769D01*
X21022444Y-15650769D02*
X20927206Y-15669817D01*
X21098634Y-15726960D02*
X21117682Y-15736484D01*
X21117682Y-15736484D02*
X21155777Y-15736484D01*
X21155777Y-15736484D02*
X21174825Y-15726960D01*
X21174825Y-15726960D02*
X21184349Y-15707912D01*
X21184349Y-15707912D02*
X21184349Y-15698388D01*
X21184349Y-15698388D02*
X21174825Y-15679341D01*
X21174825Y-15679341D02*
X21155777Y-15669817D01*
X21155777Y-15669817D02*
X21127206Y-15669817D01*
X21127206Y-15669817D02*
X21108158Y-15660293D01*
X21108158Y-15660293D02*
X21098634Y-15641246D01*
X21098634Y-15641246D02*
X21098634Y-15631722D01*
X21098634Y-15631722D02*
X21108158Y-15612674D01*
X21108158Y-15612674D02*
X21127206Y-15603150D01*
X21127206Y-15603150D02*
X21155777Y-15603150D01*
X21155777Y-15603150D02*
X21174825Y-15612674D01*
X21251015Y-15812674D02*
X21260539Y-15803150D01*
X21260539Y-15803150D02*
X21279587Y-15774579D01*
X21279587Y-15774579D02*
X21289111Y-15755531D01*
X21289111Y-15755531D02*
X21298634Y-15726960D01*
X21298634Y-15726960D02*
X21308158Y-15679341D01*
X21308158Y-15679341D02*
X21308158Y-15641246D01*
X21308158Y-15641246D02*
X21298634Y-15593627D01*
X21298634Y-15593627D02*
X21289111Y-15565055D01*
X21289111Y-15565055D02*
X21279587Y-15546008D01*
X21279587Y-15546008D02*
X21260539Y-15517436D01*
X21260539Y-15517436D02*
X21251015Y-15507912D01*
D10*
X16095000Y-15909000D02*
G75*
G02*
X15995000Y-15909000I-50000J0D01*
G01*
X15995000Y-15909000D02*
G75*
G02*
X16095000Y-15909000I50000J0D01*
G01*
D11*
X16460539Y-16000484D02*
X16346253Y-16000484D01*
X16403396Y-16000484D02*
X16403396Y-15800484D01*
X16403396Y-15800484D02*
X16384348Y-15829055D01*
X16384348Y-15829055D02*
X16365301Y-15848103D01*
X16365301Y-15848103D02*
X16346253Y-15857627D01*
X16546253Y-15981436D02*
X16555777Y-15990960D01*
X16555777Y-15990960D02*
X16546253Y-16000484D01*
X16546253Y-16000484D02*
X16536729Y-15990960D01*
X16536729Y-15990960D02*
X16546253Y-15981436D01*
X16546253Y-15981436D02*
X16546253Y-16000484D01*
X16679586Y-15800484D02*
X16698634Y-15800484D01*
X16698634Y-15800484D02*
X16717682Y-15810008D01*
X16717682Y-15810008D02*
X16727205Y-15819531D01*
X16727205Y-15819531D02*
X16736729Y-15838579D01*
X16736729Y-15838579D02*
X16746253Y-15876674D01*
X16746253Y-15876674D02*
X16746253Y-15924293D01*
X16746253Y-15924293D02*
X16736729Y-15962388D01*
X16736729Y-15962388D02*
X16727205Y-15981436D01*
X16727205Y-15981436D02*
X16717682Y-15990960D01*
X16717682Y-15990960D02*
X16698634Y-16000484D01*
X16698634Y-16000484D02*
X16679586Y-16000484D01*
X16679586Y-16000484D02*
X16660539Y-15990960D01*
X16660539Y-15990960D02*
X16651015Y-15981436D01*
X16651015Y-15981436D02*
X16641491Y-15962388D01*
X16641491Y-15962388D02*
X16631967Y-15924293D01*
X16631967Y-15924293D02*
X16631967Y-15876674D01*
X16631967Y-15876674D02*
X16641491Y-15838579D01*
X16641491Y-15838579D02*
X16651015Y-15819531D01*
X16651015Y-15819531D02*
X16660539Y-15810008D01*
X16660539Y-15810008D02*
X16679586Y-15800484D01*
X16870063Y-15800484D02*
X16889110Y-15800484D01*
X16889110Y-15800484D02*
X16908158Y-15810008D01*
X16908158Y-15810008D02*
X16917682Y-15819531D01*
X16917682Y-15819531D02*
X16927205Y-15838579D01*
X16927205Y-15838579D02*
X16936729Y-15876674D01*
X16936729Y-15876674D02*
X16936729Y-15924293D01*
X16936729Y-15924293D02*
X16927205Y-15962388D01*
X16927205Y-15962388D02*
X16917682Y-15981436D01*
X16917682Y-15981436D02*
X16908158Y-15990960D01*
X16908158Y-15990960D02*
X16889110Y-16000484D01*
X16889110Y-16000484D02*
X16870063Y-16000484D01*
X16870063Y-16000484D02*
X16851015Y-15990960D01*
X16851015Y-15990960D02*
X16841491Y-15981436D01*
X16841491Y-15981436D02*
X16831967Y-15962388D01*
X16831967Y-15962388D02*
X16822444Y-15924293D01*
X16822444Y-15924293D02*
X16822444Y-15876674D01*
X16822444Y-15876674D02*
X16831967Y-15838579D01*
X16831967Y-15838579D02*
X16841491Y-15819531D01*
X16841491Y-15819531D02*
X16851015Y-15810008D01*
X16851015Y-15810008D02*
X16870063Y-15800484D01*
X17060539Y-15800484D02*
X17079586Y-15800484D01*
X17079586Y-15800484D02*
X17098634Y-15810008D01*
X17098634Y-15810008D02*
X17108158Y-15819531D01*
X17108158Y-15819531D02*
X17117682Y-15838579D01*
X17117682Y-15838579D02*
X17127205Y-15876674D01*
X17127205Y-15876674D02*
X17127205Y-15924293D01*
X17127205Y-15924293D02*
X17117682Y-15962388D01*
X17117682Y-15962388D02*
X17108158Y-15981436D01*
X17108158Y-15981436D02*
X17098634Y-15990960D01*
X17098634Y-15990960D02*
X17079586Y-16000484D01*
X17079586Y-16000484D02*
X17060539Y-16000484D01*
X17060539Y-16000484D02*
X17041491Y-15990960D01*
X17041491Y-15990960D02*
X17031967Y-15981436D01*
X17031967Y-15981436D02*
X17022444Y-15962388D01*
X17022444Y-15962388D02*
X17012920Y-15924293D01*
X17012920Y-15924293D02*
X17012920Y-15876674D01*
X17012920Y-15876674D02*
X17022444Y-15838579D01*
X17022444Y-15838579D02*
X17031967Y-15819531D01*
X17031967Y-15819531D02*
X17041491Y-15810008D01*
X17041491Y-15810008D02*
X17060539Y-15800484D01*
X17212920Y-16000484D02*
X17212920Y-15867150D01*
X17212920Y-15886198D02*
X17222444Y-15876674D01*
X17222444Y-15876674D02*
X17241491Y-15867150D01*
X17241491Y-15867150D02*
X17270063Y-15867150D01*
X17270063Y-15867150D02*
X17289110Y-15876674D01*
X17289110Y-15876674D02*
X17298634Y-15895722D01*
X17298634Y-15895722D02*
X17298634Y-16000484D01*
X17298634Y-15895722D02*
X17308158Y-15876674D01*
X17308158Y-15876674D02*
X17327205Y-15867150D01*
X17327205Y-15867150D02*
X17355777Y-15867150D01*
X17355777Y-15867150D02*
X17374825Y-15876674D01*
X17374825Y-15876674D02*
X17384348Y-15895722D01*
X17384348Y-15895722D02*
X17384348Y-16000484D01*
X17479586Y-16000484D02*
X17479586Y-15867150D01*
X17479586Y-15886198D02*
X17489110Y-15876674D01*
X17489110Y-15876674D02*
X17508158Y-15867150D01*
X17508158Y-15867150D02*
X17536729Y-15867150D01*
X17536729Y-15867150D02*
X17555777Y-15876674D01*
X17555777Y-15876674D02*
X17565301Y-15895722D01*
X17565301Y-15895722D02*
X17565301Y-16000484D01*
X17565301Y-15895722D02*
X17574825Y-15876674D01*
X17574825Y-15876674D02*
X17593872Y-15867150D01*
X17593872Y-15867150D02*
X17622444Y-15867150D01*
X17622444Y-15867150D02*
X17641491Y-15876674D01*
X17641491Y-15876674D02*
X17651015Y-15895722D01*
X17651015Y-15895722D02*
X17651015Y-16000484D01*
X18041491Y-15790960D02*
X17870063Y-16048103D01*
X18298634Y-15800484D02*
X18317682Y-15800484D01*
X18317682Y-15800484D02*
X18336729Y-15810008D01*
X18336729Y-15810008D02*
X18346253Y-15819531D01*
X18346253Y-15819531D02*
X18355777Y-15838579D01*
X18355777Y-15838579D02*
X18365301Y-15876674D01*
X18365301Y-15876674D02*
X18365301Y-15924293D01*
X18365301Y-15924293D02*
X18355777Y-15962388D01*
X18355777Y-15962388D02*
X18346253Y-15981436D01*
X18346253Y-15981436D02*
X18336729Y-15990960D01*
X18336729Y-15990960D02*
X18317682Y-16000484D01*
X18317682Y-16000484D02*
X18298634Y-16000484D01*
X18298634Y-16000484D02*
X18279587Y-15990960D01*
X18279587Y-15990960D02*
X18270063Y-15981436D01*
X18270063Y-15981436D02*
X18260539Y-15962388D01*
X18260539Y-15962388D02*
X18251015Y-15924293D01*
X18251015Y-15924293D02*
X18251015Y-15876674D01*
X18251015Y-15876674D02*
X18260539Y-15838579D01*
X18260539Y-15838579D02*
X18270063Y-15819531D01*
X18270063Y-15819531D02*
X18279587Y-15810008D01*
X18279587Y-15810008D02*
X18298634Y-15800484D01*
X18451015Y-15981436D02*
X18460539Y-15990960D01*
X18460539Y-15990960D02*
X18451015Y-16000484D01*
X18451015Y-16000484D02*
X18441491Y-15990960D01*
X18441491Y-15990960D02*
X18451015Y-15981436D01*
X18451015Y-15981436D02*
X18451015Y-16000484D01*
X18584348Y-15800484D02*
X18603396Y-15800484D01*
X18603396Y-15800484D02*
X18622444Y-15810008D01*
X18622444Y-15810008D02*
X18631968Y-15819531D01*
X18631968Y-15819531D02*
X18641491Y-15838579D01*
X18641491Y-15838579D02*
X18651015Y-15876674D01*
X18651015Y-15876674D02*
X18651015Y-15924293D01*
X18651015Y-15924293D02*
X18641491Y-15962388D01*
X18641491Y-15962388D02*
X18631968Y-15981436D01*
X18631968Y-15981436D02*
X18622444Y-15990960D01*
X18622444Y-15990960D02*
X18603396Y-16000484D01*
X18603396Y-16000484D02*
X18584348Y-16000484D01*
X18584348Y-16000484D02*
X18565301Y-15990960D01*
X18565301Y-15990960D02*
X18555777Y-15981436D01*
X18555777Y-15981436D02*
X18546253Y-15962388D01*
X18546253Y-15962388D02*
X18536729Y-15924293D01*
X18536729Y-15924293D02*
X18536729Y-15876674D01*
X18536729Y-15876674D02*
X18546253Y-15838579D01*
X18546253Y-15838579D02*
X18555777Y-15819531D01*
X18555777Y-15819531D02*
X18565301Y-15810008D01*
X18565301Y-15810008D02*
X18584348Y-15800484D01*
X18717682Y-15800484D02*
X18841491Y-15800484D01*
X18841491Y-15800484D02*
X18774825Y-15876674D01*
X18774825Y-15876674D02*
X18803396Y-15876674D01*
X18803396Y-15876674D02*
X18822444Y-15886198D01*
X18822444Y-15886198D02*
X18831968Y-15895722D01*
X18831968Y-15895722D02*
X18841491Y-15914769D01*
X18841491Y-15914769D02*
X18841491Y-15962388D01*
X18841491Y-15962388D02*
X18831968Y-15981436D01*
X18831968Y-15981436D02*
X18822444Y-15990960D01*
X18822444Y-15990960D02*
X18803396Y-16000484D01*
X18803396Y-16000484D02*
X18746253Y-16000484D01*
X18746253Y-16000484D02*
X18727206Y-15990960D01*
X18727206Y-15990960D02*
X18717682Y-15981436D01*
X18936729Y-16000484D02*
X18974825Y-16000484D01*
X18974825Y-16000484D02*
X18993872Y-15990960D01*
X18993872Y-15990960D02*
X19003396Y-15981436D01*
X19003396Y-15981436D02*
X19022444Y-15952865D01*
X19022444Y-15952865D02*
X19031968Y-15914769D01*
X19031968Y-15914769D02*
X19031968Y-15838579D01*
X19031968Y-15838579D02*
X19022444Y-15819531D01*
X19022444Y-15819531D02*
X19012920Y-15810008D01*
X19012920Y-15810008D02*
X18993872Y-15800484D01*
X18993872Y-15800484D02*
X18955777Y-15800484D01*
X18955777Y-15800484D02*
X18936729Y-15810008D01*
X18936729Y-15810008D02*
X18927206Y-15819531D01*
X18927206Y-15819531D02*
X18917682Y-15838579D01*
X18917682Y-15838579D02*
X18917682Y-15886198D01*
X18917682Y-15886198D02*
X18927206Y-15905246D01*
X18927206Y-15905246D02*
X18936729Y-15914769D01*
X18936729Y-15914769D02*
X18955777Y-15924293D01*
X18955777Y-15924293D02*
X18993872Y-15924293D01*
X18993872Y-15924293D02*
X19012920Y-15914769D01*
X19012920Y-15914769D02*
X19022444Y-15905246D01*
X19022444Y-15905246D02*
X19031968Y-15886198D01*
X19203396Y-15867150D02*
X19203396Y-16000484D01*
X19155777Y-15790960D02*
X19108158Y-15933817D01*
X19108158Y-15933817D02*
X19231968Y-15933817D01*
X19298634Y-15800484D02*
X19298634Y-15838579D01*
X19374825Y-15800484D02*
X19374825Y-15838579D01*
X19670063Y-16076674D02*
X19660539Y-16067150D01*
X19660539Y-16067150D02*
X19641491Y-16038579D01*
X19641491Y-16038579D02*
X19631968Y-16019531D01*
X19631968Y-16019531D02*
X19622444Y-15990960D01*
X19622444Y-15990960D02*
X19612920Y-15943341D01*
X19612920Y-15943341D02*
X19612920Y-15905246D01*
X19612920Y-15905246D02*
X19622444Y-15857627D01*
X19622444Y-15857627D02*
X19631968Y-15829055D01*
X19631968Y-15829055D02*
X19641491Y-15810008D01*
X19641491Y-15810008D02*
X19660539Y-15781436D01*
X19660539Y-15781436D02*
X19670063Y-15771912D01*
X19774825Y-15886198D02*
X19755777Y-15876674D01*
X19755777Y-15876674D02*
X19746253Y-15867150D01*
X19746253Y-15867150D02*
X19736730Y-15848103D01*
X19736730Y-15848103D02*
X19736730Y-15838579D01*
X19736730Y-15838579D02*
X19746253Y-15819531D01*
X19746253Y-15819531D02*
X19755777Y-15810008D01*
X19755777Y-15810008D02*
X19774825Y-15800484D01*
X19774825Y-15800484D02*
X19812920Y-15800484D01*
X19812920Y-15800484D02*
X19831968Y-15810008D01*
X19831968Y-15810008D02*
X19841491Y-15819531D01*
X19841491Y-15819531D02*
X19851015Y-15838579D01*
X19851015Y-15838579D02*
X19851015Y-15848103D01*
X19851015Y-15848103D02*
X19841491Y-15867150D01*
X19841491Y-15867150D02*
X19831968Y-15876674D01*
X19831968Y-15876674D02*
X19812920Y-15886198D01*
X19812920Y-15886198D02*
X19774825Y-15886198D01*
X19774825Y-15886198D02*
X19755777Y-15895722D01*
X19755777Y-15895722D02*
X19746253Y-15905246D01*
X19746253Y-15905246D02*
X19736730Y-15924293D01*
X19736730Y-15924293D02*
X19736730Y-15962388D01*
X19736730Y-15962388D02*
X19746253Y-15981436D01*
X19746253Y-15981436D02*
X19755777Y-15990960D01*
X19755777Y-15990960D02*
X19774825Y-16000484D01*
X19774825Y-16000484D02*
X19812920Y-16000484D01*
X19812920Y-16000484D02*
X19831968Y-15990960D01*
X19831968Y-15990960D02*
X19841491Y-15981436D01*
X19841491Y-15981436D02*
X19851015Y-15962388D01*
X19851015Y-15962388D02*
X19851015Y-15924293D01*
X19851015Y-15924293D02*
X19841491Y-15905246D01*
X19841491Y-15905246D02*
X19831968Y-15895722D01*
X19831968Y-15895722D02*
X19812920Y-15886198D01*
X20089111Y-16000484D02*
X20089111Y-15800484D01*
X20174825Y-16000484D02*
X20174825Y-15895722D01*
X20174825Y-15895722D02*
X20165301Y-15876674D01*
X20165301Y-15876674D02*
X20146253Y-15867150D01*
X20146253Y-15867150D02*
X20117682Y-15867150D01*
X20117682Y-15867150D02*
X20098634Y-15876674D01*
X20098634Y-15876674D02*
X20089111Y-15886198D01*
X20298634Y-16000484D02*
X20279587Y-15990960D01*
X20279587Y-15990960D02*
X20270063Y-15981436D01*
X20270063Y-15981436D02*
X20260539Y-15962388D01*
X20260539Y-15962388D02*
X20260539Y-15905246D01*
X20260539Y-15905246D02*
X20270063Y-15886198D01*
X20270063Y-15886198D02*
X20279587Y-15876674D01*
X20279587Y-15876674D02*
X20298634Y-15867150D01*
X20298634Y-15867150D02*
X20327206Y-15867150D01*
X20327206Y-15867150D02*
X20346253Y-15876674D01*
X20346253Y-15876674D02*
X20355777Y-15886198D01*
X20355777Y-15886198D02*
X20365301Y-15905246D01*
X20365301Y-15905246D02*
X20365301Y-15962388D01*
X20365301Y-15962388D02*
X20355777Y-15981436D01*
X20355777Y-15981436D02*
X20346253Y-15990960D01*
X20346253Y-15990960D02*
X20327206Y-16000484D01*
X20327206Y-16000484D02*
X20298634Y-16000484D01*
X20479587Y-16000484D02*
X20460539Y-15990960D01*
X20460539Y-15990960D02*
X20451015Y-15971912D01*
X20451015Y-15971912D02*
X20451015Y-15800484D01*
X20631968Y-15990960D02*
X20612920Y-16000484D01*
X20612920Y-16000484D02*
X20574825Y-16000484D01*
X20574825Y-16000484D02*
X20555777Y-15990960D01*
X20555777Y-15990960D02*
X20546253Y-15971912D01*
X20546253Y-15971912D02*
X20546253Y-15895722D01*
X20546253Y-15895722D02*
X20555777Y-15876674D01*
X20555777Y-15876674D02*
X20574825Y-15867150D01*
X20574825Y-15867150D02*
X20612920Y-15867150D01*
X20612920Y-15867150D02*
X20631968Y-15876674D01*
X20631968Y-15876674D02*
X20641492Y-15895722D01*
X20641492Y-15895722D02*
X20641492Y-15914769D01*
X20641492Y-15914769D02*
X20546253Y-15933817D01*
X20717682Y-15990960D02*
X20736730Y-16000484D01*
X20736730Y-16000484D02*
X20774825Y-16000484D01*
X20774825Y-16000484D02*
X20793873Y-15990960D01*
X20793873Y-15990960D02*
X20803396Y-15971912D01*
X20803396Y-15971912D02*
X20803396Y-15962388D01*
X20803396Y-15962388D02*
X20793873Y-15943341D01*
X20793873Y-15943341D02*
X20774825Y-15933817D01*
X20774825Y-15933817D02*
X20746253Y-15933817D01*
X20746253Y-15933817D02*
X20727206Y-15924293D01*
X20727206Y-15924293D02*
X20717682Y-15905246D01*
X20717682Y-15905246D02*
X20717682Y-15895722D01*
X20717682Y-15895722D02*
X20727206Y-15876674D01*
X20727206Y-15876674D02*
X20746253Y-15867150D01*
X20746253Y-15867150D02*
X20774825Y-15867150D01*
X20774825Y-15867150D02*
X20793873Y-15876674D01*
X20870063Y-16076674D02*
X20879587Y-16067150D01*
X20879587Y-16067150D02*
X20898634Y-16038579D01*
X20898634Y-16038579D02*
X20908158Y-16019531D01*
X20908158Y-16019531D02*
X20917682Y-15990960D01*
X20917682Y-15990960D02*
X20927206Y-15943341D01*
X20927206Y-15943341D02*
X20927206Y-15905246D01*
X20927206Y-15905246D02*
X20917682Y-15857627D01*
X20917682Y-15857627D02*
X20908158Y-15829055D01*
X20908158Y-15829055D02*
X20898634Y-15810008D01*
X20898634Y-15810008D02*
X20879587Y-15781436D01*
X20879587Y-15781436D02*
X20870063Y-15771912D01*
D12*
X16044000Y-16122000D02*
X16044000Y-16224000D01*
X15993000Y-16173000D02*
X16095000Y-16173000D01*
D11*
X16460539Y-16264484D02*
X16346253Y-16264484D01*
X16403396Y-16264484D02*
X16403396Y-16064484D01*
X16403396Y-16064484D02*
X16384348Y-16093055D01*
X16384348Y-16093055D02*
X16365301Y-16112103D01*
X16365301Y-16112103D02*
X16346253Y-16121627D01*
X16546253Y-16245436D02*
X16555777Y-16254960D01*
X16555777Y-16254960D02*
X16546253Y-16264484D01*
X16546253Y-16264484D02*
X16536729Y-16254960D01*
X16536729Y-16254960D02*
X16546253Y-16245436D01*
X16546253Y-16245436D02*
X16546253Y-16264484D01*
X16679586Y-16064484D02*
X16698634Y-16064484D01*
X16698634Y-16064484D02*
X16717682Y-16074008D01*
X16717682Y-16074008D02*
X16727205Y-16083531D01*
X16727205Y-16083531D02*
X16736729Y-16102579D01*
X16736729Y-16102579D02*
X16746253Y-16140674D01*
X16746253Y-16140674D02*
X16746253Y-16188293D01*
X16746253Y-16188293D02*
X16736729Y-16226388D01*
X16736729Y-16226388D02*
X16727205Y-16245436D01*
X16727205Y-16245436D02*
X16717682Y-16254960D01*
X16717682Y-16254960D02*
X16698634Y-16264484D01*
X16698634Y-16264484D02*
X16679586Y-16264484D01*
X16679586Y-16264484D02*
X16660539Y-16254960D01*
X16660539Y-16254960D02*
X16651015Y-16245436D01*
X16651015Y-16245436D02*
X16641491Y-16226388D01*
X16641491Y-16226388D02*
X16631967Y-16188293D01*
X16631967Y-16188293D02*
X16631967Y-16140674D01*
X16631967Y-16140674D02*
X16641491Y-16102579D01*
X16641491Y-16102579D02*
X16651015Y-16083531D01*
X16651015Y-16083531D02*
X16660539Y-16074008D01*
X16660539Y-16074008D02*
X16679586Y-16064484D01*
X16822444Y-16083531D02*
X16831967Y-16074008D01*
X16831967Y-16074008D02*
X16851015Y-16064484D01*
X16851015Y-16064484D02*
X16898634Y-16064484D01*
X16898634Y-16064484D02*
X16917682Y-16074008D01*
X16917682Y-16074008D02*
X16927205Y-16083531D01*
X16927205Y-16083531D02*
X16936729Y-16102579D01*
X16936729Y-16102579D02*
X16936729Y-16121627D01*
X16936729Y-16121627D02*
X16927205Y-16150198D01*
X16927205Y-16150198D02*
X16812920Y-16264484D01*
X16812920Y-16264484D02*
X16936729Y-16264484D01*
X17060539Y-16064484D02*
X17079586Y-16064484D01*
X17079586Y-16064484D02*
X17098634Y-16074008D01*
X17098634Y-16074008D02*
X17108158Y-16083531D01*
X17108158Y-16083531D02*
X17117682Y-16102579D01*
X17117682Y-16102579D02*
X17127205Y-16140674D01*
X17127205Y-16140674D02*
X17127205Y-16188293D01*
X17127205Y-16188293D02*
X17117682Y-16226388D01*
X17117682Y-16226388D02*
X17108158Y-16245436D01*
X17108158Y-16245436D02*
X17098634Y-16254960D01*
X17098634Y-16254960D02*
X17079586Y-16264484D01*
X17079586Y-16264484D02*
X17060539Y-16264484D01*
X17060539Y-16264484D02*
X17041491Y-16254960D01*
X17041491Y-16254960D02*
X17031967Y-16245436D01*
X17031967Y-16245436D02*
X17022444Y-16226388D01*
X17022444Y-16226388D02*
X17012920Y-16188293D01*
X17012920Y-16188293D02*
X17012920Y-16140674D01*
X17012920Y-16140674D02*
X17022444Y-16102579D01*
X17022444Y-16102579D02*
X17031967Y-16083531D01*
X17031967Y-16083531D02*
X17041491Y-16074008D01*
X17041491Y-16074008D02*
X17060539Y-16064484D01*
X17212920Y-16264484D02*
X17212920Y-16131150D01*
X17212920Y-16150198D02*
X17222444Y-16140674D01*
X17222444Y-16140674D02*
X17241491Y-16131150D01*
X17241491Y-16131150D02*
X17270063Y-16131150D01*
X17270063Y-16131150D02*
X17289110Y-16140674D01*
X17289110Y-16140674D02*
X17298634Y-16159722D01*
X17298634Y-16159722D02*
X17298634Y-16264484D01*
X17298634Y-16159722D02*
X17308158Y-16140674D01*
X17308158Y-16140674D02*
X17327205Y-16131150D01*
X17327205Y-16131150D02*
X17355777Y-16131150D01*
X17355777Y-16131150D02*
X17374825Y-16140674D01*
X17374825Y-16140674D02*
X17384348Y-16159722D01*
X17384348Y-16159722D02*
X17384348Y-16264484D01*
X17479586Y-16264484D02*
X17479586Y-16131150D01*
X17479586Y-16150198D02*
X17489110Y-16140674D01*
X17489110Y-16140674D02*
X17508158Y-16131150D01*
X17508158Y-16131150D02*
X17536729Y-16131150D01*
X17536729Y-16131150D02*
X17555777Y-16140674D01*
X17555777Y-16140674D02*
X17565301Y-16159722D01*
X17565301Y-16159722D02*
X17565301Y-16264484D01*
X17565301Y-16159722D02*
X17574825Y-16140674D01*
X17574825Y-16140674D02*
X17593872Y-16131150D01*
X17593872Y-16131150D02*
X17622444Y-16131150D01*
X17622444Y-16131150D02*
X17641491Y-16140674D01*
X17641491Y-16140674D02*
X17651015Y-16159722D01*
X17651015Y-16159722D02*
X17651015Y-16264484D01*
X18041491Y-16054960D02*
X17870063Y-16312103D01*
X18298634Y-16064484D02*
X18317682Y-16064484D01*
X18317682Y-16064484D02*
X18336729Y-16074008D01*
X18336729Y-16074008D02*
X18346253Y-16083531D01*
X18346253Y-16083531D02*
X18355777Y-16102579D01*
X18355777Y-16102579D02*
X18365301Y-16140674D01*
X18365301Y-16140674D02*
X18365301Y-16188293D01*
X18365301Y-16188293D02*
X18355777Y-16226388D01*
X18355777Y-16226388D02*
X18346253Y-16245436D01*
X18346253Y-16245436D02*
X18336729Y-16254960D01*
X18336729Y-16254960D02*
X18317682Y-16264484D01*
X18317682Y-16264484D02*
X18298634Y-16264484D01*
X18298634Y-16264484D02*
X18279587Y-16254960D01*
X18279587Y-16254960D02*
X18270063Y-16245436D01*
X18270063Y-16245436D02*
X18260539Y-16226388D01*
X18260539Y-16226388D02*
X18251015Y-16188293D01*
X18251015Y-16188293D02*
X18251015Y-16140674D01*
X18251015Y-16140674D02*
X18260539Y-16102579D01*
X18260539Y-16102579D02*
X18270063Y-16083531D01*
X18270063Y-16083531D02*
X18279587Y-16074008D01*
X18279587Y-16074008D02*
X18298634Y-16064484D01*
X18451015Y-16245436D02*
X18460539Y-16254960D01*
X18460539Y-16254960D02*
X18451015Y-16264484D01*
X18451015Y-16264484D02*
X18441491Y-16254960D01*
X18441491Y-16254960D02*
X18451015Y-16245436D01*
X18451015Y-16245436D02*
X18451015Y-16264484D01*
X18584348Y-16064484D02*
X18603396Y-16064484D01*
X18603396Y-16064484D02*
X18622444Y-16074008D01*
X18622444Y-16074008D02*
X18631968Y-16083531D01*
X18631968Y-16083531D02*
X18641491Y-16102579D01*
X18641491Y-16102579D02*
X18651015Y-16140674D01*
X18651015Y-16140674D02*
X18651015Y-16188293D01*
X18651015Y-16188293D02*
X18641491Y-16226388D01*
X18641491Y-16226388D02*
X18631968Y-16245436D01*
X18631968Y-16245436D02*
X18622444Y-16254960D01*
X18622444Y-16254960D02*
X18603396Y-16264484D01*
X18603396Y-16264484D02*
X18584348Y-16264484D01*
X18584348Y-16264484D02*
X18565301Y-16254960D01*
X18565301Y-16254960D02*
X18555777Y-16245436D01*
X18555777Y-16245436D02*
X18546253Y-16226388D01*
X18546253Y-16226388D02*
X18536729Y-16188293D01*
X18536729Y-16188293D02*
X18536729Y-16140674D01*
X18536729Y-16140674D02*
X18546253Y-16102579D01*
X18546253Y-16102579D02*
X18555777Y-16083531D01*
X18555777Y-16083531D02*
X18565301Y-16074008D01*
X18565301Y-16074008D02*
X18584348Y-16064484D01*
X18822444Y-16131150D02*
X18822444Y-16264484D01*
X18774825Y-16054960D02*
X18727206Y-16197817D01*
X18727206Y-16197817D02*
X18851015Y-16197817D01*
X18965301Y-16064484D02*
X18984349Y-16064484D01*
X18984349Y-16064484D02*
X19003396Y-16074008D01*
X19003396Y-16074008D02*
X19012920Y-16083531D01*
X19012920Y-16083531D02*
X19022444Y-16102579D01*
X19022444Y-16102579D02*
X19031968Y-16140674D01*
X19031968Y-16140674D02*
X19031968Y-16188293D01*
X19031968Y-16188293D02*
X19022444Y-16226388D01*
X19022444Y-16226388D02*
X19012920Y-16245436D01*
X19012920Y-16245436D02*
X19003396Y-16254960D01*
X19003396Y-16254960D02*
X18984349Y-16264484D01*
X18984349Y-16264484D02*
X18965301Y-16264484D01*
X18965301Y-16264484D02*
X18946253Y-16254960D01*
X18946253Y-16254960D02*
X18936729Y-16245436D01*
X18936729Y-16245436D02*
X18927206Y-16226388D01*
X18927206Y-16226388D02*
X18917682Y-16188293D01*
X18917682Y-16188293D02*
X18917682Y-16140674D01*
X18917682Y-16140674D02*
X18927206Y-16102579D01*
X18927206Y-16102579D02*
X18936729Y-16083531D01*
X18936729Y-16083531D02*
X18946253Y-16074008D01*
X18946253Y-16074008D02*
X18965301Y-16064484D01*
X19108158Y-16083531D02*
X19117682Y-16074008D01*
X19117682Y-16074008D02*
X19136729Y-16064484D01*
X19136729Y-16064484D02*
X19184349Y-16064484D01*
X19184349Y-16064484D02*
X19203396Y-16074008D01*
X19203396Y-16074008D02*
X19212920Y-16083531D01*
X19212920Y-16083531D02*
X19222444Y-16102579D01*
X19222444Y-16102579D02*
X19222444Y-16121627D01*
X19222444Y-16121627D02*
X19212920Y-16150198D01*
X19212920Y-16150198D02*
X19098634Y-16264484D01*
X19098634Y-16264484D02*
X19222444Y-16264484D01*
X19298634Y-16064484D02*
X19298634Y-16102579D01*
X19374825Y-16064484D02*
X19374825Y-16102579D01*
X19670063Y-16340674D02*
X19660539Y-16331150D01*
X19660539Y-16331150D02*
X19641491Y-16302579D01*
X19641491Y-16302579D02*
X19631968Y-16283531D01*
X19631968Y-16283531D02*
X19622444Y-16254960D01*
X19622444Y-16254960D02*
X19612920Y-16207341D01*
X19612920Y-16207341D02*
X19612920Y-16169246D01*
X19612920Y-16169246D02*
X19622444Y-16121627D01*
X19622444Y-16121627D02*
X19631968Y-16093055D01*
X19631968Y-16093055D02*
X19641491Y-16074008D01*
X19641491Y-16074008D02*
X19660539Y-16045436D01*
X19660539Y-16045436D02*
X19670063Y-16035912D01*
X19851015Y-16264484D02*
X19736730Y-16264484D01*
X19793872Y-16264484D02*
X19793872Y-16064484D01*
X19793872Y-16064484D02*
X19774825Y-16093055D01*
X19774825Y-16093055D02*
X19755777Y-16112103D01*
X19755777Y-16112103D02*
X19736730Y-16121627D01*
X19917682Y-16064484D02*
X20041491Y-16064484D01*
X20041491Y-16064484D02*
X19974825Y-16140674D01*
X19974825Y-16140674D02*
X20003396Y-16140674D01*
X20003396Y-16140674D02*
X20022444Y-16150198D01*
X20022444Y-16150198D02*
X20031968Y-16159722D01*
X20031968Y-16159722D02*
X20041491Y-16178769D01*
X20041491Y-16178769D02*
X20041491Y-16226388D01*
X20041491Y-16226388D02*
X20031968Y-16245436D01*
X20031968Y-16245436D02*
X20022444Y-16254960D01*
X20022444Y-16254960D02*
X20003396Y-16264484D01*
X20003396Y-16264484D02*
X19946253Y-16264484D01*
X19946253Y-16264484D02*
X19927206Y-16254960D01*
X19927206Y-16254960D02*
X19917682Y-16245436D01*
X20279587Y-16264484D02*
X20279587Y-16064484D01*
X20365301Y-16264484D02*
X20365301Y-16159722D01*
X20365301Y-16159722D02*
X20355777Y-16140674D01*
X20355777Y-16140674D02*
X20336730Y-16131150D01*
X20336730Y-16131150D02*
X20308158Y-16131150D01*
X20308158Y-16131150D02*
X20289111Y-16140674D01*
X20289111Y-16140674D02*
X20279587Y-16150198D01*
X20489111Y-16264484D02*
X20470063Y-16254960D01*
X20470063Y-16254960D02*
X20460539Y-16245436D01*
X20460539Y-16245436D02*
X20451015Y-16226388D01*
X20451015Y-16226388D02*
X20451015Y-16169246D01*
X20451015Y-16169246D02*
X20460539Y-16150198D01*
X20460539Y-16150198D02*
X20470063Y-16140674D01*
X20470063Y-16140674D02*
X20489111Y-16131150D01*
X20489111Y-16131150D02*
X20517682Y-16131150D01*
X20517682Y-16131150D02*
X20536730Y-16140674D01*
X20536730Y-16140674D02*
X20546253Y-16150198D01*
X20546253Y-16150198D02*
X20555777Y-16169246D01*
X20555777Y-16169246D02*
X20555777Y-16226388D01*
X20555777Y-16226388D02*
X20546253Y-16245436D01*
X20546253Y-16245436D02*
X20536730Y-16254960D01*
X20536730Y-16254960D02*
X20517682Y-16264484D01*
X20517682Y-16264484D02*
X20489111Y-16264484D01*
X20670063Y-16264484D02*
X20651015Y-16254960D01*
X20651015Y-16254960D02*
X20641492Y-16235912D01*
X20641492Y-16235912D02*
X20641492Y-16064484D01*
X20822444Y-16254960D02*
X20803396Y-16264484D01*
X20803396Y-16264484D02*
X20765301Y-16264484D01*
X20765301Y-16264484D02*
X20746253Y-16254960D01*
X20746253Y-16254960D02*
X20736730Y-16235912D01*
X20736730Y-16235912D02*
X20736730Y-16159722D01*
X20736730Y-16159722D02*
X20746253Y-16140674D01*
X20746253Y-16140674D02*
X20765301Y-16131150D01*
X20765301Y-16131150D02*
X20803396Y-16131150D01*
X20803396Y-16131150D02*
X20822444Y-16140674D01*
X20822444Y-16140674D02*
X20831968Y-16159722D01*
X20831968Y-16159722D02*
X20831968Y-16178769D01*
X20831968Y-16178769D02*
X20736730Y-16197817D01*
X20908158Y-16254960D02*
X20927206Y-16264484D01*
X20927206Y-16264484D02*
X20965301Y-16264484D01*
X20965301Y-16264484D02*
X20984349Y-16254960D01*
X20984349Y-16254960D02*
X20993873Y-16235912D01*
X20993873Y-16235912D02*
X20993873Y-16226388D01*
X20993873Y-16226388D02*
X20984349Y-16207341D01*
X20984349Y-16207341D02*
X20965301Y-16197817D01*
X20965301Y-16197817D02*
X20936730Y-16197817D01*
X20936730Y-16197817D02*
X20917682Y-16188293D01*
X20917682Y-16188293D02*
X20908158Y-16169246D01*
X20908158Y-16169246D02*
X20908158Y-16159722D01*
X20908158Y-16159722D02*
X20917682Y-16140674D01*
X20917682Y-16140674D02*
X20936730Y-16131150D01*
X20936730Y-16131150D02*
X20965301Y-16131150D01*
X20965301Y-16131150D02*
X20984349Y-16140674D01*
X21060539Y-16340674D02*
X21070063Y-16331150D01*
X21070063Y-16331150D02*
X21089111Y-16302579D01*
X21089111Y-16302579D02*
X21098634Y-16283531D01*
X21098634Y-16283531D02*
X21108158Y-16254960D01*
X21108158Y-16254960D02*
X21117682Y-16207341D01*
X21117682Y-16207341D02*
X21117682Y-16169246D01*
X21117682Y-16169246D02*
X21108158Y-16121627D01*
X21108158Y-16121627D02*
X21098634Y-16093055D01*
X21098634Y-16093055D02*
X21089111Y-16074008D01*
X21089111Y-16074008D02*
X21070063Y-16045436D01*
X21070063Y-16045436D02*
X21060539Y-16035912D01*
D13*
X16078891Y-16475891D02*
X16078891Y-16398109D01*
X16001109Y-16398109D01*
X16001109Y-16475891D01*
X16078891Y-16475891D01*
D11*
X16460539Y-16528484D02*
X16346253Y-16528484D01*
X16403396Y-16528484D02*
X16403396Y-16328484D01*
X16403396Y-16328484D02*
X16384348Y-16357055D01*
X16384348Y-16357055D02*
X16365301Y-16376103D01*
X16365301Y-16376103D02*
X16346253Y-16385627D01*
X16546253Y-16509436D02*
X16555777Y-16518960D01*
X16555777Y-16518960D02*
X16546253Y-16528484D01*
X16546253Y-16528484D02*
X16536729Y-16518960D01*
X16536729Y-16518960D02*
X16546253Y-16509436D01*
X16546253Y-16509436D02*
X16546253Y-16528484D01*
X16746253Y-16528484D02*
X16631967Y-16528484D01*
X16689110Y-16528484D02*
X16689110Y-16328484D01*
X16689110Y-16328484D02*
X16670062Y-16357055D01*
X16670062Y-16357055D02*
X16651015Y-16376103D01*
X16651015Y-16376103D02*
X16631967Y-16385627D01*
X16870063Y-16328484D02*
X16889110Y-16328484D01*
X16889110Y-16328484D02*
X16908158Y-16338008D01*
X16908158Y-16338008D02*
X16917682Y-16347531D01*
X16917682Y-16347531D02*
X16927205Y-16366579D01*
X16927205Y-16366579D02*
X16936729Y-16404674D01*
X16936729Y-16404674D02*
X16936729Y-16452293D01*
X16936729Y-16452293D02*
X16927205Y-16490388D01*
X16927205Y-16490388D02*
X16917682Y-16509436D01*
X16917682Y-16509436D02*
X16908158Y-16518960D01*
X16908158Y-16518960D02*
X16889110Y-16528484D01*
X16889110Y-16528484D02*
X16870063Y-16528484D01*
X16870063Y-16528484D02*
X16851015Y-16518960D01*
X16851015Y-16518960D02*
X16841491Y-16509436D01*
X16841491Y-16509436D02*
X16831967Y-16490388D01*
X16831967Y-16490388D02*
X16822444Y-16452293D01*
X16822444Y-16452293D02*
X16822444Y-16404674D01*
X16822444Y-16404674D02*
X16831967Y-16366579D01*
X16831967Y-16366579D02*
X16841491Y-16347531D01*
X16841491Y-16347531D02*
X16851015Y-16338008D01*
X16851015Y-16338008D02*
X16870063Y-16328484D01*
X17060539Y-16328484D02*
X17079586Y-16328484D01*
X17079586Y-16328484D02*
X17098634Y-16338008D01*
X17098634Y-16338008D02*
X17108158Y-16347531D01*
X17108158Y-16347531D02*
X17117682Y-16366579D01*
X17117682Y-16366579D02*
X17127205Y-16404674D01*
X17127205Y-16404674D02*
X17127205Y-16452293D01*
X17127205Y-16452293D02*
X17117682Y-16490388D01*
X17117682Y-16490388D02*
X17108158Y-16509436D01*
X17108158Y-16509436D02*
X17098634Y-16518960D01*
X17098634Y-16518960D02*
X17079586Y-16528484D01*
X17079586Y-16528484D02*
X17060539Y-16528484D01*
X17060539Y-16528484D02*
X17041491Y-16518960D01*
X17041491Y-16518960D02*
X17031967Y-16509436D01*
X17031967Y-16509436D02*
X17022444Y-16490388D01*
X17022444Y-16490388D02*
X17012920Y-16452293D01*
X17012920Y-16452293D02*
X17012920Y-16404674D01*
X17012920Y-16404674D02*
X17022444Y-16366579D01*
X17022444Y-16366579D02*
X17031967Y-16347531D01*
X17031967Y-16347531D02*
X17041491Y-16338008D01*
X17041491Y-16338008D02*
X17060539Y-16328484D01*
X17212920Y-16528484D02*
X17212920Y-16395150D01*
X17212920Y-16414198D02*
X17222444Y-16404674D01*
X17222444Y-16404674D02*
X17241491Y-16395150D01*
X17241491Y-16395150D02*
X17270063Y-16395150D01*
X17270063Y-16395150D02*
X17289110Y-16404674D01*
X17289110Y-16404674D02*
X17298634Y-16423722D01*
X17298634Y-16423722D02*
X17298634Y-16528484D01*
X17298634Y-16423722D02*
X17308158Y-16404674D01*
X17308158Y-16404674D02*
X17327205Y-16395150D01*
X17327205Y-16395150D02*
X17355777Y-16395150D01*
X17355777Y-16395150D02*
X17374825Y-16404674D01*
X17374825Y-16404674D02*
X17384348Y-16423722D01*
X17384348Y-16423722D02*
X17384348Y-16528484D01*
X17479586Y-16528484D02*
X17479586Y-16395150D01*
X17479586Y-16414198D02*
X17489110Y-16404674D01*
X17489110Y-16404674D02*
X17508158Y-16395150D01*
X17508158Y-16395150D02*
X17536729Y-16395150D01*
X17536729Y-16395150D02*
X17555777Y-16404674D01*
X17555777Y-16404674D02*
X17565301Y-16423722D01*
X17565301Y-16423722D02*
X17565301Y-16528484D01*
X17565301Y-16423722D02*
X17574825Y-16404674D01*
X17574825Y-16404674D02*
X17593872Y-16395150D01*
X17593872Y-16395150D02*
X17622444Y-16395150D01*
X17622444Y-16395150D02*
X17641491Y-16404674D01*
X17641491Y-16404674D02*
X17651015Y-16423722D01*
X17651015Y-16423722D02*
X17651015Y-16528484D01*
X18041491Y-16318960D02*
X17870063Y-16576103D01*
X18298634Y-16328484D02*
X18317682Y-16328484D01*
X18317682Y-16328484D02*
X18336729Y-16338008D01*
X18336729Y-16338008D02*
X18346253Y-16347531D01*
X18346253Y-16347531D02*
X18355777Y-16366579D01*
X18355777Y-16366579D02*
X18365301Y-16404674D01*
X18365301Y-16404674D02*
X18365301Y-16452293D01*
X18365301Y-16452293D02*
X18355777Y-16490388D01*
X18355777Y-16490388D02*
X18346253Y-16509436D01*
X18346253Y-16509436D02*
X18336729Y-16518960D01*
X18336729Y-16518960D02*
X18317682Y-16528484D01*
X18317682Y-16528484D02*
X18298634Y-16528484D01*
X18298634Y-16528484D02*
X18279587Y-16518960D01*
X18279587Y-16518960D02*
X18270063Y-16509436D01*
X18270063Y-16509436D02*
X18260539Y-16490388D01*
X18260539Y-16490388D02*
X18251015Y-16452293D01*
X18251015Y-16452293D02*
X18251015Y-16404674D01*
X18251015Y-16404674D02*
X18260539Y-16366579D01*
X18260539Y-16366579D02*
X18270063Y-16347531D01*
X18270063Y-16347531D02*
X18279587Y-16338008D01*
X18279587Y-16338008D02*
X18298634Y-16328484D01*
X18451015Y-16509436D02*
X18460539Y-16518960D01*
X18460539Y-16518960D02*
X18451015Y-16528484D01*
X18451015Y-16528484D02*
X18441491Y-16518960D01*
X18441491Y-16518960D02*
X18451015Y-16509436D01*
X18451015Y-16509436D02*
X18451015Y-16528484D01*
X18584348Y-16328484D02*
X18603396Y-16328484D01*
X18603396Y-16328484D02*
X18622444Y-16338008D01*
X18622444Y-16338008D02*
X18631968Y-16347531D01*
X18631968Y-16347531D02*
X18641491Y-16366579D01*
X18641491Y-16366579D02*
X18651015Y-16404674D01*
X18651015Y-16404674D02*
X18651015Y-16452293D01*
X18651015Y-16452293D02*
X18641491Y-16490388D01*
X18641491Y-16490388D02*
X18631968Y-16509436D01*
X18631968Y-16509436D02*
X18622444Y-16518960D01*
X18622444Y-16518960D02*
X18603396Y-16528484D01*
X18603396Y-16528484D02*
X18584348Y-16528484D01*
X18584348Y-16528484D02*
X18565301Y-16518960D01*
X18565301Y-16518960D02*
X18555777Y-16509436D01*
X18555777Y-16509436D02*
X18546253Y-16490388D01*
X18546253Y-16490388D02*
X18536729Y-16452293D01*
X18536729Y-16452293D02*
X18536729Y-16404674D01*
X18536729Y-16404674D02*
X18546253Y-16366579D01*
X18546253Y-16366579D02*
X18555777Y-16347531D01*
X18555777Y-16347531D02*
X18565301Y-16338008D01*
X18565301Y-16338008D02*
X18584348Y-16328484D01*
X18822444Y-16395150D02*
X18822444Y-16528484D01*
X18774825Y-16318960D02*
X18727206Y-16461817D01*
X18727206Y-16461817D02*
X18851015Y-16461817D01*
X18908158Y-16328484D02*
X19031968Y-16328484D01*
X19031968Y-16328484D02*
X18965301Y-16404674D01*
X18965301Y-16404674D02*
X18993872Y-16404674D01*
X18993872Y-16404674D02*
X19012920Y-16414198D01*
X19012920Y-16414198D02*
X19022444Y-16423722D01*
X19022444Y-16423722D02*
X19031968Y-16442769D01*
X19031968Y-16442769D02*
X19031968Y-16490388D01*
X19031968Y-16490388D02*
X19022444Y-16509436D01*
X19022444Y-16509436D02*
X19012920Y-16518960D01*
X19012920Y-16518960D02*
X18993872Y-16528484D01*
X18993872Y-16528484D02*
X18936729Y-16528484D01*
X18936729Y-16528484D02*
X18917682Y-16518960D01*
X18917682Y-16518960D02*
X18908158Y-16509436D01*
X19098634Y-16328484D02*
X19222444Y-16328484D01*
X19222444Y-16328484D02*
X19155777Y-16404674D01*
X19155777Y-16404674D02*
X19184349Y-16404674D01*
X19184349Y-16404674D02*
X19203396Y-16414198D01*
X19203396Y-16414198D02*
X19212920Y-16423722D01*
X19212920Y-16423722D02*
X19222444Y-16442769D01*
X19222444Y-16442769D02*
X19222444Y-16490388D01*
X19222444Y-16490388D02*
X19212920Y-16509436D01*
X19212920Y-16509436D02*
X19203396Y-16518960D01*
X19203396Y-16518960D02*
X19184349Y-16528484D01*
X19184349Y-16528484D02*
X19127206Y-16528484D01*
X19127206Y-16528484D02*
X19108158Y-16518960D01*
X19108158Y-16518960D02*
X19098634Y-16509436D01*
X19298634Y-16328484D02*
X19298634Y-16366579D01*
X19374825Y-16328484D02*
X19374825Y-16366579D01*
X19670063Y-16604674D02*
X19660539Y-16595150D01*
X19660539Y-16595150D02*
X19641491Y-16566579D01*
X19641491Y-16566579D02*
X19631968Y-16547531D01*
X19631968Y-16547531D02*
X19622444Y-16518960D01*
X19622444Y-16518960D02*
X19612920Y-16471341D01*
X19612920Y-16471341D02*
X19612920Y-16433246D01*
X19612920Y-16433246D02*
X19622444Y-16385627D01*
X19622444Y-16385627D02*
X19631968Y-16357055D01*
X19631968Y-16357055D02*
X19641491Y-16338008D01*
X19641491Y-16338008D02*
X19660539Y-16309436D01*
X19660539Y-16309436D02*
X19670063Y-16299912D01*
X19755777Y-16528484D02*
X19793872Y-16528484D01*
X19793872Y-16528484D02*
X19812920Y-16518960D01*
X19812920Y-16518960D02*
X19822444Y-16509436D01*
X19822444Y-16509436D02*
X19841491Y-16480865D01*
X19841491Y-16480865D02*
X19851015Y-16442769D01*
X19851015Y-16442769D02*
X19851015Y-16366579D01*
X19851015Y-16366579D02*
X19841491Y-16347531D01*
X19841491Y-16347531D02*
X19831968Y-16338008D01*
X19831968Y-16338008D02*
X19812920Y-16328484D01*
X19812920Y-16328484D02*
X19774825Y-16328484D01*
X19774825Y-16328484D02*
X19755777Y-16338008D01*
X19755777Y-16338008D02*
X19746253Y-16347531D01*
X19746253Y-16347531D02*
X19736730Y-16366579D01*
X19736730Y-16366579D02*
X19736730Y-16414198D01*
X19736730Y-16414198D02*
X19746253Y-16433246D01*
X19746253Y-16433246D02*
X19755777Y-16442769D01*
X19755777Y-16442769D02*
X19774825Y-16452293D01*
X19774825Y-16452293D02*
X19812920Y-16452293D01*
X19812920Y-16452293D02*
X19831968Y-16442769D01*
X19831968Y-16442769D02*
X19841491Y-16433246D01*
X19841491Y-16433246D02*
X19851015Y-16414198D01*
X20089111Y-16528484D02*
X20089111Y-16328484D01*
X20174825Y-16528484D02*
X20174825Y-16423722D01*
X20174825Y-16423722D02*
X20165301Y-16404674D01*
X20165301Y-16404674D02*
X20146253Y-16395150D01*
X20146253Y-16395150D02*
X20117682Y-16395150D01*
X20117682Y-16395150D02*
X20098634Y-16404674D01*
X20098634Y-16404674D02*
X20089111Y-16414198D01*
X20298634Y-16528484D02*
X20279587Y-16518960D01*
X20279587Y-16518960D02*
X20270063Y-16509436D01*
X20270063Y-16509436D02*
X20260539Y-16490388D01*
X20260539Y-16490388D02*
X20260539Y-16433246D01*
X20260539Y-16433246D02*
X20270063Y-16414198D01*
X20270063Y-16414198D02*
X20279587Y-16404674D01*
X20279587Y-16404674D02*
X20298634Y-16395150D01*
X20298634Y-16395150D02*
X20327206Y-16395150D01*
X20327206Y-16395150D02*
X20346253Y-16404674D01*
X20346253Y-16404674D02*
X20355777Y-16414198D01*
X20355777Y-16414198D02*
X20365301Y-16433246D01*
X20365301Y-16433246D02*
X20365301Y-16490388D01*
X20365301Y-16490388D02*
X20355777Y-16509436D01*
X20355777Y-16509436D02*
X20346253Y-16518960D01*
X20346253Y-16518960D02*
X20327206Y-16528484D01*
X20327206Y-16528484D02*
X20298634Y-16528484D01*
X20479587Y-16528484D02*
X20460539Y-16518960D01*
X20460539Y-16518960D02*
X20451015Y-16499912D01*
X20451015Y-16499912D02*
X20451015Y-16328484D01*
X20631968Y-16518960D02*
X20612920Y-16528484D01*
X20612920Y-16528484D02*
X20574825Y-16528484D01*
X20574825Y-16528484D02*
X20555777Y-16518960D01*
X20555777Y-16518960D02*
X20546253Y-16499912D01*
X20546253Y-16499912D02*
X20546253Y-16423722D01*
X20546253Y-16423722D02*
X20555777Y-16404674D01*
X20555777Y-16404674D02*
X20574825Y-16395150D01*
X20574825Y-16395150D02*
X20612920Y-16395150D01*
X20612920Y-16395150D02*
X20631968Y-16404674D01*
X20631968Y-16404674D02*
X20641492Y-16423722D01*
X20641492Y-16423722D02*
X20641492Y-16442769D01*
X20641492Y-16442769D02*
X20546253Y-16461817D01*
X20717682Y-16518960D02*
X20736730Y-16528484D01*
X20736730Y-16528484D02*
X20774825Y-16528484D01*
X20774825Y-16528484D02*
X20793873Y-16518960D01*
X20793873Y-16518960D02*
X20803396Y-16499912D01*
X20803396Y-16499912D02*
X20803396Y-16490388D01*
X20803396Y-16490388D02*
X20793873Y-16471341D01*
X20793873Y-16471341D02*
X20774825Y-16461817D01*
X20774825Y-16461817D02*
X20746253Y-16461817D01*
X20746253Y-16461817D02*
X20727206Y-16452293D01*
X20727206Y-16452293D02*
X20717682Y-16433246D01*
X20717682Y-16433246D02*
X20717682Y-16423722D01*
X20717682Y-16423722D02*
X20727206Y-16404674D01*
X20727206Y-16404674D02*
X20746253Y-16395150D01*
X20746253Y-16395150D02*
X20774825Y-16395150D01*
X20774825Y-16395150D02*
X20793873Y-16404674D01*
X20870063Y-16604674D02*
X20879587Y-16595150D01*
X20879587Y-16595150D02*
X20898634Y-16566579D01*
X20898634Y-16566579D02*
X20908158Y-16547531D01*
X20908158Y-16547531D02*
X20917682Y-16518960D01*
X20917682Y-16518960D02*
X20927206Y-16471341D01*
X20927206Y-16471341D02*
X20927206Y-16433246D01*
X20927206Y-16433246D02*
X20917682Y-16385627D01*
X20917682Y-16385627D02*
X20908158Y-16357055D01*
X20908158Y-16357055D02*
X20898634Y-16338008D01*
X20898634Y-16338008D02*
X20879587Y-16309436D01*
X20879587Y-16309436D02*
X20870063Y-16299912D01*
M02*
