%TF.GenerationSoftware,KiCad,Pcbnew,8.0.6*%
%TF.CreationDate,2024-11-14T19:13:37+01:00*%
%TF.ProjectId,AxxSolder,41787853-6f6c-4646-9572-2e6b69636164,rev?*%
%TF.SameCoordinates,Original*%
%TF.FileFunction,Drillmap*%
%TF.FilePolarity,Positive*%
%FSLAX45Y45*%
G04 Gerber Fmt 4.5, Leading zero omitted, Abs format (unit mm)*
G04 Created by KiCad (PCBNEW 8.0.6) date 2024-11-14 19:13:37*
%MOMM*%
%LPD*%
G01*
G04 APERTURE LIST*
%ADD10C,0.100000*%
%ADD11C,0.200000*%
%ADD12C,0.110000*%
%ADD13C,0.130000*%
%ADD14C,0.155000*%
%ADD15C,0.205000*%
%ADD16C,0.250000*%
G04 APERTURE END LIST*
D10*
X20000000Y-7050000D02*
X20000000Y-14700000D01*
X16100000Y-7050000D02*
G75*
G02*
X16400000Y-6750000I300000J0D01*
G01*
X19700000Y-6750000D02*
G75*
G02*
X20000000Y-7050000I0J-300000D01*
G01*
X16400000Y-15000000D02*
G75*
G02*
X16100000Y-14700000I0J300000D01*
G01*
X20000000Y-14700000D02*
G75*
G02*
X19700000Y-15000000I-300000J0D01*
G01*
X16100000Y-14700000D02*
X16100000Y-7050000D01*
X16400000Y-6750000D02*
X19700000Y-6750000D01*
X19700000Y-15000000D02*
X16400000Y-15000000D01*
D11*
D10*
X17728500Y-14332200D02*
X17793500Y-14397200D01*
X17793500Y-14332200D02*
X17728500Y-14397200D01*
X18306500Y-14332200D02*
X18371500Y-14397200D01*
X18371500Y-14332200D02*
X18306500Y-14397200D01*
D12*
X17330000Y-13540000D02*
G75*
G02*
X17220000Y-13540000I-55000J0D01*
G01*
X17220000Y-13540000D02*
G75*
G02*
X17330000Y-13540000I55000J0D01*
G01*
D13*
X16825000Y-13475000D02*
X16825000Y-13605000D01*
X16760000Y-13540000D02*
X16890000Y-13540000D01*
D14*
X17079801Y-14044801D02*
X17079801Y-13935199D01*
X16970199Y-13935199D01*
X16970199Y-14044801D01*
X17079801Y-14044801D01*
D10*
X16947500Y-13952500D02*
X16947500Y-14027500D01*
X17102500Y-14027500D02*
G75*
G02*
X16947500Y-14027500I-77500J0D01*
G01*
X17102500Y-14027500D02*
X17102500Y-13952500D01*
X17102500Y-13952500D02*
G75*
G03*
X16947500Y-13952500I-77500J0D01*
G01*
D15*
X17025000Y-13642500D02*
X17127500Y-13540000D01*
X17025000Y-13437500D01*
X16922500Y-13540000D01*
X17025000Y-13642500D01*
D16*
X16275000Y-14575000D02*
X16525000Y-14825000D01*
X16525000Y-14575000D02*
X16275000Y-14825000D01*
X16525000Y-14700000D02*
G75*
G02*
X16275000Y-14700000I-125000J0D01*
G01*
X16275000Y-14700000D02*
G75*
G02*
X16525000Y-14700000I125000J0D01*
G01*
X16397000Y-6870000D02*
X16647000Y-7120000D01*
X16647000Y-6870000D02*
X16397000Y-7120000D01*
X16647000Y-6995000D02*
G75*
G02*
X16397000Y-6995000I-125000J0D01*
G01*
X16397000Y-6995000D02*
G75*
G02*
X16647000Y-6995000I125000J0D01*
G01*
X19445000Y-6870000D02*
X19695000Y-7120000D01*
X19695000Y-6870000D02*
X19445000Y-7120000D01*
X19695000Y-6995000D02*
G75*
G02*
X19445000Y-6995000I-125000J0D01*
G01*
X19445000Y-6995000D02*
G75*
G02*
X19695000Y-6995000I125000J0D01*
G01*
X19575000Y-14575000D02*
X19825000Y-14825000D01*
X19825000Y-14575000D02*
X19575000Y-14825000D01*
X19825000Y-14700000D02*
G75*
G02*
X19575000Y-14700000I-125000J0D01*
G01*
X19575000Y-14700000D02*
G75*
G02*
X19825000Y-14700000I125000J0D01*
G01*
D11*
X16355777Y-15316484D02*
X16355777Y-15116484D01*
X16355777Y-15116484D02*
X16403396Y-15116484D01*
X16403396Y-15116484D02*
X16431967Y-15126008D01*
X16431967Y-15126008D02*
X16451015Y-15145055D01*
X16451015Y-15145055D02*
X16460539Y-15164103D01*
X16460539Y-15164103D02*
X16470062Y-15202198D01*
X16470062Y-15202198D02*
X16470062Y-15230769D01*
X16470062Y-15230769D02*
X16460539Y-15268865D01*
X16460539Y-15268865D02*
X16451015Y-15287912D01*
X16451015Y-15287912D02*
X16431967Y-15306960D01*
X16431967Y-15306960D02*
X16403396Y-15316484D01*
X16403396Y-15316484D02*
X16355777Y-15316484D01*
X16555777Y-15316484D02*
X16555777Y-15183150D01*
X16555777Y-15221246D02*
X16565301Y-15202198D01*
X16565301Y-15202198D02*
X16574824Y-15192674D01*
X16574824Y-15192674D02*
X16593872Y-15183150D01*
X16593872Y-15183150D02*
X16612920Y-15183150D01*
X16679586Y-15316484D02*
X16679586Y-15183150D01*
X16679586Y-15116484D02*
X16670062Y-15126008D01*
X16670062Y-15126008D02*
X16679586Y-15135531D01*
X16679586Y-15135531D02*
X16689110Y-15126008D01*
X16689110Y-15126008D02*
X16679586Y-15116484D01*
X16679586Y-15116484D02*
X16679586Y-15135531D01*
X16803396Y-15316484D02*
X16784348Y-15306960D01*
X16784348Y-15306960D02*
X16774824Y-15287912D01*
X16774824Y-15287912D02*
X16774824Y-15116484D01*
X16908158Y-15316484D02*
X16889110Y-15306960D01*
X16889110Y-15306960D02*
X16879586Y-15287912D01*
X16879586Y-15287912D02*
X16879586Y-15116484D01*
X17136729Y-15316484D02*
X17136729Y-15116484D01*
X17136729Y-15116484D02*
X17203396Y-15259341D01*
X17203396Y-15259341D02*
X17270063Y-15116484D01*
X17270063Y-15116484D02*
X17270063Y-15316484D01*
X17451015Y-15316484D02*
X17451015Y-15211722D01*
X17451015Y-15211722D02*
X17441491Y-15192674D01*
X17441491Y-15192674D02*
X17422444Y-15183150D01*
X17422444Y-15183150D02*
X17384348Y-15183150D01*
X17384348Y-15183150D02*
X17365301Y-15192674D01*
X17451015Y-15306960D02*
X17431967Y-15316484D01*
X17431967Y-15316484D02*
X17384348Y-15316484D01*
X17384348Y-15316484D02*
X17365301Y-15306960D01*
X17365301Y-15306960D02*
X17355777Y-15287912D01*
X17355777Y-15287912D02*
X17355777Y-15268865D01*
X17355777Y-15268865D02*
X17365301Y-15249817D01*
X17365301Y-15249817D02*
X17384348Y-15240293D01*
X17384348Y-15240293D02*
X17431967Y-15240293D01*
X17431967Y-15240293D02*
X17451015Y-15230769D01*
X17546253Y-15183150D02*
X17546253Y-15383150D01*
X17546253Y-15192674D02*
X17565301Y-15183150D01*
X17565301Y-15183150D02*
X17603396Y-15183150D01*
X17603396Y-15183150D02*
X17622444Y-15192674D01*
X17622444Y-15192674D02*
X17631967Y-15202198D01*
X17631967Y-15202198D02*
X17641491Y-15221246D01*
X17641491Y-15221246D02*
X17641491Y-15278388D01*
X17641491Y-15278388D02*
X17631967Y-15297436D01*
X17631967Y-15297436D02*
X17622444Y-15306960D01*
X17622444Y-15306960D02*
X17603396Y-15316484D01*
X17603396Y-15316484D02*
X17565301Y-15316484D01*
X17565301Y-15316484D02*
X17546253Y-15306960D01*
X17727205Y-15297436D02*
X17736729Y-15306960D01*
X17736729Y-15306960D02*
X17727205Y-15316484D01*
X17727205Y-15316484D02*
X17717682Y-15306960D01*
X17717682Y-15306960D02*
X17727205Y-15297436D01*
X17727205Y-15297436D02*
X17727205Y-15316484D01*
X17727205Y-15192674D02*
X17736729Y-15202198D01*
X17736729Y-15202198D02*
X17727205Y-15211722D01*
X17727205Y-15211722D02*
X17717682Y-15202198D01*
X17717682Y-15202198D02*
X17727205Y-15192674D01*
X17727205Y-15192674D02*
X17727205Y-15211722D01*
D10*
X16030000Y-15612500D02*
X16095000Y-15677500D01*
X16095000Y-15612500D02*
X16030000Y-15677500D01*
D11*
X16393872Y-15536484D02*
X16412920Y-15536484D01*
X16412920Y-15536484D02*
X16431967Y-15546008D01*
X16431967Y-15546008D02*
X16441491Y-15555531D01*
X16441491Y-15555531D02*
X16451015Y-15574579D01*
X16451015Y-15574579D02*
X16460539Y-15612674D01*
X16460539Y-15612674D02*
X16460539Y-15660293D01*
X16460539Y-15660293D02*
X16451015Y-15698388D01*
X16451015Y-15698388D02*
X16441491Y-15717436D01*
X16441491Y-15717436D02*
X16431967Y-15726960D01*
X16431967Y-15726960D02*
X16412920Y-15736484D01*
X16412920Y-15736484D02*
X16393872Y-15736484D01*
X16393872Y-15736484D02*
X16374824Y-15726960D01*
X16374824Y-15726960D02*
X16365301Y-15717436D01*
X16365301Y-15717436D02*
X16355777Y-15698388D01*
X16355777Y-15698388D02*
X16346253Y-15660293D01*
X16346253Y-15660293D02*
X16346253Y-15612674D01*
X16346253Y-15612674D02*
X16355777Y-15574579D01*
X16355777Y-15574579D02*
X16365301Y-15555531D01*
X16365301Y-15555531D02*
X16374824Y-15546008D01*
X16374824Y-15546008D02*
X16393872Y-15536484D01*
X16546253Y-15717436D02*
X16555777Y-15726960D01*
X16555777Y-15726960D02*
X16546253Y-15736484D01*
X16546253Y-15736484D02*
X16536729Y-15726960D01*
X16536729Y-15726960D02*
X16546253Y-15717436D01*
X16546253Y-15717436D02*
X16546253Y-15736484D01*
X16727205Y-15536484D02*
X16689110Y-15536484D01*
X16689110Y-15536484D02*
X16670062Y-15546008D01*
X16670062Y-15546008D02*
X16660539Y-15555531D01*
X16660539Y-15555531D02*
X16641491Y-15584103D01*
X16641491Y-15584103D02*
X16631967Y-15622198D01*
X16631967Y-15622198D02*
X16631967Y-15698388D01*
X16631967Y-15698388D02*
X16641491Y-15717436D01*
X16641491Y-15717436D02*
X16651015Y-15726960D01*
X16651015Y-15726960D02*
X16670062Y-15736484D01*
X16670062Y-15736484D02*
X16708158Y-15736484D01*
X16708158Y-15736484D02*
X16727205Y-15726960D01*
X16727205Y-15726960D02*
X16736729Y-15717436D01*
X16736729Y-15717436D02*
X16746253Y-15698388D01*
X16746253Y-15698388D02*
X16746253Y-15650769D01*
X16746253Y-15650769D02*
X16736729Y-15631722D01*
X16736729Y-15631722D02*
X16727205Y-15622198D01*
X16727205Y-15622198D02*
X16708158Y-15612674D01*
X16708158Y-15612674D02*
X16670062Y-15612674D01*
X16670062Y-15612674D02*
X16651015Y-15622198D01*
X16651015Y-15622198D02*
X16641491Y-15631722D01*
X16641491Y-15631722D02*
X16631967Y-15650769D01*
X16927205Y-15536484D02*
X16831967Y-15536484D01*
X16831967Y-15536484D02*
X16822444Y-15631722D01*
X16822444Y-15631722D02*
X16831967Y-15622198D01*
X16831967Y-15622198D02*
X16851015Y-15612674D01*
X16851015Y-15612674D02*
X16898634Y-15612674D01*
X16898634Y-15612674D02*
X16917682Y-15622198D01*
X16917682Y-15622198D02*
X16927205Y-15631722D01*
X16927205Y-15631722D02*
X16936729Y-15650769D01*
X16936729Y-15650769D02*
X16936729Y-15698388D01*
X16936729Y-15698388D02*
X16927205Y-15717436D01*
X16927205Y-15717436D02*
X16917682Y-15726960D01*
X16917682Y-15726960D02*
X16898634Y-15736484D01*
X16898634Y-15736484D02*
X16851015Y-15736484D01*
X16851015Y-15736484D02*
X16831967Y-15726960D01*
X16831967Y-15726960D02*
X16822444Y-15717436D01*
X17060539Y-15536484D02*
X17079586Y-15536484D01*
X17079586Y-15536484D02*
X17098634Y-15546008D01*
X17098634Y-15546008D02*
X17108158Y-15555531D01*
X17108158Y-15555531D02*
X17117682Y-15574579D01*
X17117682Y-15574579D02*
X17127205Y-15612674D01*
X17127205Y-15612674D02*
X17127205Y-15660293D01*
X17127205Y-15660293D02*
X17117682Y-15698388D01*
X17117682Y-15698388D02*
X17108158Y-15717436D01*
X17108158Y-15717436D02*
X17098634Y-15726960D01*
X17098634Y-15726960D02*
X17079586Y-15736484D01*
X17079586Y-15736484D02*
X17060539Y-15736484D01*
X17060539Y-15736484D02*
X17041491Y-15726960D01*
X17041491Y-15726960D02*
X17031967Y-15717436D01*
X17031967Y-15717436D02*
X17022444Y-15698388D01*
X17022444Y-15698388D02*
X17012920Y-15660293D01*
X17012920Y-15660293D02*
X17012920Y-15612674D01*
X17012920Y-15612674D02*
X17022444Y-15574579D01*
X17022444Y-15574579D02*
X17031967Y-15555531D01*
X17031967Y-15555531D02*
X17041491Y-15546008D01*
X17041491Y-15546008D02*
X17060539Y-15536484D01*
X17212920Y-15736484D02*
X17212920Y-15603150D01*
X17212920Y-15622198D02*
X17222444Y-15612674D01*
X17222444Y-15612674D02*
X17241491Y-15603150D01*
X17241491Y-15603150D02*
X17270063Y-15603150D01*
X17270063Y-15603150D02*
X17289110Y-15612674D01*
X17289110Y-15612674D02*
X17298634Y-15631722D01*
X17298634Y-15631722D02*
X17298634Y-15736484D01*
X17298634Y-15631722D02*
X17308158Y-15612674D01*
X17308158Y-15612674D02*
X17327205Y-15603150D01*
X17327205Y-15603150D02*
X17355777Y-15603150D01*
X17355777Y-15603150D02*
X17374825Y-15612674D01*
X17374825Y-15612674D02*
X17384348Y-15631722D01*
X17384348Y-15631722D02*
X17384348Y-15736484D01*
X17479586Y-15736484D02*
X17479586Y-15603150D01*
X17479586Y-15622198D02*
X17489110Y-15612674D01*
X17489110Y-15612674D02*
X17508158Y-15603150D01*
X17508158Y-15603150D02*
X17536729Y-15603150D01*
X17536729Y-15603150D02*
X17555777Y-15612674D01*
X17555777Y-15612674D02*
X17565301Y-15631722D01*
X17565301Y-15631722D02*
X17565301Y-15736484D01*
X17565301Y-15631722D02*
X17574825Y-15612674D01*
X17574825Y-15612674D02*
X17593872Y-15603150D01*
X17593872Y-15603150D02*
X17622444Y-15603150D01*
X17622444Y-15603150D02*
X17641491Y-15612674D01*
X17641491Y-15612674D02*
X17651015Y-15631722D01*
X17651015Y-15631722D02*
X17651015Y-15736484D01*
X18041491Y-15526960D02*
X17870063Y-15784103D01*
X18298634Y-15536484D02*
X18317682Y-15536484D01*
X18317682Y-15536484D02*
X18336729Y-15546008D01*
X18336729Y-15546008D02*
X18346253Y-15555531D01*
X18346253Y-15555531D02*
X18355777Y-15574579D01*
X18355777Y-15574579D02*
X18365301Y-15612674D01*
X18365301Y-15612674D02*
X18365301Y-15660293D01*
X18365301Y-15660293D02*
X18355777Y-15698388D01*
X18355777Y-15698388D02*
X18346253Y-15717436D01*
X18346253Y-15717436D02*
X18336729Y-15726960D01*
X18336729Y-15726960D02*
X18317682Y-15736484D01*
X18317682Y-15736484D02*
X18298634Y-15736484D01*
X18298634Y-15736484D02*
X18279587Y-15726960D01*
X18279587Y-15726960D02*
X18270063Y-15717436D01*
X18270063Y-15717436D02*
X18260539Y-15698388D01*
X18260539Y-15698388D02*
X18251015Y-15660293D01*
X18251015Y-15660293D02*
X18251015Y-15612674D01*
X18251015Y-15612674D02*
X18260539Y-15574579D01*
X18260539Y-15574579D02*
X18270063Y-15555531D01*
X18270063Y-15555531D02*
X18279587Y-15546008D01*
X18279587Y-15546008D02*
X18298634Y-15536484D01*
X18451015Y-15717436D02*
X18460539Y-15726960D01*
X18460539Y-15726960D02*
X18451015Y-15736484D01*
X18451015Y-15736484D02*
X18441491Y-15726960D01*
X18441491Y-15726960D02*
X18451015Y-15717436D01*
X18451015Y-15717436D02*
X18451015Y-15736484D01*
X18584348Y-15536484D02*
X18603396Y-15536484D01*
X18603396Y-15536484D02*
X18622444Y-15546008D01*
X18622444Y-15546008D02*
X18631968Y-15555531D01*
X18631968Y-15555531D02*
X18641491Y-15574579D01*
X18641491Y-15574579D02*
X18651015Y-15612674D01*
X18651015Y-15612674D02*
X18651015Y-15660293D01*
X18651015Y-15660293D02*
X18641491Y-15698388D01*
X18641491Y-15698388D02*
X18631968Y-15717436D01*
X18631968Y-15717436D02*
X18622444Y-15726960D01*
X18622444Y-15726960D02*
X18603396Y-15736484D01*
X18603396Y-15736484D02*
X18584348Y-15736484D01*
X18584348Y-15736484D02*
X18565301Y-15726960D01*
X18565301Y-15726960D02*
X18555777Y-15717436D01*
X18555777Y-15717436D02*
X18546253Y-15698388D01*
X18546253Y-15698388D02*
X18536729Y-15660293D01*
X18536729Y-15660293D02*
X18536729Y-15612674D01*
X18536729Y-15612674D02*
X18546253Y-15574579D01*
X18546253Y-15574579D02*
X18555777Y-15555531D01*
X18555777Y-15555531D02*
X18565301Y-15546008D01*
X18565301Y-15546008D02*
X18584348Y-15536484D01*
X18727206Y-15555531D02*
X18736729Y-15546008D01*
X18736729Y-15546008D02*
X18755777Y-15536484D01*
X18755777Y-15536484D02*
X18803396Y-15536484D01*
X18803396Y-15536484D02*
X18822444Y-15546008D01*
X18822444Y-15546008D02*
X18831968Y-15555531D01*
X18831968Y-15555531D02*
X18841491Y-15574579D01*
X18841491Y-15574579D02*
X18841491Y-15593627D01*
X18841491Y-15593627D02*
X18831968Y-15622198D01*
X18831968Y-15622198D02*
X18717682Y-15736484D01*
X18717682Y-15736484D02*
X18841491Y-15736484D01*
X19022444Y-15536484D02*
X18927206Y-15536484D01*
X18927206Y-15536484D02*
X18917682Y-15631722D01*
X18917682Y-15631722D02*
X18927206Y-15622198D01*
X18927206Y-15622198D02*
X18946253Y-15612674D01*
X18946253Y-15612674D02*
X18993872Y-15612674D01*
X18993872Y-15612674D02*
X19012920Y-15622198D01*
X19012920Y-15622198D02*
X19022444Y-15631722D01*
X19022444Y-15631722D02*
X19031968Y-15650769D01*
X19031968Y-15650769D02*
X19031968Y-15698388D01*
X19031968Y-15698388D02*
X19022444Y-15717436D01*
X19022444Y-15717436D02*
X19012920Y-15726960D01*
X19012920Y-15726960D02*
X18993872Y-15736484D01*
X18993872Y-15736484D02*
X18946253Y-15736484D01*
X18946253Y-15736484D02*
X18927206Y-15726960D01*
X18927206Y-15726960D02*
X18917682Y-15717436D01*
X19203396Y-15536484D02*
X19165301Y-15536484D01*
X19165301Y-15536484D02*
X19146253Y-15546008D01*
X19146253Y-15546008D02*
X19136729Y-15555531D01*
X19136729Y-15555531D02*
X19117682Y-15584103D01*
X19117682Y-15584103D02*
X19108158Y-15622198D01*
X19108158Y-15622198D02*
X19108158Y-15698388D01*
X19108158Y-15698388D02*
X19117682Y-15717436D01*
X19117682Y-15717436D02*
X19127206Y-15726960D01*
X19127206Y-15726960D02*
X19146253Y-15736484D01*
X19146253Y-15736484D02*
X19184349Y-15736484D01*
X19184349Y-15736484D02*
X19203396Y-15726960D01*
X19203396Y-15726960D02*
X19212920Y-15717436D01*
X19212920Y-15717436D02*
X19222444Y-15698388D01*
X19222444Y-15698388D02*
X19222444Y-15650769D01*
X19222444Y-15650769D02*
X19212920Y-15631722D01*
X19212920Y-15631722D02*
X19203396Y-15622198D01*
X19203396Y-15622198D02*
X19184349Y-15612674D01*
X19184349Y-15612674D02*
X19146253Y-15612674D01*
X19146253Y-15612674D02*
X19127206Y-15622198D01*
X19127206Y-15622198D02*
X19117682Y-15631722D01*
X19117682Y-15631722D02*
X19108158Y-15650769D01*
X19298634Y-15536484D02*
X19298634Y-15574579D01*
X19374825Y-15536484D02*
X19374825Y-15574579D01*
X19670063Y-15812674D02*
X19660539Y-15803150D01*
X19660539Y-15803150D02*
X19641491Y-15774579D01*
X19641491Y-15774579D02*
X19631968Y-15755531D01*
X19631968Y-15755531D02*
X19622444Y-15726960D01*
X19622444Y-15726960D02*
X19612920Y-15679341D01*
X19612920Y-15679341D02*
X19612920Y-15641246D01*
X19612920Y-15641246D02*
X19622444Y-15593627D01*
X19622444Y-15593627D02*
X19631968Y-15565055D01*
X19631968Y-15565055D02*
X19641491Y-15546008D01*
X19641491Y-15546008D02*
X19660539Y-15517436D01*
X19660539Y-15517436D02*
X19670063Y-15507912D01*
X19736730Y-15555531D02*
X19746253Y-15546008D01*
X19746253Y-15546008D02*
X19765301Y-15536484D01*
X19765301Y-15536484D02*
X19812920Y-15536484D01*
X19812920Y-15536484D02*
X19831968Y-15546008D01*
X19831968Y-15546008D02*
X19841491Y-15555531D01*
X19841491Y-15555531D02*
X19851015Y-15574579D01*
X19851015Y-15574579D02*
X19851015Y-15593627D01*
X19851015Y-15593627D02*
X19841491Y-15622198D01*
X19841491Y-15622198D02*
X19727206Y-15736484D01*
X19727206Y-15736484D02*
X19851015Y-15736484D01*
X20089111Y-15736484D02*
X20089111Y-15536484D01*
X20174825Y-15736484D02*
X20174825Y-15631722D01*
X20174825Y-15631722D02*
X20165301Y-15612674D01*
X20165301Y-15612674D02*
X20146253Y-15603150D01*
X20146253Y-15603150D02*
X20117682Y-15603150D01*
X20117682Y-15603150D02*
X20098634Y-15612674D01*
X20098634Y-15612674D02*
X20089111Y-15622198D01*
X20298634Y-15736484D02*
X20279587Y-15726960D01*
X20279587Y-15726960D02*
X20270063Y-15717436D01*
X20270063Y-15717436D02*
X20260539Y-15698388D01*
X20260539Y-15698388D02*
X20260539Y-15641246D01*
X20260539Y-15641246D02*
X20270063Y-15622198D01*
X20270063Y-15622198D02*
X20279587Y-15612674D01*
X20279587Y-15612674D02*
X20298634Y-15603150D01*
X20298634Y-15603150D02*
X20327206Y-15603150D01*
X20327206Y-15603150D02*
X20346253Y-15612674D01*
X20346253Y-15612674D02*
X20355777Y-15622198D01*
X20355777Y-15622198D02*
X20365301Y-15641246D01*
X20365301Y-15641246D02*
X20365301Y-15698388D01*
X20365301Y-15698388D02*
X20355777Y-15717436D01*
X20355777Y-15717436D02*
X20346253Y-15726960D01*
X20346253Y-15726960D02*
X20327206Y-15736484D01*
X20327206Y-15736484D02*
X20298634Y-15736484D01*
X20479587Y-15736484D02*
X20460539Y-15726960D01*
X20460539Y-15726960D02*
X20451015Y-15707912D01*
X20451015Y-15707912D02*
X20451015Y-15536484D01*
X20631968Y-15726960D02*
X20612920Y-15736484D01*
X20612920Y-15736484D02*
X20574825Y-15736484D01*
X20574825Y-15736484D02*
X20555777Y-15726960D01*
X20555777Y-15726960D02*
X20546253Y-15707912D01*
X20546253Y-15707912D02*
X20546253Y-15631722D01*
X20546253Y-15631722D02*
X20555777Y-15612674D01*
X20555777Y-15612674D02*
X20574825Y-15603150D01*
X20574825Y-15603150D02*
X20612920Y-15603150D01*
X20612920Y-15603150D02*
X20631968Y-15612674D01*
X20631968Y-15612674D02*
X20641492Y-15631722D01*
X20641492Y-15631722D02*
X20641492Y-15650769D01*
X20641492Y-15650769D02*
X20546253Y-15669817D01*
X20717682Y-15726960D02*
X20736730Y-15736484D01*
X20736730Y-15736484D02*
X20774825Y-15736484D01*
X20774825Y-15736484D02*
X20793873Y-15726960D01*
X20793873Y-15726960D02*
X20803396Y-15707912D01*
X20803396Y-15707912D02*
X20803396Y-15698388D01*
X20803396Y-15698388D02*
X20793873Y-15679341D01*
X20793873Y-15679341D02*
X20774825Y-15669817D01*
X20774825Y-15669817D02*
X20746253Y-15669817D01*
X20746253Y-15669817D02*
X20727206Y-15660293D01*
X20727206Y-15660293D02*
X20717682Y-15641246D01*
X20717682Y-15641246D02*
X20717682Y-15631722D01*
X20717682Y-15631722D02*
X20727206Y-15612674D01*
X20727206Y-15612674D02*
X20746253Y-15603150D01*
X20746253Y-15603150D02*
X20774825Y-15603150D01*
X20774825Y-15603150D02*
X20793873Y-15612674D01*
X20870063Y-15812674D02*
X20879587Y-15803150D01*
X20879587Y-15803150D02*
X20898634Y-15774579D01*
X20898634Y-15774579D02*
X20908158Y-15755531D01*
X20908158Y-15755531D02*
X20917682Y-15726960D01*
X20917682Y-15726960D02*
X20927206Y-15679341D01*
X20927206Y-15679341D02*
X20927206Y-15641246D01*
X20927206Y-15641246D02*
X20917682Y-15593627D01*
X20917682Y-15593627D02*
X20908158Y-15565055D01*
X20908158Y-15565055D02*
X20898634Y-15546008D01*
X20898634Y-15546008D02*
X20879587Y-15517436D01*
X20879587Y-15517436D02*
X20870063Y-15507912D01*
X21231968Y-15812674D02*
X21222444Y-15803150D01*
X21222444Y-15803150D02*
X21203396Y-15774579D01*
X21203396Y-15774579D02*
X21193873Y-15755531D01*
X21193873Y-15755531D02*
X21184349Y-15726960D01*
X21184349Y-15726960D02*
X21174825Y-15679341D01*
X21174825Y-15679341D02*
X21174825Y-15641246D01*
X21174825Y-15641246D02*
X21184349Y-15593627D01*
X21184349Y-15593627D02*
X21193873Y-15565055D01*
X21193873Y-15565055D02*
X21203396Y-15546008D01*
X21203396Y-15546008D02*
X21222444Y-15517436D01*
X21222444Y-15517436D02*
X21231968Y-15507912D01*
X21308158Y-15603150D02*
X21308158Y-15736484D01*
X21308158Y-15622198D02*
X21317682Y-15612674D01*
X21317682Y-15612674D02*
X21336730Y-15603150D01*
X21336730Y-15603150D02*
X21365301Y-15603150D01*
X21365301Y-15603150D02*
X21384349Y-15612674D01*
X21384349Y-15612674D02*
X21393873Y-15631722D01*
X21393873Y-15631722D02*
X21393873Y-15736484D01*
X21517682Y-15736484D02*
X21498634Y-15726960D01*
X21498634Y-15726960D02*
X21489111Y-15717436D01*
X21489111Y-15717436D02*
X21479587Y-15698388D01*
X21479587Y-15698388D02*
X21479587Y-15641246D01*
X21479587Y-15641246D02*
X21489111Y-15622198D01*
X21489111Y-15622198D02*
X21498634Y-15612674D01*
X21498634Y-15612674D02*
X21517682Y-15603150D01*
X21517682Y-15603150D02*
X21546254Y-15603150D01*
X21546254Y-15603150D02*
X21565301Y-15612674D01*
X21565301Y-15612674D02*
X21574825Y-15622198D01*
X21574825Y-15622198D02*
X21584349Y-15641246D01*
X21584349Y-15641246D02*
X21584349Y-15698388D01*
X21584349Y-15698388D02*
X21574825Y-15717436D01*
X21574825Y-15717436D02*
X21565301Y-15726960D01*
X21565301Y-15726960D02*
X21546254Y-15736484D01*
X21546254Y-15736484D02*
X21517682Y-15736484D01*
X21641492Y-15603150D02*
X21717682Y-15603150D01*
X21670063Y-15536484D02*
X21670063Y-15707912D01*
X21670063Y-15707912D02*
X21679587Y-15726960D01*
X21679587Y-15726960D02*
X21698634Y-15736484D01*
X21698634Y-15736484D02*
X21717682Y-15736484D01*
X21936730Y-15603150D02*
X21936730Y-15803150D01*
X21936730Y-15612674D02*
X21955777Y-15603150D01*
X21955777Y-15603150D02*
X21993873Y-15603150D01*
X21993873Y-15603150D02*
X22012920Y-15612674D01*
X22012920Y-15612674D02*
X22022444Y-15622198D01*
X22022444Y-15622198D02*
X22031968Y-15641246D01*
X22031968Y-15641246D02*
X22031968Y-15698388D01*
X22031968Y-15698388D02*
X22022444Y-15717436D01*
X22022444Y-15717436D02*
X22012920Y-15726960D01*
X22012920Y-15726960D02*
X21993873Y-15736484D01*
X21993873Y-15736484D02*
X21955777Y-15736484D01*
X21955777Y-15736484D02*
X21936730Y-15726960D01*
X22146254Y-15736484D02*
X22127206Y-15726960D01*
X22127206Y-15726960D02*
X22117682Y-15707912D01*
X22117682Y-15707912D02*
X22117682Y-15536484D01*
X22308158Y-15736484D02*
X22308158Y-15631722D01*
X22308158Y-15631722D02*
X22298635Y-15612674D01*
X22298635Y-15612674D02*
X22279587Y-15603150D01*
X22279587Y-15603150D02*
X22241492Y-15603150D01*
X22241492Y-15603150D02*
X22222444Y-15612674D01*
X22308158Y-15726960D02*
X22289111Y-15736484D01*
X22289111Y-15736484D02*
X22241492Y-15736484D01*
X22241492Y-15736484D02*
X22222444Y-15726960D01*
X22222444Y-15726960D02*
X22212920Y-15707912D01*
X22212920Y-15707912D02*
X22212920Y-15688865D01*
X22212920Y-15688865D02*
X22222444Y-15669817D01*
X22222444Y-15669817D02*
X22241492Y-15660293D01*
X22241492Y-15660293D02*
X22289111Y-15660293D01*
X22289111Y-15660293D02*
X22308158Y-15650769D01*
X22374825Y-15603150D02*
X22451015Y-15603150D01*
X22403396Y-15536484D02*
X22403396Y-15707912D01*
X22403396Y-15707912D02*
X22412920Y-15726960D01*
X22412920Y-15726960D02*
X22431968Y-15736484D01*
X22431968Y-15736484D02*
X22451015Y-15736484D01*
X22593873Y-15726960D02*
X22574825Y-15736484D01*
X22574825Y-15736484D02*
X22536730Y-15736484D01*
X22536730Y-15736484D02*
X22517682Y-15726960D01*
X22517682Y-15726960D02*
X22508158Y-15707912D01*
X22508158Y-15707912D02*
X22508158Y-15631722D01*
X22508158Y-15631722D02*
X22517682Y-15612674D01*
X22517682Y-15612674D02*
X22536730Y-15603150D01*
X22536730Y-15603150D02*
X22574825Y-15603150D01*
X22574825Y-15603150D02*
X22593873Y-15612674D01*
X22593873Y-15612674D02*
X22603396Y-15631722D01*
X22603396Y-15631722D02*
X22603396Y-15650769D01*
X22603396Y-15650769D02*
X22508158Y-15669817D01*
X22774825Y-15736484D02*
X22774825Y-15536484D01*
X22774825Y-15726960D02*
X22755777Y-15736484D01*
X22755777Y-15736484D02*
X22717682Y-15736484D01*
X22717682Y-15736484D02*
X22698634Y-15726960D01*
X22698634Y-15726960D02*
X22689111Y-15717436D01*
X22689111Y-15717436D02*
X22679587Y-15698388D01*
X22679587Y-15698388D02*
X22679587Y-15641246D01*
X22679587Y-15641246D02*
X22689111Y-15622198D01*
X22689111Y-15622198D02*
X22698634Y-15612674D01*
X22698634Y-15612674D02*
X22717682Y-15603150D01*
X22717682Y-15603150D02*
X22755777Y-15603150D01*
X22755777Y-15603150D02*
X22774825Y-15612674D01*
X22851015Y-15812674D02*
X22860539Y-15803150D01*
X22860539Y-15803150D02*
X22879587Y-15774579D01*
X22879587Y-15774579D02*
X22889111Y-15755531D01*
X22889111Y-15755531D02*
X22898634Y-15726960D01*
X22898634Y-15726960D02*
X22908158Y-15679341D01*
X22908158Y-15679341D02*
X22908158Y-15641246D01*
X22908158Y-15641246D02*
X22898634Y-15593627D01*
X22898634Y-15593627D02*
X22889111Y-15565055D01*
X22889111Y-15565055D02*
X22879587Y-15546008D01*
X22879587Y-15546008D02*
X22860539Y-15517436D01*
X22860539Y-15517436D02*
X22851015Y-15507912D01*
D12*
X16095000Y-15909000D02*
G75*
G02*
X15985000Y-15909000I-55000J0D01*
G01*
X15985000Y-15909000D02*
G75*
G02*
X16095000Y-15909000I55000J0D01*
G01*
D11*
X16460539Y-16000484D02*
X16346253Y-16000484D01*
X16403396Y-16000484D02*
X16403396Y-15800484D01*
X16403396Y-15800484D02*
X16384348Y-15829055D01*
X16384348Y-15829055D02*
X16365301Y-15848103D01*
X16365301Y-15848103D02*
X16346253Y-15857627D01*
X16546253Y-15981436D02*
X16555777Y-15990960D01*
X16555777Y-15990960D02*
X16546253Y-16000484D01*
X16546253Y-16000484D02*
X16536729Y-15990960D01*
X16536729Y-15990960D02*
X16546253Y-15981436D01*
X16546253Y-15981436D02*
X16546253Y-16000484D01*
X16746253Y-16000484D02*
X16631967Y-16000484D01*
X16689110Y-16000484D02*
X16689110Y-15800484D01*
X16689110Y-15800484D02*
X16670062Y-15829055D01*
X16670062Y-15829055D02*
X16651015Y-15848103D01*
X16651015Y-15848103D02*
X16631967Y-15857627D01*
X16870063Y-15800484D02*
X16889110Y-15800484D01*
X16889110Y-15800484D02*
X16908158Y-15810008D01*
X16908158Y-15810008D02*
X16917682Y-15819531D01*
X16917682Y-15819531D02*
X16927205Y-15838579D01*
X16927205Y-15838579D02*
X16936729Y-15876674D01*
X16936729Y-15876674D02*
X16936729Y-15924293D01*
X16936729Y-15924293D02*
X16927205Y-15962388D01*
X16927205Y-15962388D02*
X16917682Y-15981436D01*
X16917682Y-15981436D02*
X16908158Y-15990960D01*
X16908158Y-15990960D02*
X16889110Y-16000484D01*
X16889110Y-16000484D02*
X16870063Y-16000484D01*
X16870063Y-16000484D02*
X16851015Y-15990960D01*
X16851015Y-15990960D02*
X16841491Y-15981436D01*
X16841491Y-15981436D02*
X16831967Y-15962388D01*
X16831967Y-15962388D02*
X16822444Y-15924293D01*
X16822444Y-15924293D02*
X16822444Y-15876674D01*
X16822444Y-15876674D02*
X16831967Y-15838579D01*
X16831967Y-15838579D02*
X16841491Y-15819531D01*
X16841491Y-15819531D02*
X16851015Y-15810008D01*
X16851015Y-15810008D02*
X16870063Y-15800484D01*
X17060539Y-15800484D02*
X17079586Y-15800484D01*
X17079586Y-15800484D02*
X17098634Y-15810008D01*
X17098634Y-15810008D02*
X17108158Y-15819531D01*
X17108158Y-15819531D02*
X17117682Y-15838579D01*
X17117682Y-15838579D02*
X17127205Y-15876674D01*
X17127205Y-15876674D02*
X17127205Y-15924293D01*
X17127205Y-15924293D02*
X17117682Y-15962388D01*
X17117682Y-15962388D02*
X17108158Y-15981436D01*
X17108158Y-15981436D02*
X17098634Y-15990960D01*
X17098634Y-15990960D02*
X17079586Y-16000484D01*
X17079586Y-16000484D02*
X17060539Y-16000484D01*
X17060539Y-16000484D02*
X17041491Y-15990960D01*
X17041491Y-15990960D02*
X17031967Y-15981436D01*
X17031967Y-15981436D02*
X17022444Y-15962388D01*
X17022444Y-15962388D02*
X17012920Y-15924293D01*
X17012920Y-15924293D02*
X17012920Y-15876674D01*
X17012920Y-15876674D02*
X17022444Y-15838579D01*
X17022444Y-15838579D02*
X17031967Y-15819531D01*
X17031967Y-15819531D02*
X17041491Y-15810008D01*
X17041491Y-15810008D02*
X17060539Y-15800484D01*
X17212920Y-16000484D02*
X17212920Y-15867150D01*
X17212920Y-15886198D02*
X17222444Y-15876674D01*
X17222444Y-15876674D02*
X17241491Y-15867150D01*
X17241491Y-15867150D02*
X17270063Y-15867150D01*
X17270063Y-15867150D02*
X17289110Y-15876674D01*
X17289110Y-15876674D02*
X17298634Y-15895722D01*
X17298634Y-15895722D02*
X17298634Y-16000484D01*
X17298634Y-15895722D02*
X17308158Y-15876674D01*
X17308158Y-15876674D02*
X17327205Y-15867150D01*
X17327205Y-15867150D02*
X17355777Y-15867150D01*
X17355777Y-15867150D02*
X17374825Y-15876674D01*
X17374825Y-15876674D02*
X17384348Y-15895722D01*
X17384348Y-15895722D02*
X17384348Y-16000484D01*
X17479586Y-16000484D02*
X17479586Y-15867150D01*
X17479586Y-15886198D02*
X17489110Y-15876674D01*
X17489110Y-15876674D02*
X17508158Y-15867150D01*
X17508158Y-15867150D02*
X17536729Y-15867150D01*
X17536729Y-15867150D02*
X17555777Y-15876674D01*
X17555777Y-15876674D02*
X17565301Y-15895722D01*
X17565301Y-15895722D02*
X17565301Y-16000484D01*
X17565301Y-15895722D02*
X17574825Y-15876674D01*
X17574825Y-15876674D02*
X17593872Y-15867150D01*
X17593872Y-15867150D02*
X17622444Y-15867150D01*
X17622444Y-15867150D02*
X17641491Y-15876674D01*
X17641491Y-15876674D02*
X17651015Y-15895722D01*
X17651015Y-15895722D02*
X17651015Y-16000484D01*
X18041491Y-15790960D02*
X17870063Y-16048103D01*
X18298634Y-15800484D02*
X18317682Y-15800484D01*
X18317682Y-15800484D02*
X18336729Y-15810008D01*
X18336729Y-15810008D02*
X18346253Y-15819531D01*
X18346253Y-15819531D02*
X18355777Y-15838579D01*
X18355777Y-15838579D02*
X18365301Y-15876674D01*
X18365301Y-15876674D02*
X18365301Y-15924293D01*
X18365301Y-15924293D02*
X18355777Y-15962388D01*
X18355777Y-15962388D02*
X18346253Y-15981436D01*
X18346253Y-15981436D02*
X18336729Y-15990960D01*
X18336729Y-15990960D02*
X18317682Y-16000484D01*
X18317682Y-16000484D02*
X18298634Y-16000484D01*
X18298634Y-16000484D02*
X18279587Y-15990960D01*
X18279587Y-15990960D02*
X18270063Y-15981436D01*
X18270063Y-15981436D02*
X18260539Y-15962388D01*
X18260539Y-15962388D02*
X18251015Y-15924293D01*
X18251015Y-15924293D02*
X18251015Y-15876674D01*
X18251015Y-15876674D02*
X18260539Y-15838579D01*
X18260539Y-15838579D02*
X18270063Y-15819531D01*
X18270063Y-15819531D02*
X18279587Y-15810008D01*
X18279587Y-15810008D02*
X18298634Y-15800484D01*
X18451015Y-15981436D02*
X18460539Y-15990960D01*
X18460539Y-15990960D02*
X18451015Y-16000484D01*
X18451015Y-16000484D02*
X18441491Y-15990960D01*
X18441491Y-15990960D02*
X18451015Y-15981436D01*
X18451015Y-15981436D02*
X18451015Y-16000484D01*
X18584348Y-15800484D02*
X18603396Y-15800484D01*
X18603396Y-15800484D02*
X18622444Y-15810008D01*
X18622444Y-15810008D02*
X18631968Y-15819531D01*
X18631968Y-15819531D02*
X18641491Y-15838579D01*
X18641491Y-15838579D02*
X18651015Y-15876674D01*
X18651015Y-15876674D02*
X18651015Y-15924293D01*
X18651015Y-15924293D02*
X18641491Y-15962388D01*
X18641491Y-15962388D02*
X18631968Y-15981436D01*
X18631968Y-15981436D02*
X18622444Y-15990960D01*
X18622444Y-15990960D02*
X18603396Y-16000484D01*
X18603396Y-16000484D02*
X18584348Y-16000484D01*
X18584348Y-16000484D02*
X18565301Y-15990960D01*
X18565301Y-15990960D02*
X18555777Y-15981436D01*
X18555777Y-15981436D02*
X18546253Y-15962388D01*
X18546253Y-15962388D02*
X18536729Y-15924293D01*
X18536729Y-15924293D02*
X18536729Y-15876674D01*
X18536729Y-15876674D02*
X18546253Y-15838579D01*
X18546253Y-15838579D02*
X18555777Y-15819531D01*
X18555777Y-15819531D02*
X18565301Y-15810008D01*
X18565301Y-15810008D02*
X18584348Y-15800484D01*
X18822444Y-15867150D02*
X18822444Y-16000484D01*
X18774825Y-15790960D02*
X18727206Y-15933817D01*
X18727206Y-15933817D02*
X18851015Y-15933817D01*
X18908158Y-15800484D02*
X19031968Y-15800484D01*
X19031968Y-15800484D02*
X18965301Y-15876674D01*
X18965301Y-15876674D02*
X18993872Y-15876674D01*
X18993872Y-15876674D02*
X19012920Y-15886198D01*
X19012920Y-15886198D02*
X19022444Y-15895722D01*
X19022444Y-15895722D02*
X19031968Y-15914769D01*
X19031968Y-15914769D02*
X19031968Y-15962388D01*
X19031968Y-15962388D02*
X19022444Y-15981436D01*
X19022444Y-15981436D02*
X19012920Y-15990960D01*
X19012920Y-15990960D02*
X18993872Y-16000484D01*
X18993872Y-16000484D02*
X18936729Y-16000484D01*
X18936729Y-16000484D02*
X18917682Y-15990960D01*
X18917682Y-15990960D02*
X18908158Y-15981436D01*
X19098634Y-15800484D02*
X19222444Y-15800484D01*
X19222444Y-15800484D02*
X19155777Y-15876674D01*
X19155777Y-15876674D02*
X19184349Y-15876674D01*
X19184349Y-15876674D02*
X19203396Y-15886198D01*
X19203396Y-15886198D02*
X19212920Y-15895722D01*
X19212920Y-15895722D02*
X19222444Y-15914769D01*
X19222444Y-15914769D02*
X19222444Y-15962388D01*
X19222444Y-15962388D02*
X19212920Y-15981436D01*
X19212920Y-15981436D02*
X19203396Y-15990960D01*
X19203396Y-15990960D02*
X19184349Y-16000484D01*
X19184349Y-16000484D02*
X19127206Y-16000484D01*
X19127206Y-16000484D02*
X19108158Y-15990960D01*
X19108158Y-15990960D02*
X19098634Y-15981436D01*
X19298634Y-15800484D02*
X19298634Y-15838579D01*
X19374825Y-15800484D02*
X19374825Y-15838579D01*
X19670063Y-16076674D02*
X19660539Y-16067150D01*
X19660539Y-16067150D02*
X19641491Y-16038579D01*
X19641491Y-16038579D02*
X19631968Y-16019531D01*
X19631968Y-16019531D02*
X19622444Y-15990960D01*
X19622444Y-15990960D02*
X19612920Y-15943341D01*
X19612920Y-15943341D02*
X19612920Y-15905246D01*
X19612920Y-15905246D02*
X19622444Y-15857627D01*
X19622444Y-15857627D02*
X19631968Y-15829055D01*
X19631968Y-15829055D02*
X19641491Y-15810008D01*
X19641491Y-15810008D02*
X19660539Y-15781436D01*
X19660539Y-15781436D02*
X19670063Y-15771912D01*
X19851015Y-16000484D02*
X19736730Y-16000484D01*
X19793872Y-16000484D02*
X19793872Y-15800484D01*
X19793872Y-15800484D02*
X19774825Y-15829055D01*
X19774825Y-15829055D02*
X19755777Y-15848103D01*
X19755777Y-15848103D02*
X19736730Y-15857627D01*
X20089111Y-16000484D02*
X20089111Y-15800484D01*
X20174825Y-16000484D02*
X20174825Y-15895722D01*
X20174825Y-15895722D02*
X20165301Y-15876674D01*
X20165301Y-15876674D02*
X20146253Y-15867150D01*
X20146253Y-15867150D02*
X20117682Y-15867150D01*
X20117682Y-15867150D02*
X20098634Y-15876674D01*
X20098634Y-15876674D02*
X20089111Y-15886198D01*
X20298634Y-16000484D02*
X20279587Y-15990960D01*
X20279587Y-15990960D02*
X20270063Y-15981436D01*
X20270063Y-15981436D02*
X20260539Y-15962388D01*
X20260539Y-15962388D02*
X20260539Y-15905246D01*
X20260539Y-15905246D02*
X20270063Y-15886198D01*
X20270063Y-15886198D02*
X20279587Y-15876674D01*
X20279587Y-15876674D02*
X20298634Y-15867150D01*
X20298634Y-15867150D02*
X20327206Y-15867150D01*
X20327206Y-15867150D02*
X20346253Y-15876674D01*
X20346253Y-15876674D02*
X20355777Y-15886198D01*
X20355777Y-15886198D02*
X20365301Y-15905246D01*
X20365301Y-15905246D02*
X20365301Y-15962388D01*
X20365301Y-15962388D02*
X20355777Y-15981436D01*
X20355777Y-15981436D02*
X20346253Y-15990960D01*
X20346253Y-15990960D02*
X20327206Y-16000484D01*
X20327206Y-16000484D02*
X20298634Y-16000484D01*
X20479587Y-16000484D02*
X20460539Y-15990960D01*
X20460539Y-15990960D02*
X20451015Y-15971912D01*
X20451015Y-15971912D02*
X20451015Y-15800484D01*
X20631968Y-15990960D02*
X20612920Y-16000484D01*
X20612920Y-16000484D02*
X20574825Y-16000484D01*
X20574825Y-16000484D02*
X20555777Y-15990960D01*
X20555777Y-15990960D02*
X20546253Y-15971912D01*
X20546253Y-15971912D02*
X20546253Y-15895722D01*
X20546253Y-15895722D02*
X20555777Y-15876674D01*
X20555777Y-15876674D02*
X20574825Y-15867150D01*
X20574825Y-15867150D02*
X20612920Y-15867150D01*
X20612920Y-15867150D02*
X20631968Y-15876674D01*
X20631968Y-15876674D02*
X20641492Y-15895722D01*
X20641492Y-15895722D02*
X20641492Y-15914769D01*
X20641492Y-15914769D02*
X20546253Y-15933817D01*
X20708158Y-16076674D02*
X20717682Y-16067150D01*
X20717682Y-16067150D02*
X20736730Y-16038579D01*
X20736730Y-16038579D02*
X20746253Y-16019531D01*
X20746253Y-16019531D02*
X20755777Y-15990960D01*
X20755777Y-15990960D02*
X20765301Y-15943341D01*
X20765301Y-15943341D02*
X20765301Y-15905246D01*
X20765301Y-15905246D02*
X20755777Y-15857627D01*
X20755777Y-15857627D02*
X20746253Y-15829055D01*
X20746253Y-15829055D02*
X20736730Y-15810008D01*
X20736730Y-15810008D02*
X20717682Y-15781436D01*
X20717682Y-15781436D02*
X20708158Y-15771912D01*
X21070063Y-16076674D02*
X21060539Y-16067150D01*
X21060539Y-16067150D02*
X21041492Y-16038579D01*
X21041492Y-16038579D02*
X21031968Y-16019531D01*
X21031968Y-16019531D02*
X21022444Y-15990960D01*
X21022444Y-15990960D02*
X21012920Y-15943341D01*
X21012920Y-15943341D02*
X21012920Y-15905246D01*
X21012920Y-15905246D02*
X21022444Y-15857627D01*
X21022444Y-15857627D02*
X21031968Y-15829055D01*
X21031968Y-15829055D02*
X21041492Y-15810008D01*
X21041492Y-15810008D02*
X21060539Y-15781436D01*
X21060539Y-15781436D02*
X21070063Y-15771912D01*
X21146253Y-15867150D02*
X21146253Y-16000484D01*
X21146253Y-15886198D02*
X21155777Y-15876674D01*
X21155777Y-15876674D02*
X21174825Y-15867150D01*
X21174825Y-15867150D02*
X21203396Y-15867150D01*
X21203396Y-15867150D02*
X21222444Y-15876674D01*
X21222444Y-15876674D02*
X21231968Y-15895722D01*
X21231968Y-15895722D02*
X21231968Y-16000484D01*
X21355777Y-16000484D02*
X21336730Y-15990960D01*
X21336730Y-15990960D02*
X21327206Y-15981436D01*
X21327206Y-15981436D02*
X21317682Y-15962388D01*
X21317682Y-15962388D02*
X21317682Y-15905246D01*
X21317682Y-15905246D02*
X21327206Y-15886198D01*
X21327206Y-15886198D02*
X21336730Y-15876674D01*
X21336730Y-15876674D02*
X21355777Y-15867150D01*
X21355777Y-15867150D02*
X21384349Y-15867150D01*
X21384349Y-15867150D02*
X21403396Y-15876674D01*
X21403396Y-15876674D02*
X21412920Y-15886198D01*
X21412920Y-15886198D02*
X21422444Y-15905246D01*
X21422444Y-15905246D02*
X21422444Y-15962388D01*
X21422444Y-15962388D02*
X21412920Y-15981436D01*
X21412920Y-15981436D02*
X21403396Y-15990960D01*
X21403396Y-15990960D02*
X21384349Y-16000484D01*
X21384349Y-16000484D02*
X21355777Y-16000484D01*
X21479587Y-15867150D02*
X21555777Y-15867150D01*
X21508158Y-15800484D02*
X21508158Y-15971912D01*
X21508158Y-15971912D02*
X21517682Y-15990960D01*
X21517682Y-15990960D02*
X21536730Y-16000484D01*
X21536730Y-16000484D02*
X21555777Y-16000484D01*
X21774825Y-15867150D02*
X21774825Y-16067150D01*
X21774825Y-15876674D02*
X21793873Y-15867150D01*
X21793873Y-15867150D02*
X21831968Y-15867150D01*
X21831968Y-15867150D02*
X21851015Y-15876674D01*
X21851015Y-15876674D02*
X21860539Y-15886198D01*
X21860539Y-15886198D02*
X21870063Y-15905246D01*
X21870063Y-15905246D02*
X21870063Y-15962388D01*
X21870063Y-15962388D02*
X21860539Y-15981436D01*
X21860539Y-15981436D02*
X21851015Y-15990960D01*
X21851015Y-15990960D02*
X21831968Y-16000484D01*
X21831968Y-16000484D02*
X21793873Y-16000484D01*
X21793873Y-16000484D02*
X21774825Y-15990960D01*
X21984349Y-16000484D02*
X21965301Y-15990960D01*
X21965301Y-15990960D02*
X21955777Y-15971912D01*
X21955777Y-15971912D02*
X21955777Y-15800484D01*
X22146254Y-16000484D02*
X22146254Y-15895722D01*
X22146254Y-15895722D02*
X22136730Y-15876674D01*
X22136730Y-15876674D02*
X22117682Y-15867150D01*
X22117682Y-15867150D02*
X22079587Y-15867150D01*
X22079587Y-15867150D02*
X22060539Y-15876674D01*
X22146254Y-15990960D02*
X22127206Y-16000484D01*
X22127206Y-16000484D02*
X22079587Y-16000484D01*
X22079587Y-16000484D02*
X22060539Y-15990960D01*
X22060539Y-15990960D02*
X22051015Y-15971912D01*
X22051015Y-15971912D02*
X22051015Y-15952865D01*
X22051015Y-15952865D02*
X22060539Y-15933817D01*
X22060539Y-15933817D02*
X22079587Y-15924293D01*
X22079587Y-15924293D02*
X22127206Y-15924293D01*
X22127206Y-15924293D02*
X22146254Y-15914769D01*
X22212920Y-15867150D02*
X22289111Y-15867150D01*
X22241492Y-15800484D02*
X22241492Y-15971912D01*
X22241492Y-15971912D02*
X22251015Y-15990960D01*
X22251015Y-15990960D02*
X22270063Y-16000484D01*
X22270063Y-16000484D02*
X22289111Y-16000484D01*
X22431968Y-15990960D02*
X22412920Y-16000484D01*
X22412920Y-16000484D02*
X22374825Y-16000484D01*
X22374825Y-16000484D02*
X22355777Y-15990960D01*
X22355777Y-15990960D02*
X22346254Y-15971912D01*
X22346254Y-15971912D02*
X22346254Y-15895722D01*
X22346254Y-15895722D02*
X22355777Y-15876674D01*
X22355777Y-15876674D02*
X22374825Y-15867150D01*
X22374825Y-15867150D02*
X22412920Y-15867150D01*
X22412920Y-15867150D02*
X22431968Y-15876674D01*
X22431968Y-15876674D02*
X22441492Y-15895722D01*
X22441492Y-15895722D02*
X22441492Y-15914769D01*
X22441492Y-15914769D02*
X22346254Y-15933817D01*
X22612920Y-16000484D02*
X22612920Y-15800484D01*
X22612920Y-15990960D02*
X22593873Y-16000484D01*
X22593873Y-16000484D02*
X22555777Y-16000484D01*
X22555777Y-16000484D02*
X22536730Y-15990960D01*
X22536730Y-15990960D02*
X22527206Y-15981436D01*
X22527206Y-15981436D02*
X22517682Y-15962388D01*
X22517682Y-15962388D02*
X22517682Y-15905246D01*
X22517682Y-15905246D02*
X22527206Y-15886198D01*
X22527206Y-15886198D02*
X22536730Y-15876674D01*
X22536730Y-15876674D02*
X22555777Y-15867150D01*
X22555777Y-15867150D02*
X22593873Y-15867150D01*
X22593873Y-15867150D02*
X22612920Y-15876674D01*
X22689111Y-16076674D02*
X22698634Y-16067150D01*
X22698634Y-16067150D02*
X22717682Y-16038579D01*
X22717682Y-16038579D02*
X22727206Y-16019531D01*
X22727206Y-16019531D02*
X22736730Y-15990960D01*
X22736730Y-15990960D02*
X22746253Y-15943341D01*
X22746253Y-15943341D02*
X22746253Y-15905246D01*
X22746253Y-15905246D02*
X22736730Y-15857627D01*
X22736730Y-15857627D02*
X22727206Y-15829055D01*
X22727206Y-15829055D02*
X22717682Y-15810008D01*
X22717682Y-15810008D02*
X22698634Y-15781436D01*
X22698634Y-15781436D02*
X22689111Y-15771912D01*
D13*
X16030000Y-16108000D02*
X16030000Y-16238000D01*
X15965000Y-16173000D02*
X16095000Y-16173000D01*
D11*
X16460539Y-16264484D02*
X16346253Y-16264484D01*
X16403396Y-16264484D02*
X16403396Y-16064484D01*
X16403396Y-16064484D02*
X16384348Y-16093055D01*
X16384348Y-16093055D02*
X16365301Y-16112103D01*
X16365301Y-16112103D02*
X16346253Y-16121627D01*
X16546253Y-16245436D02*
X16555777Y-16254960D01*
X16555777Y-16254960D02*
X16546253Y-16264484D01*
X16546253Y-16264484D02*
X16536729Y-16254960D01*
X16536729Y-16254960D02*
X16546253Y-16245436D01*
X16546253Y-16245436D02*
X16546253Y-16264484D01*
X16622443Y-16064484D02*
X16746253Y-16064484D01*
X16746253Y-16064484D02*
X16679586Y-16140674D01*
X16679586Y-16140674D02*
X16708158Y-16140674D01*
X16708158Y-16140674D02*
X16727205Y-16150198D01*
X16727205Y-16150198D02*
X16736729Y-16159722D01*
X16736729Y-16159722D02*
X16746253Y-16178769D01*
X16746253Y-16178769D02*
X16746253Y-16226388D01*
X16746253Y-16226388D02*
X16736729Y-16245436D01*
X16736729Y-16245436D02*
X16727205Y-16254960D01*
X16727205Y-16254960D02*
X16708158Y-16264484D01*
X16708158Y-16264484D02*
X16651015Y-16264484D01*
X16651015Y-16264484D02*
X16631967Y-16254960D01*
X16631967Y-16254960D02*
X16622443Y-16245436D01*
X16870063Y-16064484D02*
X16889110Y-16064484D01*
X16889110Y-16064484D02*
X16908158Y-16074008D01*
X16908158Y-16074008D02*
X16917682Y-16083531D01*
X16917682Y-16083531D02*
X16927205Y-16102579D01*
X16927205Y-16102579D02*
X16936729Y-16140674D01*
X16936729Y-16140674D02*
X16936729Y-16188293D01*
X16936729Y-16188293D02*
X16927205Y-16226388D01*
X16927205Y-16226388D02*
X16917682Y-16245436D01*
X16917682Y-16245436D02*
X16908158Y-16254960D01*
X16908158Y-16254960D02*
X16889110Y-16264484D01*
X16889110Y-16264484D02*
X16870063Y-16264484D01*
X16870063Y-16264484D02*
X16851015Y-16254960D01*
X16851015Y-16254960D02*
X16841491Y-16245436D01*
X16841491Y-16245436D02*
X16831967Y-16226388D01*
X16831967Y-16226388D02*
X16822444Y-16188293D01*
X16822444Y-16188293D02*
X16822444Y-16140674D01*
X16822444Y-16140674D02*
X16831967Y-16102579D01*
X16831967Y-16102579D02*
X16841491Y-16083531D01*
X16841491Y-16083531D02*
X16851015Y-16074008D01*
X16851015Y-16074008D02*
X16870063Y-16064484D01*
X17060539Y-16064484D02*
X17079586Y-16064484D01*
X17079586Y-16064484D02*
X17098634Y-16074008D01*
X17098634Y-16074008D02*
X17108158Y-16083531D01*
X17108158Y-16083531D02*
X17117682Y-16102579D01*
X17117682Y-16102579D02*
X17127205Y-16140674D01*
X17127205Y-16140674D02*
X17127205Y-16188293D01*
X17127205Y-16188293D02*
X17117682Y-16226388D01*
X17117682Y-16226388D02*
X17108158Y-16245436D01*
X17108158Y-16245436D02*
X17098634Y-16254960D01*
X17098634Y-16254960D02*
X17079586Y-16264484D01*
X17079586Y-16264484D02*
X17060539Y-16264484D01*
X17060539Y-16264484D02*
X17041491Y-16254960D01*
X17041491Y-16254960D02*
X17031967Y-16245436D01*
X17031967Y-16245436D02*
X17022444Y-16226388D01*
X17022444Y-16226388D02*
X17012920Y-16188293D01*
X17012920Y-16188293D02*
X17012920Y-16140674D01*
X17012920Y-16140674D02*
X17022444Y-16102579D01*
X17022444Y-16102579D02*
X17031967Y-16083531D01*
X17031967Y-16083531D02*
X17041491Y-16074008D01*
X17041491Y-16074008D02*
X17060539Y-16064484D01*
X17212920Y-16264484D02*
X17212920Y-16131150D01*
X17212920Y-16150198D02*
X17222444Y-16140674D01*
X17222444Y-16140674D02*
X17241491Y-16131150D01*
X17241491Y-16131150D02*
X17270063Y-16131150D01*
X17270063Y-16131150D02*
X17289110Y-16140674D01*
X17289110Y-16140674D02*
X17298634Y-16159722D01*
X17298634Y-16159722D02*
X17298634Y-16264484D01*
X17298634Y-16159722D02*
X17308158Y-16140674D01*
X17308158Y-16140674D02*
X17327205Y-16131150D01*
X17327205Y-16131150D02*
X17355777Y-16131150D01*
X17355777Y-16131150D02*
X17374825Y-16140674D01*
X17374825Y-16140674D02*
X17384348Y-16159722D01*
X17384348Y-16159722D02*
X17384348Y-16264484D01*
X17479586Y-16264484D02*
X17479586Y-16131150D01*
X17479586Y-16150198D02*
X17489110Y-16140674D01*
X17489110Y-16140674D02*
X17508158Y-16131150D01*
X17508158Y-16131150D02*
X17536729Y-16131150D01*
X17536729Y-16131150D02*
X17555777Y-16140674D01*
X17555777Y-16140674D02*
X17565301Y-16159722D01*
X17565301Y-16159722D02*
X17565301Y-16264484D01*
X17565301Y-16159722D02*
X17574825Y-16140674D01*
X17574825Y-16140674D02*
X17593872Y-16131150D01*
X17593872Y-16131150D02*
X17622444Y-16131150D01*
X17622444Y-16131150D02*
X17641491Y-16140674D01*
X17641491Y-16140674D02*
X17651015Y-16159722D01*
X17651015Y-16159722D02*
X17651015Y-16264484D01*
X18041491Y-16054960D02*
X17870063Y-16312103D01*
X18298634Y-16064484D02*
X18317682Y-16064484D01*
X18317682Y-16064484D02*
X18336729Y-16074008D01*
X18336729Y-16074008D02*
X18346253Y-16083531D01*
X18346253Y-16083531D02*
X18355777Y-16102579D01*
X18355777Y-16102579D02*
X18365301Y-16140674D01*
X18365301Y-16140674D02*
X18365301Y-16188293D01*
X18365301Y-16188293D02*
X18355777Y-16226388D01*
X18355777Y-16226388D02*
X18346253Y-16245436D01*
X18346253Y-16245436D02*
X18336729Y-16254960D01*
X18336729Y-16254960D02*
X18317682Y-16264484D01*
X18317682Y-16264484D02*
X18298634Y-16264484D01*
X18298634Y-16264484D02*
X18279587Y-16254960D01*
X18279587Y-16254960D02*
X18270063Y-16245436D01*
X18270063Y-16245436D02*
X18260539Y-16226388D01*
X18260539Y-16226388D02*
X18251015Y-16188293D01*
X18251015Y-16188293D02*
X18251015Y-16140674D01*
X18251015Y-16140674D02*
X18260539Y-16102579D01*
X18260539Y-16102579D02*
X18270063Y-16083531D01*
X18270063Y-16083531D02*
X18279587Y-16074008D01*
X18279587Y-16074008D02*
X18298634Y-16064484D01*
X18451015Y-16245436D02*
X18460539Y-16254960D01*
X18460539Y-16254960D02*
X18451015Y-16264484D01*
X18451015Y-16264484D02*
X18441491Y-16254960D01*
X18441491Y-16254960D02*
X18451015Y-16245436D01*
X18451015Y-16245436D02*
X18451015Y-16264484D01*
X18584348Y-16064484D02*
X18603396Y-16064484D01*
X18603396Y-16064484D02*
X18622444Y-16074008D01*
X18622444Y-16074008D02*
X18631968Y-16083531D01*
X18631968Y-16083531D02*
X18641491Y-16102579D01*
X18641491Y-16102579D02*
X18651015Y-16140674D01*
X18651015Y-16140674D02*
X18651015Y-16188293D01*
X18651015Y-16188293D02*
X18641491Y-16226388D01*
X18641491Y-16226388D02*
X18631968Y-16245436D01*
X18631968Y-16245436D02*
X18622444Y-16254960D01*
X18622444Y-16254960D02*
X18603396Y-16264484D01*
X18603396Y-16264484D02*
X18584348Y-16264484D01*
X18584348Y-16264484D02*
X18565301Y-16254960D01*
X18565301Y-16254960D02*
X18555777Y-16245436D01*
X18555777Y-16245436D02*
X18546253Y-16226388D01*
X18546253Y-16226388D02*
X18536729Y-16188293D01*
X18536729Y-16188293D02*
X18536729Y-16140674D01*
X18536729Y-16140674D02*
X18546253Y-16102579D01*
X18546253Y-16102579D02*
X18555777Y-16083531D01*
X18555777Y-16083531D02*
X18565301Y-16074008D01*
X18565301Y-16074008D02*
X18584348Y-16064484D01*
X18831968Y-16064484D02*
X18736729Y-16064484D01*
X18736729Y-16064484D02*
X18727206Y-16159722D01*
X18727206Y-16159722D02*
X18736729Y-16150198D01*
X18736729Y-16150198D02*
X18755777Y-16140674D01*
X18755777Y-16140674D02*
X18803396Y-16140674D01*
X18803396Y-16140674D02*
X18822444Y-16150198D01*
X18822444Y-16150198D02*
X18831968Y-16159722D01*
X18831968Y-16159722D02*
X18841491Y-16178769D01*
X18841491Y-16178769D02*
X18841491Y-16226388D01*
X18841491Y-16226388D02*
X18831968Y-16245436D01*
X18831968Y-16245436D02*
X18822444Y-16254960D01*
X18822444Y-16254960D02*
X18803396Y-16264484D01*
X18803396Y-16264484D02*
X18755777Y-16264484D01*
X18755777Y-16264484D02*
X18736729Y-16254960D01*
X18736729Y-16254960D02*
X18727206Y-16245436D01*
X19031968Y-16264484D02*
X18917682Y-16264484D01*
X18974825Y-16264484D02*
X18974825Y-16064484D01*
X18974825Y-16064484D02*
X18955777Y-16093055D01*
X18955777Y-16093055D02*
X18936729Y-16112103D01*
X18936729Y-16112103D02*
X18917682Y-16121627D01*
X19108158Y-16083531D02*
X19117682Y-16074008D01*
X19117682Y-16074008D02*
X19136729Y-16064484D01*
X19136729Y-16064484D02*
X19184349Y-16064484D01*
X19184349Y-16064484D02*
X19203396Y-16074008D01*
X19203396Y-16074008D02*
X19212920Y-16083531D01*
X19212920Y-16083531D02*
X19222444Y-16102579D01*
X19222444Y-16102579D02*
X19222444Y-16121627D01*
X19222444Y-16121627D02*
X19212920Y-16150198D01*
X19212920Y-16150198D02*
X19098634Y-16264484D01*
X19098634Y-16264484D02*
X19222444Y-16264484D01*
X19298634Y-16064484D02*
X19298634Y-16102579D01*
X19374825Y-16064484D02*
X19374825Y-16102579D01*
X19670063Y-16340674D02*
X19660539Y-16331150D01*
X19660539Y-16331150D02*
X19641491Y-16302579D01*
X19641491Y-16302579D02*
X19631968Y-16283531D01*
X19631968Y-16283531D02*
X19622444Y-16254960D01*
X19622444Y-16254960D02*
X19612920Y-16207341D01*
X19612920Y-16207341D02*
X19612920Y-16169246D01*
X19612920Y-16169246D02*
X19622444Y-16121627D01*
X19622444Y-16121627D02*
X19631968Y-16093055D01*
X19631968Y-16093055D02*
X19641491Y-16074008D01*
X19641491Y-16074008D02*
X19660539Y-16045436D01*
X19660539Y-16045436D02*
X19670063Y-16035912D01*
X19851015Y-16264484D02*
X19736730Y-16264484D01*
X19793872Y-16264484D02*
X19793872Y-16064484D01*
X19793872Y-16064484D02*
X19774825Y-16093055D01*
X19774825Y-16093055D02*
X19755777Y-16112103D01*
X19755777Y-16112103D02*
X19736730Y-16121627D01*
X20089111Y-16264484D02*
X20089111Y-16064484D01*
X20174825Y-16264484D02*
X20174825Y-16159722D01*
X20174825Y-16159722D02*
X20165301Y-16140674D01*
X20165301Y-16140674D02*
X20146253Y-16131150D01*
X20146253Y-16131150D02*
X20117682Y-16131150D01*
X20117682Y-16131150D02*
X20098634Y-16140674D01*
X20098634Y-16140674D02*
X20089111Y-16150198D01*
X20298634Y-16264484D02*
X20279587Y-16254960D01*
X20279587Y-16254960D02*
X20270063Y-16245436D01*
X20270063Y-16245436D02*
X20260539Y-16226388D01*
X20260539Y-16226388D02*
X20260539Y-16169246D01*
X20260539Y-16169246D02*
X20270063Y-16150198D01*
X20270063Y-16150198D02*
X20279587Y-16140674D01*
X20279587Y-16140674D02*
X20298634Y-16131150D01*
X20298634Y-16131150D02*
X20327206Y-16131150D01*
X20327206Y-16131150D02*
X20346253Y-16140674D01*
X20346253Y-16140674D02*
X20355777Y-16150198D01*
X20355777Y-16150198D02*
X20365301Y-16169246D01*
X20365301Y-16169246D02*
X20365301Y-16226388D01*
X20365301Y-16226388D02*
X20355777Y-16245436D01*
X20355777Y-16245436D02*
X20346253Y-16254960D01*
X20346253Y-16254960D02*
X20327206Y-16264484D01*
X20327206Y-16264484D02*
X20298634Y-16264484D01*
X20479587Y-16264484D02*
X20460539Y-16254960D01*
X20460539Y-16254960D02*
X20451015Y-16235912D01*
X20451015Y-16235912D02*
X20451015Y-16064484D01*
X20631968Y-16254960D02*
X20612920Y-16264484D01*
X20612920Y-16264484D02*
X20574825Y-16264484D01*
X20574825Y-16264484D02*
X20555777Y-16254960D01*
X20555777Y-16254960D02*
X20546253Y-16235912D01*
X20546253Y-16235912D02*
X20546253Y-16159722D01*
X20546253Y-16159722D02*
X20555777Y-16140674D01*
X20555777Y-16140674D02*
X20574825Y-16131150D01*
X20574825Y-16131150D02*
X20612920Y-16131150D01*
X20612920Y-16131150D02*
X20631968Y-16140674D01*
X20631968Y-16140674D02*
X20641492Y-16159722D01*
X20641492Y-16159722D02*
X20641492Y-16178769D01*
X20641492Y-16178769D02*
X20546253Y-16197817D01*
X20708158Y-16340674D02*
X20717682Y-16331150D01*
X20717682Y-16331150D02*
X20736730Y-16302579D01*
X20736730Y-16302579D02*
X20746253Y-16283531D01*
X20746253Y-16283531D02*
X20755777Y-16254960D01*
X20755777Y-16254960D02*
X20765301Y-16207341D01*
X20765301Y-16207341D02*
X20765301Y-16169246D01*
X20765301Y-16169246D02*
X20755777Y-16121627D01*
X20755777Y-16121627D02*
X20746253Y-16093055D01*
X20746253Y-16093055D02*
X20736730Y-16074008D01*
X20736730Y-16074008D02*
X20717682Y-16045436D01*
X20717682Y-16045436D02*
X20708158Y-16035912D01*
X21070063Y-16340674D02*
X21060539Y-16331150D01*
X21060539Y-16331150D02*
X21041492Y-16302579D01*
X21041492Y-16302579D02*
X21031968Y-16283531D01*
X21031968Y-16283531D02*
X21022444Y-16254960D01*
X21022444Y-16254960D02*
X21012920Y-16207341D01*
X21012920Y-16207341D02*
X21012920Y-16169246D01*
X21012920Y-16169246D02*
X21022444Y-16121627D01*
X21022444Y-16121627D02*
X21031968Y-16093055D01*
X21031968Y-16093055D02*
X21041492Y-16074008D01*
X21041492Y-16074008D02*
X21060539Y-16045436D01*
X21060539Y-16045436D02*
X21070063Y-16035912D01*
X21146253Y-16131150D02*
X21146253Y-16264484D01*
X21146253Y-16150198D02*
X21155777Y-16140674D01*
X21155777Y-16140674D02*
X21174825Y-16131150D01*
X21174825Y-16131150D02*
X21203396Y-16131150D01*
X21203396Y-16131150D02*
X21222444Y-16140674D01*
X21222444Y-16140674D02*
X21231968Y-16159722D01*
X21231968Y-16159722D02*
X21231968Y-16264484D01*
X21355777Y-16264484D02*
X21336730Y-16254960D01*
X21336730Y-16254960D02*
X21327206Y-16245436D01*
X21327206Y-16245436D02*
X21317682Y-16226388D01*
X21317682Y-16226388D02*
X21317682Y-16169246D01*
X21317682Y-16169246D02*
X21327206Y-16150198D01*
X21327206Y-16150198D02*
X21336730Y-16140674D01*
X21336730Y-16140674D02*
X21355777Y-16131150D01*
X21355777Y-16131150D02*
X21384349Y-16131150D01*
X21384349Y-16131150D02*
X21403396Y-16140674D01*
X21403396Y-16140674D02*
X21412920Y-16150198D01*
X21412920Y-16150198D02*
X21422444Y-16169246D01*
X21422444Y-16169246D02*
X21422444Y-16226388D01*
X21422444Y-16226388D02*
X21412920Y-16245436D01*
X21412920Y-16245436D02*
X21403396Y-16254960D01*
X21403396Y-16254960D02*
X21384349Y-16264484D01*
X21384349Y-16264484D02*
X21355777Y-16264484D01*
X21479587Y-16131150D02*
X21555777Y-16131150D01*
X21508158Y-16064484D02*
X21508158Y-16235912D01*
X21508158Y-16235912D02*
X21517682Y-16254960D01*
X21517682Y-16254960D02*
X21536730Y-16264484D01*
X21536730Y-16264484D02*
X21555777Y-16264484D01*
X21774825Y-16131150D02*
X21774825Y-16331150D01*
X21774825Y-16140674D02*
X21793873Y-16131150D01*
X21793873Y-16131150D02*
X21831968Y-16131150D01*
X21831968Y-16131150D02*
X21851015Y-16140674D01*
X21851015Y-16140674D02*
X21860539Y-16150198D01*
X21860539Y-16150198D02*
X21870063Y-16169246D01*
X21870063Y-16169246D02*
X21870063Y-16226388D01*
X21870063Y-16226388D02*
X21860539Y-16245436D01*
X21860539Y-16245436D02*
X21851015Y-16254960D01*
X21851015Y-16254960D02*
X21831968Y-16264484D01*
X21831968Y-16264484D02*
X21793873Y-16264484D01*
X21793873Y-16264484D02*
X21774825Y-16254960D01*
X21984349Y-16264484D02*
X21965301Y-16254960D01*
X21965301Y-16254960D02*
X21955777Y-16235912D01*
X21955777Y-16235912D02*
X21955777Y-16064484D01*
X22146254Y-16264484D02*
X22146254Y-16159722D01*
X22146254Y-16159722D02*
X22136730Y-16140674D01*
X22136730Y-16140674D02*
X22117682Y-16131150D01*
X22117682Y-16131150D02*
X22079587Y-16131150D01*
X22079587Y-16131150D02*
X22060539Y-16140674D01*
X22146254Y-16254960D02*
X22127206Y-16264484D01*
X22127206Y-16264484D02*
X22079587Y-16264484D01*
X22079587Y-16264484D02*
X22060539Y-16254960D01*
X22060539Y-16254960D02*
X22051015Y-16235912D01*
X22051015Y-16235912D02*
X22051015Y-16216865D01*
X22051015Y-16216865D02*
X22060539Y-16197817D01*
X22060539Y-16197817D02*
X22079587Y-16188293D01*
X22079587Y-16188293D02*
X22127206Y-16188293D01*
X22127206Y-16188293D02*
X22146254Y-16178769D01*
X22212920Y-16131150D02*
X22289111Y-16131150D01*
X22241492Y-16064484D02*
X22241492Y-16235912D01*
X22241492Y-16235912D02*
X22251015Y-16254960D01*
X22251015Y-16254960D02*
X22270063Y-16264484D01*
X22270063Y-16264484D02*
X22289111Y-16264484D01*
X22431968Y-16254960D02*
X22412920Y-16264484D01*
X22412920Y-16264484D02*
X22374825Y-16264484D01*
X22374825Y-16264484D02*
X22355777Y-16254960D01*
X22355777Y-16254960D02*
X22346254Y-16235912D01*
X22346254Y-16235912D02*
X22346254Y-16159722D01*
X22346254Y-16159722D02*
X22355777Y-16140674D01*
X22355777Y-16140674D02*
X22374825Y-16131150D01*
X22374825Y-16131150D02*
X22412920Y-16131150D01*
X22412920Y-16131150D02*
X22431968Y-16140674D01*
X22431968Y-16140674D02*
X22441492Y-16159722D01*
X22441492Y-16159722D02*
X22441492Y-16178769D01*
X22441492Y-16178769D02*
X22346254Y-16197817D01*
X22612920Y-16264484D02*
X22612920Y-16064484D01*
X22612920Y-16254960D02*
X22593873Y-16264484D01*
X22593873Y-16264484D02*
X22555777Y-16264484D01*
X22555777Y-16264484D02*
X22536730Y-16254960D01*
X22536730Y-16254960D02*
X22527206Y-16245436D01*
X22527206Y-16245436D02*
X22517682Y-16226388D01*
X22517682Y-16226388D02*
X22517682Y-16169246D01*
X22517682Y-16169246D02*
X22527206Y-16150198D01*
X22527206Y-16150198D02*
X22536730Y-16140674D01*
X22536730Y-16140674D02*
X22555777Y-16131150D01*
X22555777Y-16131150D02*
X22593873Y-16131150D01*
X22593873Y-16131150D02*
X22612920Y-16140674D01*
X22689111Y-16340674D02*
X22698634Y-16331150D01*
X22698634Y-16331150D02*
X22717682Y-16302579D01*
X22717682Y-16302579D02*
X22727206Y-16283531D01*
X22727206Y-16283531D02*
X22736730Y-16254960D01*
X22736730Y-16254960D02*
X22746253Y-16207341D01*
X22746253Y-16207341D02*
X22746253Y-16169246D01*
X22746253Y-16169246D02*
X22736730Y-16121627D01*
X22736730Y-16121627D02*
X22727206Y-16093055D01*
X22727206Y-16093055D02*
X22717682Y-16074008D01*
X22717682Y-16074008D02*
X22698634Y-16045436D01*
X22698634Y-16045436D02*
X22689111Y-16035912D01*
D14*
X16072301Y-16491801D02*
X16072301Y-16382199D01*
X15962699Y-16382199D01*
X15962699Y-16491801D01*
X16072301Y-16491801D01*
D11*
X16460539Y-16528484D02*
X16346253Y-16528484D01*
X16403396Y-16528484D02*
X16403396Y-16328484D01*
X16403396Y-16328484D02*
X16384348Y-16357055D01*
X16384348Y-16357055D02*
X16365301Y-16376103D01*
X16365301Y-16376103D02*
X16346253Y-16385627D01*
X16546253Y-16509436D02*
X16555777Y-16518960D01*
X16555777Y-16518960D02*
X16546253Y-16528484D01*
X16546253Y-16528484D02*
X16536729Y-16518960D01*
X16536729Y-16518960D02*
X16546253Y-16509436D01*
X16546253Y-16509436D02*
X16546253Y-16528484D01*
X16736729Y-16328484D02*
X16641491Y-16328484D01*
X16641491Y-16328484D02*
X16631967Y-16423722D01*
X16631967Y-16423722D02*
X16641491Y-16414198D01*
X16641491Y-16414198D02*
X16660539Y-16404674D01*
X16660539Y-16404674D02*
X16708158Y-16404674D01*
X16708158Y-16404674D02*
X16727205Y-16414198D01*
X16727205Y-16414198D02*
X16736729Y-16423722D01*
X16736729Y-16423722D02*
X16746253Y-16442769D01*
X16746253Y-16442769D02*
X16746253Y-16490388D01*
X16746253Y-16490388D02*
X16736729Y-16509436D01*
X16736729Y-16509436D02*
X16727205Y-16518960D01*
X16727205Y-16518960D02*
X16708158Y-16528484D01*
X16708158Y-16528484D02*
X16660539Y-16528484D01*
X16660539Y-16528484D02*
X16641491Y-16518960D01*
X16641491Y-16518960D02*
X16631967Y-16509436D01*
X16927205Y-16328484D02*
X16831967Y-16328484D01*
X16831967Y-16328484D02*
X16822444Y-16423722D01*
X16822444Y-16423722D02*
X16831967Y-16414198D01*
X16831967Y-16414198D02*
X16851015Y-16404674D01*
X16851015Y-16404674D02*
X16898634Y-16404674D01*
X16898634Y-16404674D02*
X16917682Y-16414198D01*
X16917682Y-16414198D02*
X16927205Y-16423722D01*
X16927205Y-16423722D02*
X16936729Y-16442769D01*
X16936729Y-16442769D02*
X16936729Y-16490388D01*
X16936729Y-16490388D02*
X16927205Y-16509436D01*
X16927205Y-16509436D02*
X16917682Y-16518960D01*
X16917682Y-16518960D02*
X16898634Y-16528484D01*
X16898634Y-16528484D02*
X16851015Y-16528484D01*
X16851015Y-16528484D02*
X16831967Y-16518960D01*
X16831967Y-16518960D02*
X16822444Y-16509436D01*
X17060539Y-16328484D02*
X17079586Y-16328484D01*
X17079586Y-16328484D02*
X17098634Y-16338008D01*
X17098634Y-16338008D02*
X17108158Y-16347531D01*
X17108158Y-16347531D02*
X17117682Y-16366579D01*
X17117682Y-16366579D02*
X17127205Y-16404674D01*
X17127205Y-16404674D02*
X17127205Y-16452293D01*
X17127205Y-16452293D02*
X17117682Y-16490388D01*
X17117682Y-16490388D02*
X17108158Y-16509436D01*
X17108158Y-16509436D02*
X17098634Y-16518960D01*
X17098634Y-16518960D02*
X17079586Y-16528484D01*
X17079586Y-16528484D02*
X17060539Y-16528484D01*
X17060539Y-16528484D02*
X17041491Y-16518960D01*
X17041491Y-16518960D02*
X17031967Y-16509436D01*
X17031967Y-16509436D02*
X17022444Y-16490388D01*
X17022444Y-16490388D02*
X17012920Y-16452293D01*
X17012920Y-16452293D02*
X17012920Y-16404674D01*
X17012920Y-16404674D02*
X17022444Y-16366579D01*
X17022444Y-16366579D02*
X17031967Y-16347531D01*
X17031967Y-16347531D02*
X17041491Y-16338008D01*
X17041491Y-16338008D02*
X17060539Y-16328484D01*
X17212920Y-16528484D02*
X17212920Y-16395150D01*
X17212920Y-16414198D02*
X17222444Y-16404674D01*
X17222444Y-16404674D02*
X17241491Y-16395150D01*
X17241491Y-16395150D02*
X17270063Y-16395150D01*
X17270063Y-16395150D02*
X17289110Y-16404674D01*
X17289110Y-16404674D02*
X17298634Y-16423722D01*
X17298634Y-16423722D02*
X17298634Y-16528484D01*
X17298634Y-16423722D02*
X17308158Y-16404674D01*
X17308158Y-16404674D02*
X17327205Y-16395150D01*
X17327205Y-16395150D02*
X17355777Y-16395150D01*
X17355777Y-16395150D02*
X17374825Y-16404674D01*
X17374825Y-16404674D02*
X17384348Y-16423722D01*
X17384348Y-16423722D02*
X17384348Y-16528484D01*
X17479586Y-16528484D02*
X17479586Y-16395150D01*
X17479586Y-16414198D02*
X17489110Y-16404674D01*
X17489110Y-16404674D02*
X17508158Y-16395150D01*
X17508158Y-16395150D02*
X17536729Y-16395150D01*
X17536729Y-16395150D02*
X17555777Y-16404674D01*
X17555777Y-16404674D02*
X17565301Y-16423722D01*
X17565301Y-16423722D02*
X17565301Y-16528484D01*
X17565301Y-16423722D02*
X17574825Y-16404674D01*
X17574825Y-16404674D02*
X17593872Y-16395150D01*
X17593872Y-16395150D02*
X17622444Y-16395150D01*
X17622444Y-16395150D02*
X17641491Y-16404674D01*
X17641491Y-16404674D02*
X17651015Y-16423722D01*
X17651015Y-16423722D02*
X17651015Y-16528484D01*
X18041491Y-16318960D02*
X17870063Y-16576103D01*
X18298634Y-16328484D02*
X18317682Y-16328484D01*
X18317682Y-16328484D02*
X18336729Y-16338008D01*
X18336729Y-16338008D02*
X18346253Y-16347531D01*
X18346253Y-16347531D02*
X18355777Y-16366579D01*
X18355777Y-16366579D02*
X18365301Y-16404674D01*
X18365301Y-16404674D02*
X18365301Y-16452293D01*
X18365301Y-16452293D02*
X18355777Y-16490388D01*
X18355777Y-16490388D02*
X18346253Y-16509436D01*
X18346253Y-16509436D02*
X18336729Y-16518960D01*
X18336729Y-16518960D02*
X18317682Y-16528484D01*
X18317682Y-16528484D02*
X18298634Y-16528484D01*
X18298634Y-16528484D02*
X18279587Y-16518960D01*
X18279587Y-16518960D02*
X18270063Y-16509436D01*
X18270063Y-16509436D02*
X18260539Y-16490388D01*
X18260539Y-16490388D02*
X18251015Y-16452293D01*
X18251015Y-16452293D02*
X18251015Y-16404674D01*
X18251015Y-16404674D02*
X18260539Y-16366579D01*
X18260539Y-16366579D02*
X18270063Y-16347531D01*
X18270063Y-16347531D02*
X18279587Y-16338008D01*
X18279587Y-16338008D02*
X18298634Y-16328484D01*
X18451015Y-16509436D02*
X18460539Y-16518960D01*
X18460539Y-16518960D02*
X18451015Y-16528484D01*
X18451015Y-16528484D02*
X18441491Y-16518960D01*
X18441491Y-16518960D02*
X18451015Y-16509436D01*
X18451015Y-16509436D02*
X18451015Y-16528484D01*
X18584348Y-16328484D02*
X18603396Y-16328484D01*
X18603396Y-16328484D02*
X18622444Y-16338008D01*
X18622444Y-16338008D02*
X18631968Y-16347531D01*
X18631968Y-16347531D02*
X18641491Y-16366579D01*
X18641491Y-16366579D02*
X18651015Y-16404674D01*
X18651015Y-16404674D02*
X18651015Y-16452293D01*
X18651015Y-16452293D02*
X18641491Y-16490388D01*
X18641491Y-16490388D02*
X18631968Y-16509436D01*
X18631968Y-16509436D02*
X18622444Y-16518960D01*
X18622444Y-16518960D02*
X18603396Y-16528484D01*
X18603396Y-16528484D02*
X18584348Y-16528484D01*
X18584348Y-16528484D02*
X18565301Y-16518960D01*
X18565301Y-16518960D02*
X18555777Y-16509436D01*
X18555777Y-16509436D02*
X18546253Y-16490388D01*
X18546253Y-16490388D02*
X18536729Y-16452293D01*
X18536729Y-16452293D02*
X18536729Y-16404674D01*
X18536729Y-16404674D02*
X18546253Y-16366579D01*
X18546253Y-16366579D02*
X18555777Y-16347531D01*
X18555777Y-16347531D02*
X18565301Y-16338008D01*
X18565301Y-16338008D02*
X18584348Y-16328484D01*
X18822444Y-16328484D02*
X18784348Y-16328484D01*
X18784348Y-16328484D02*
X18765301Y-16338008D01*
X18765301Y-16338008D02*
X18755777Y-16347531D01*
X18755777Y-16347531D02*
X18736729Y-16376103D01*
X18736729Y-16376103D02*
X18727206Y-16414198D01*
X18727206Y-16414198D02*
X18727206Y-16490388D01*
X18727206Y-16490388D02*
X18736729Y-16509436D01*
X18736729Y-16509436D02*
X18746253Y-16518960D01*
X18746253Y-16518960D02*
X18765301Y-16528484D01*
X18765301Y-16528484D02*
X18803396Y-16528484D01*
X18803396Y-16528484D02*
X18822444Y-16518960D01*
X18822444Y-16518960D02*
X18831968Y-16509436D01*
X18831968Y-16509436D02*
X18841491Y-16490388D01*
X18841491Y-16490388D02*
X18841491Y-16442769D01*
X18841491Y-16442769D02*
X18831968Y-16423722D01*
X18831968Y-16423722D02*
X18822444Y-16414198D01*
X18822444Y-16414198D02*
X18803396Y-16404674D01*
X18803396Y-16404674D02*
X18765301Y-16404674D01*
X18765301Y-16404674D02*
X18746253Y-16414198D01*
X18746253Y-16414198D02*
X18736729Y-16423722D01*
X18736729Y-16423722D02*
X18727206Y-16442769D01*
X19031968Y-16528484D02*
X18917682Y-16528484D01*
X18974825Y-16528484D02*
X18974825Y-16328484D01*
X18974825Y-16328484D02*
X18955777Y-16357055D01*
X18955777Y-16357055D02*
X18936729Y-16376103D01*
X18936729Y-16376103D02*
X18917682Y-16385627D01*
X19155777Y-16328484D02*
X19174825Y-16328484D01*
X19174825Y-16328484D02*
X19193872Y-16338008D01*
X19193872Y-16338008D02*
X19203396Y-16347531D01*
X19203396Y-16347531D02*
X19212920Y-16366579D01*
X19212920Y-16366579D02*
X19222444Y-16404674D01*
X19222444Y-16404674D02*
X19222444Y-16452293D01*
X19222444Y-16452293D02*
X19212920Y-16490388D01*
X19212920Y-16490388D02*
X19203396Y-16509436D01*
X19203396Y-16509436D02*
X19193872Y-16518960D01*
X19193872Y-16518960D02*
X19174825Y-16528484D01*
X19174825Y-16528484D02*
X19155777Y-16528484D01*
X19155777Y-16528484D02*
X19136729Y-16518960D01*
X19136729Y-16518960D02*
X19127206Y-16509436D01*
X19127206Y-16509436D02*
X19117682Y-16490388D01*
X19117682Y-16490388D02*
X19108158Y-16452293D01*
X19108158Y-16452293D02*
X19108158Y-16404674D01*
X19108158Y-16404674D02*
X19117682Y-16366579D01*
X19117682Y-16366579D02*
X19127206Y-16347531D01*
X19127206Y-16347531D02*
X19136729Y-16338008D01*
X19136729Y-16338008D02*
X19155777Y-16328484D01*
X19298634Y-16328484D02*
X19298634Y-16366579D01*
X19374825Y-16328484D02*
X19374825Y-16366579D01*
X19670063Y-16604674D02*
X19660539Y-16595150D01*
X19660539Y-16595150D02*
X19641491Y-16566579D01*
X19641491Y-16566579D02*
X19631968Y-16547531D01*
X19631968Y-16547531D02*
X19622444Y-16518960D01*
X19622444Y-16518960D02*
X19612920Y-16471341D01*
X19612920Y-16471341D02*
X19612920Y-16433246D01*
X19612920Y-16433246D02*
X19622444Y-16385627D01*
X19622444Y-16385627D02*
X19631968Y-16357055D01*
X19631968Y-16357055D02*
X19641491Y-16338008D01*
X19641491Y-16338008D02*
X19660539Y-16309436D01*
X19660539Y-16309436D02*
X19670063Y-16299912D01*
X19851015Y-16528484D02*
X19736730Y-16528484D01*
X19793872Y-16528484D02*
X19793872Y-16328484D01*
X19793872Y-16328484D02*
X19774825Y-16357055D01*
X19774825Y-16357055D02*
X19755777Y-16376103D01*
X19755777Y-16376103D02*
X19736730Y-16385627D01*
X20079587Y-16518960D02*
X20098634Y-16528484D01*
X20098634Y-16528484D02*
X20136730Y-16528484D01*
X20136730Y-16528484D02*
X20155777Y-16518960D01*
X20155777Y-16518960D02*
X20165301Y-16499912D01*
X20165301Y-16499912D02*
X20165301Y-16490388D01*
X20165301Y-16490388D02*
X20155777Y-16471341D01*
X20155777Y-16471341D02*
X20136730Y-16461817D01*
X20136730Y-16461817D02*
X20108158Y-16461817D01*
X20108158Y-16461817D02*
X20089111Y-16452293D01*
X20089111Y-16452293D02*
X20079587Y-16433246D01*
X20079587Y-16433246D02*
X20079587Y-16423722D01*
X20079587Y-16423722D02*
X20089111Y-16404674D01*
X20089111Y-16404674D02*
X20108158Y-16395150D01*
X20108158Y-16395150D02*
X20136730Y-16395150D01*
X20136730Y-16395150D02*
X20155777Y-16404674D01*
X20279587Y-16528484D02*
X20260539Y-16518960D01*
X20260539Y-16518960D02*
X20251015Y-16499912D01*
X20251015Y-16499912D02*
X20251015Y-16328484D01*
X20384349Y-16528484D02*
X20365301Y-16518960D01*
X20365301Y-16518960D02*
X20355777Y-16509436D01*
X20355777Y-16509436D02*
X20346253Y-16490388D01*
X20346253Y-16490388D02*
X20346253Y-16433246D01*
X20346253Y-16433246D02*
X20355777Y-16414198D01*
X20355777Y-16414198D02*
X20365301Y-16404674D01*
X20365301Y-16404674D02*
X20384349Y-16395150D01*
X20384349Y-16395150D02*
X20412920Y-16395150D01*
X20412920Y-16395150D02*
X20431968Y-16404674D01*
X20431968Y-16404674D02*
X20441492Y-16414198D01*
X20441492Y-16414198D02*
X20451015Y-16433246D01*
X20451015Y-16433246D02*
X20451015Y-16490388D01*
X20451015Y-16490388D02*
X20441492Y-16509436D01*
X20441492Y-16509436D02*
X20431968Y-16518960D01*
X20431968Y-16518960D02*
X20412920Y-16528484D01*
X20412920Y-16528484D02*
X20384349Y-16528484D01*
X20508158Y-16395150D02*
X20584349Y-16395150D01*
X20536730Y-16328484D02*
X20536730Y-16499912D01*
X20536730Y-16499912D02*
X20546253Y-16518960D01*
X20546253Y-16518960D02*
X20565301Y-16528484D01*
X20565301Y-16528484D02*
X20584349Y-16528484D01*
X20631968Y-16604674D02*
X20641492Y-16595150D01*
X20641492Y-16595150D02*
X20660539Y-16566579D01*
X20660539Y-16566579D02*
X20670063Y-16547531D01*
X20670063Y-16547531D02*
X20679587Y-16518960D01*
X20679587Y-16518960D02*
X20689111Y-16471341D01*
X20689111Y-16471341D02*
X20689111Y-16433246D01*
X20689111Y-16433246D02*
X20679587Y-16385627D01*
X20679587Y-16385627D02*
X20670063Y-16357055D01*
X20670063Y-16357055D02*
X20660539Y-16338008D01*
X20660539Y-16338008D02*
X20641492Y-16309436D01*
X20641492Y-16309436D02*
X20631968Y-16299912D01*
X20993873Y-16604674D02*
X20984349Y-16595150D01*
X20984349Y-16595150D02*
X20965301Y-16566579D01*
X20965301Y-16566579D02*
X20955777Y-16547531D01*
X20955777Y-16547531D02*
X20946253Y-16518960D01*
X20946253Y-16518960D02*
X20936730Y-16471341D01*
X20936730Y-16471341D02*
X20936730Y-16433246D01*
X20936730Y-16433246D02*
X20946253Y-16385627D01*
X20946253Y-16385627D02*
X20955777Y-16357055D01*
X20955777Y-16357055D02*
X20965301Y-16338008D01*
X20965301Y-16338008D02*
X20984349Y-16309436D01*
X20984349Y-16309436D02*
X20993873Y-16299912D01*
X21070063Y-16395150D02*
X21070063Y-16528484D01*
X21070063Y-16414198D02*
X21079587Y-16404674D01*
X21079587Y-16404674D02*
X21098634Y-16395150D01*
X21098634Y-16395150D02*
X21127206Y-16395150D01*
X21127206Y-16395150D02*
X21146253Y-16404674D01*
X21146253Y-16404674D02*
X21155777Y-16423722D01*
X21155777Y-16423722D02*
X21155777Y-16528484D01*
X21279587Y-16528484D02*
X21260539Y-16518960D01*
X21260539Y-16518960D02*
X21251015Y-16509436D01*
X21251015Y-16509436D02*
X21241492Y-16490388D01*
X21241492Y-16490388D02*
X21241492Y-16433246D01*
X21241492Y-16433246D02*
X21251015Y-16414198D01*
X21251015Y-16414198D02*
X21260539Y-16404674D01*
X21260539Y-16404674D02*
X21279587Y-16395150D01*
X21279587Y-16395150D02*
X21308158Y-16395150D01*
X21308158Y-16395150D02*
X21327206Y-16404674D01*
X21327206Y-16404674D02*
X21336730Y-16414198D01*
X21336730Y-16414198D02*
X21346253Y-16433246D01*
X21346253Y-16433246D02*
X21346253Y-16490388D01*
X21346253Y-16490388D02*
X21336730Y-16509436D01*
X21336730Y-16509436D02*
X21327206Y-16518960D01*
X21327206Y-16518960D02*
X21308158Y-16528484D01*
X21308158Y-16528484D02*
X21279587Y-16528484D01*
X21403396Y-16395150D02*
X21479587Y-16395150D01*
X21431968Y-16328484D02*
X21431968Y-16499912D01*
X21431968Y-16499912D02*
X21441492Y-16518960D01*
X21441492Y-16518960D02*
X21460539Y-16528484D01*
X21460539Y-16528484D02*
X21479587Y-16528484D01*
X21698634Y-16395150D02*
X21698634Y-16595150D01*
X21698634Y-16404674D02*
X21717682Y-16395150D01*
X21717682Y-16395150D02*
X21755777Y-16395150D01*
X21755777Y-16395150D02*
X21774825Y-16404674D01*
X21774825Y-16404674D02*
X21784349Y-16414198D01*
X21784349Y-16414198D02*
X21793873Y-16433246D01*
X21793873Y-16433246D02*
X21793873Y-16490388D01*
X21793873Y-16490388D02*
X21784349Y-16509436D01*
X21784349Y-16509436D02*
X21774825Y-16518960D01*
X21774825Y-16518960D02*
X21755777Y-16528484D01*
X21755777Y-16528484D02*
X21717682Y-16528484D01*
X21717682Y-16528484D02*
X21698634Y-16518960D01*
X21908158Y-16528484D02*
X21889111Y-16518960D01*
X21889111Y-16518960D02*
X21879587Y-16499912D01*
X21879587Y-16499912D02*
X21879587Y-16328484D01*
X22070063Y-16528484D02*
X22070063Y-16423722D01*
X22070063Y-16423722D02*
X22060539Y-16404674D01*
X22060539Y-16404674D02*
X22041492Y-16395150D01*
X22041492Y-16395150D02*
X22003396Y-16395150D01*
X22003396Y-16395150D02*
X21984349Y-16404674D01*
X22070063Y-16518960D02*
X22051015Y-16528484D01*
X22051015Y-16528484D02*
X22003396Y-16528484D01*
X22003396Y-16528484D02*
X21984349Y-16518960D01*
X21984349Y-16518960D02*
X21974825Y-16499912D01*
X21974825Y-16499912D02*
X21974825Y-16480865D01*
X21974825Y-16480865D02*
X21984349Y-16461817D01*
X21984349Y-16461817D02*
X22003396Y-16452293D01*
X22003396Y-16452293D02*
X22051015Y-16452293D01*
X22051015Y-16452293D02*
X22070063Y-16442769D01*
X22136730Y-16395150D02*
X22212920Y-16395150D01*
X22165301Y-16328484D02*
X22165301Y-16499912D01*
X22165301Y-16499912D02*
X22174825Y-16518960D01*
X22174825Y-16518960D02*
X22193873Y-16528484D01*
X22193873Y-16528484D02*
X22212920Y-16528484D01*
X22355777Y-16518960D02*
X22336730Y-16528484D01*
X22336730Y-16528484D02*
X22298634Y-16528484D01*
X22298634Y-16528484D02*
X22279587Y-16518960D01*
X22279587Y-16518960D02*
X22270063Y-16499912D01*
X22270063Y-16499912D02*
X22270063Y-16423722D01*
X22270063Y-16423722D02*
X22279587Y-16404674D01*
X22279587Y-16404674D02*
X22298634Y-16395150D01*
X22298634Y-16395150D02*
X22336730Y-16395150D01*
X22336730Y-16395150D02*
X22355777Y-16404674D01*
X22355777Y-16404674D02*
X22365301Y-16423722D01*
X22365301Y-16423722D02*
X22365301Y-16442769D01*
X22365301Y-16442769D02*
X22270063Y-16461817D01*
X22536730Y-16528484D02*
X22536730Y-16328484D01*
X22536730Y-16518960D02*
X22517682Y-16528484D01*
X22517682Y-16528484D02*
X22479587Y-16528484D01*
X22479587Y-16528484D02*
X22460539Y-16518960D01*
X22460539Y-16518960D02*
X22451015Y-16509436D01*
X22451015Y-16509436D02*
X22441492Y-16490388D01*
X22441492Y-16490388D02*
X22441492Y-16433246D01*
X22441492Y-16433246D02*
X22451015Y-16414198D01*
X22451015Y-16414198D02*
X22460539Y-16404674D01*
X22460539Y-16404674D02*
X22479587Y-16395150D01*
X22479587Y-16395150D02*
X22517682Y-16395150D01*
X22517682Y-16395150D02*
X22536730Y-16404674D01*
X22612920Y-16604674D02*
X22622444Y-16595150D01*
X22622444Y-16595150D02*
X22641492Y-16566579D01*
X22641492Y-16566579D02*
X22651015Y-16547531D01*
X22651015Y-16547531D02*
X22660539Y-16518960D01*
X22660539Y-16518960D02*
X22670063Y-16471341D01*
X22670063Y-16471341D02*
X22670063Y-16433246D01*
X22670063Y-16433246D02*
X22660539Y-16385627D01*
X22660539Y-16385627D02*
X22651015Y-16357055D01*
X22651015Y-16357055D02*
X22641492Y-16338008D01*
X22641492Y-16338008D02*
X22622444Y-16309436D01*
X22622444Y-16309436D02*
X22612920Y-16299912D01*
X15995000Y-16812000D02*
X16095000Y-16712000D01*
X15995000Y-16612000D01*
X15895000Y-16712000D01*
X15995000Y-16812000D01*
X16346253Y-16622531D02*
X16355777Y-16613008D01*
X16355777Y-16613008D02*
X16374824Y-16603484D01*
X16374824Y-16603484D02*
X16422443Y-16603484D01*
X16422443Y-16603484D02*
X16441491Y-16613008D01*
X16441491Y-16613008D02*
X16451015Y-16622531D01*
X16451015Y-16622531D02*
X16460539Y-16641579D01*
X16460539Y-16641579D02*
X16460539Y-16660627D01*
X16460539Y-16660627D02*
X16451015Y-16689198D01*
X16451015Y-16689198D02*
X16336729Y-16803484D01*
X16336729Y-16803484D02*
X16460539Y-16803484D01*
X16546253Y-16784436D02*
X16555777Y-16793960D01*
X16555777Y-16793960D02*
X16546253Y-16803484D01*
X16546253Y-16803484D02*
X16536729Y-16793960D01*
X16536729Y-16793960D02*
X16546253Y-16784436D01*
X16546253Y-16784436D02*
X16546253Y-16803484D01*
X16679586Y-16603484D02*
X16698634Y-16603484D01*
X16698634Y-16603484D02*
X16717682Y-16613008D01*
X16717682Y-16613008D02*
X16727205Y-16622531D01*
X16727205Y-16622531D02*
X16736729Y-16641579D01*
X16736729Y-16641579D02*
X16746253Y-16679674D01*
X16746253Y-16679674D02*
X16746253Y-16727293D01*
X16746253Y-16727293D02*
X16736729Y-16765388D01*
X16736729Y-16765388D02*
X16727205Y-16784436D01*
X16727205Y-16784436D02*
X16717682Y-16793960D01*
X16717682Y-16793960D02*
X16698634Y-16803484D01*
X16698634Y-16803484D02*
X16679586Y-16803484D01*
X16679586Y-16803484D02*
X16660539Y-16793960D01*
X16660539Y-16793960D02*
X16651015Y-16784436D01*
X16651015Y-16784436D02*
X16641491Y-16765388D01*
X16641491Y-16765388D02*
X16631967Y-16727293D01*
X16631967Y-16727293D02*
X16631967Y-16679674D01*
X16631967Y-16679674D02*
X16641491Y-16641579D01*
X16641491Y-16641579D02*
X16651015Y-16622531D01*
X16651015Y-16622531D02*
X16660539Y-16613008D01*
X16660539Y-16613008D02*
X16679586Y-16603484D01*
X16927205Y-16603484D02*
X16831967Y-16603484D01*
X16831967Y-16603484D02*
X16822444Y-16698722D01*
X16822444Y-16698722D02*
X16831967Y-16689198D01*
X16831967Y-16689198D02*
X16851015Y-16679674D01*
X16851015Y-16679674D02*
X16898634Y-16679674D01*
X16898634Y-16679674D02*
X16917682Y-16689198D01*
X16917682Y-16689198D02*
X16927205Y-16698722D01*
X16927205Y-16698722D02*
X16936729Y-16717769D01*
X16936729Y-16717769D02*
X16936729Y-16765388D01*
X16936729Y-16765388D02*
X16927205Y-16784436D01*
X16927205Y-16784436D02*
X16917682Y-16793960D01*
X16917682Y-16793960D02*
X16898634Y-16803484D01*
X16898634Y-16803484D02*
X16851015Y-16803484D01*
X16851015Y-16803484D02*
X16831967Y-16793960D01*
X16831967Y-16793960D02*
X16822444Y-16784436D01*
X17060539Y-16603484D02*
X17079586Y-16603484D01*
X17079586Y-16603484D02*
X17098634Y-16613008D01*
X17098634Y-16613008D02*
X17108158Y-16622531D01*
X17108158Y-16622531D02*
X17117682Y-16641579D01*
X17117682Y-16641579D02*
X17127205Y-16679674D01*
X17127205Y-16679674D02*
X17127205Y-16727293D01*
X17127205Y-16727293D02*
X17117682Y-16765388D01*
X17117682Y-16765388D02*
X17108158Y-16784436D01*
X17108158Y-16784436D02*
X17098634Y-16793960D01*
X17098634Y-16793960D02*
X17079586Y-16803484D01*
X17079586Y-16803484D02*
X17060539Y-16803484D01*
X17060539Y-16803484D02*
X17041491Y-16793960D01*
X17041491Y-16793960D02*
X17031967Y-16784436D01*
X17031967Y-16784436D02*
X17022444Y-16765388D01*
X17022444Y-16765388D02*
X17012920Y-16727293D01*
X17012920Y-16727293D02*
X17012920Y-16679674D01*
X17012920Y-16679674D02*
X17022444Y-16641579D01*
X17022444Y-16641579D02*
X17031967Y-16622531D01*
X17031967Y-16622531D02*
X17041491Y-16613008D01*
X17041491Y-16613008D02*
X17060539Y-16603484D01*
X17212920Y-16803484D02*
X17212920Y-16670150D01*
X17212920Y-16689198D02*
X17222444Y-16679674D01*
X17222444Y-16679674D02*
X17241491Y-16670150D01*
X17241491Y-16670150D02*
X17270063Y-16670150D01*
X17270063Y-16670150D02*
X17289110Y-16679674D01*
X17289110Y-16679674D02*
X17298634Y-16698722D01*
X17298634Y-16698722D02*
X17298634Y-16803484D01*
X17298634Y-16698722D02*
X17308158Y-16679674D01*
X17308158Y-16679674D02*
X17327205Y-16670150D01*
X17327205Y-16670150D02*
X17355777Y-16670150D01*
X17355777Y-16670150D02*
X17374825Y-16679674D01*
X17374825Y-16679674D02*
X17384348Y-16698722D01*
X17384348Y-16698722D02*
X17384348Y-16803484D01*
X17479586Y-16803484D02*
X17479586Y-16670150D01*
X17479586Y-16689198D02*
X17489110Y-16679674D01*
X17489110Y-16679674D02*
X17508158Y-16670150D01*
X17508158Y-16670150D02*
X17536729Y-16670150D01*
X17536729Y-16670150D02*
X17555777Y-16679674D01*
X17555777Y-16679674D02*
X17565301Y-16698722D01*
X17565301Y-16698722D02*
X17565301Y-16803484D01*
X17565301Y-16698722D02*
X17574825Y-16679674D01*
X17574825Y-16679674D02*
X17593872Y-16670150D01*
X17593872Y-16670150D02*
X17622444Y-16670150D01*
X17622444Y-16670150D02*
X17641491Y-16679674D01*
X17641491Y-16679674D02*
X17651015Y-16698722D01*
X17651015Y-16698722D02*
X17651015Y-16803484D01*
X18041491Y-16593960D02*
X17870063Y-16851103D01*
X18298634Y-16603484D02*
X18317682Y-16603484D01*
X18317682Y-16603484D02*
X18336729Y-16613008D01*
X18336729Y-16613008D02*
X18346253Y-16622531D01*
X18346253Y-16622531D02*
X18355777Y-16641579D01*
X18355777Y-16641579D02*
X18365301Y-16679674D01*
X18365301Y-16679674D02*
X18365301Y-16727293D01*
X18365301Y-16727293D02*
X18355777Y-16765388D01*
X18355777Y-16765388D02*
X18346253Y-16784436D01*
X18346253Y-16784436D02*
X18336729Y-16793960D01*
X18336729Y-16793960D02*
X18317682Y-16803484D01*
X18317682Y-16803484D02*
X18298634Y-16803484D01*
X18298634Y-16803484D02*
X18279587Y-16793960D01*
X18279587Y-16793960D02*
X18270063Y-16784436D01*
X18270063Y-16784436D02*
X18260539Y-16765388D01*
X18260539Y-16765388D02*
X18251015Y-16727293D01*
X18251015Y-16727293D02*
X18251015Y-16679674D01*
X18251015Y-16679674D02*
X18260539Y-16641579D01*
X18260539Y-16641579D02*
X18270063Y-16622531D01*
X18270063Y-16622531D02*
X18279587Y-16613008D01*
X18279587Y-16613008D02*
X18298634Y-16603484D01*
X18451015Y-16784436D02*
X18460539Y-16793960D01*
X18460539Y-16793960D02*
X18451015Y-16803484D01*
X18451015Y-16803484D02*
X18441491Y-16793960D01*
X18441491Y-16793960D02*
X18451015Y-16784436D01*
X18451015Y-16784436D02*
X18451015Y-16803484D01*
X18584348Y-16603484D02*
X18603396Y-16603484D01*
X18603396Y-16603484D02*
X18622444Y-16613008D01*
X18622444Y-16613008D02*
X18631968Y-16622531D01*
X18631968Y-16622531D02*
X18641491Y-16641579D01*
X18641491Y-16641579D02*
X18651015Y-16679674D01*
X18651015Y-16679674D02*
X18651015Y-16727293D01*
X18651015Y-16727293D02*
X18641491Y-16765388D01*
X18641491Y-16765388D02*
X18631968Y-16784436D01*
X18631968Y-16784436D02*
X18622444Y-16793960D01*
X18622444Y-16793960D02*
X18603396Y-16803484D01*
X18603396Y-16803484D02*
X18584348Y-16803484D01*
X18584348Y-16803484D02*
X18565301Y-16793960D01*
X18565301Y-16793960D02*
X18555777Y-16784436D01*
X18555777Y-16784436D02*
X18546253Y-16765388D01*
X18546253Y-16765388D02*
X18536729Y-16727293D01*
X18536729Y-16727293D02*
X18536729Y-16679674D01*
X18536729Y-16679674D02*
X18546253Y-16641579D01*
X18546253Y-16641579D02*
X18555777Y-16622531D01*
X18555777Y-16622531D02*
X18565301Y-16613008D01*
X18565301Y-16613008D02*
X18584348Y-16603484D01*
X18765301Y-16689198D02*
X18746253Y-16679674D01*
X18746253Y-16679674D02*
X18736729Y-16670150D01*
X18736729Y-16670150D02*
X18727206Y-16651103D01*
X18727206Y-16651103D02*
X18727206Y-16641579D01*
X18727206Y-16641579D02*
X18736729Y-16622531D01*
X18736729Y-16622531D02*
X18746253Y-16613008D01*
X18746253Y-16613008D02*
X18765301Y-16603484D01*
X18765301Y-16603484D02*
X18803396Y-16603484D01*
X18803396Y-16603484D02*
X18822444Y-16613008D01*
X18822444Y-16613008D02*
X18831968Y-16622531D01*
X18831968Y-16622531D02*
X18841491Y-16641579D01*
X18841491Y-16641579D02*
X18841491Y-16651103D01*
X18841491Y-16651103D02*
X18831968Y-16670150D01*
X18831968Y-16670150D02*
X18822444Y-16679674D01*
X18822444Y-16679674D02*
X18803396Y-16689198D01*
X18803396Y-16689198D02*
X18765301Y-16689198D01*
X18765301Y-16689198D02*
X18746253Y-16698722D01*
X18746253Y-16698722D02*
X18736729Y-16708246D01*
X18736729Y-16708246D02*
X18727206Y-16727293D01*
X18727206Y-16727293D02*
X18727206Y-16765388D01*
X18727206Y-16765388D02*
X18736729Y-16784436D01*
X18736729Y-16784436D02*
X18746253Y-16793960D01*
X18746253Y-16793960D02*
X18765301Y-16803484D01*
X18765301Y-16803484D02*
X18803396Y-16803484D01*
X18803396Y-16803484D02*
X18822444Y-16793960D01*
X18822444Y-16793960D02*
X18831968Y-16784436D01*
X18831968Y-16784436D02*
X18841491Y-16765388D01*
X18841491Y-16765388D02*
X18841491Y-16727293D01*
X18841491Y-16727293D02*
X18831968Y-16708246D01*
X18831968Y-16708246D02*
X18822444Y-16698722D01*
X18822444Y-16698722D02*
X18803396Y-16689198D01*
X18965301Y-16603484D02*
X18984349Y-16603484D01*
X18984349Y-16603484D02*
X19003396Y-16613008D01*
X19003396Y-16613008D02*
X19012920Y-16622531D01*
X19012920Y-16622531D02*
X19022444Y-16641579D01*
X19022444Y-16641579D02*
X19031968Y-16679674D01*
X19031968Y-16679674D02*
X19031968Y-16727293D01*
X19031968Y-16727293D02*
X19022444Y-16765388D01*
X19022444Y-16765388D02*
X19012920Y-16784436D01*
X19012920Y-16784436D02*
X19003396Y-16793960D01*
X19003396Y-16793960D02*
X18984349Y-16803484D01*
X18984349Y-16803484D02*
X18965301Y-16803484D01*
X18965301Y-16803484D02*
X18946253Y-16793960D01*
X18946253Y-16793960D02*
X18936729Y-16784436D01*
X18936729Y-16784436D02*
X18927206Y-16765388D01*
X18927206Y-16765388D02*
X18917682Y-16727293D01*
X18917682Y-16727293D02*
X18917682Y-16679674D01*
X18917682Y-16679674D02*
X18927206Y-16641579D01*
X18927206Y-16641579D02*
X18936729Y-16622531D01*
X18936729Y-16622531D02*
X18946253Y-16613008D01*
X18946253Y-16613008D02*
X18965301Y-16603484D01*
X19098634Y-16603484D02*
X19231968Y-16603484D01*
X19231968Y-16603484D02*
X19146253Y-16803484D01*
X19298634Y-16603484D02*
X19298634Y-16641579D01*
X19374825Y-16603484D02*
X19374825Y-16641579D01*
X19670063Y-16879674D02*
X19660539Y-16870150D01*
X19660539Y-16870150D02*
X19641491Y-16841579D01*
X19641491Y-16841579D02*
X19631968Y-16822531D01*
X19631968Y-16822531D02*
X19622444Y-16793960D01*
X19622444Y-16793960D02*
X19612920Y-16746341D01*
X19612920Y-16746341D02*
X19612920Y-16708246D01*
X19612920Y-16708246D02*
X19622444Y-16660627D01*
X19622444Y-16660627D02*
X19631968Y-16632055D01*
X19631968Y-16632055D02*
X19641491Y-16613008D01*
X19641491Y-16613008D02*
X19660539Y-16584436D01*
X19660539Y-16584436D02*
X19670063Y-16574912D01*
X19851015Y-16803484D02*
X19736730Y-16803484D01*
X19793872Y-16803484D02*
X19793872Y-16603484D01*
X19793872Y-16603484D02*
X19774825Y-16632055D01*
X19774825Y-16632055D02*
X19755777Y-16651103D01*
X19755777Y-16651103D02*
X19736730Y-16660627D01*
X20089111Y-16803484D02*
X20089111Y-16603484D01*
X20174825Y-16803484D02*
X20174825Y-16698722D01*
X20174825Y-16698722D02*
X20165301Y-16679674D01*
X20165301Y-16679674D02*
X20146253Y-16670150D01*
X20146253Y-16670150D02*
X20117682Y-16670150D01*
X20117682Y-16670150D02*
X20098634Y-16679674D01*
X20098634Y-16679674D02*
X20089111Y-16689198D01*
X20298634Y-16803484D02*
X20279587Y-16793960D01*
X20279587Y-16793960D02*
X20270063Y-16784436D01*
X20270063Y-16784436D02*
X20260539Y-16765388D01*
X20260539Y-16765388D02*
X20260539Y-16708246D01*
X20260539Y-16708246D02*
X20270063Y-16689198D01*
X20270063Y-16689198D02*
X20279587Y-16679674D01*
X20279587Y-16679674D02*
X20298634Y-16670150D01*
X20298634Y-16670150D02*
X20327206Y-16670150D01*
X20327206Y-16670150D02*
X20346253Y-16679674D01*
X20346253Y-16679674D02*
X20355777Y-16689198D01*
X20355777Y-16689198D02*
X20365301Y-16708246D01*
X20365301Y-16708246D02*
X20365301Y-16765388D01*
X20365301Y-16765388D02*
X20355777Y-16784436D01*
X20355777Y-16784436D02*
X20346253Y-16793960D01*
X20346253Y-16793960D02*
X20327206Y-16803484D01*
X20327206Y-16803484D02*
X20298634Y-16803484D01*
X20479587Y-16803484D02*
X20460539Y-16793960D01*
X20460539Y-16793960D02*
X20451015Y-16774912D01*
X20451015Y-16774912D02*
X20451015Y-16603484D01*
X20631968Y-16793960D02*
X20612920Y-16803484D01*
X20612920Y-16803484D02*
X20574825Y-16803484D01*
X20574825Y-16803484D02*
X20555777Y-16793960D01*
X20555777Y-16793960D02*
X20546253Y-16774912D01*
X20546253Y-16774912D02*
X20546253Y-16698722D01*
X20546253Y-16698722D02*
X20555777Y-16679674D01*
X20555777Y-16679674D02*
X20574825Y-16670150D01*
X20574825Y-16670150D02*
X20612920Y-16670150D01*
X20612920Y-16670150D02*
X20631968Y-16679674D01*
X20631968Y-16679674D02*
X20641492Y-16698722D01*
X20641492Y-16698722D02*
X20641492Y-16717769D01*
X20641492Y-16717769D02*
X20546253Y-16736817D01*
X20708158Y-16879674D02*
X20717682Y-16870150D01*
X20717682Y-16870150D02*
X20736730Y-16841579D01*
X20736730Y-16841579D02*
X20746253Y-16822531D01*
X20746253Y-16822531D02*
X20755777Y-16793960D01*
X20755777Y-16793960D02*
X20765301Y-16746341D01*
X20765301Y-16746341D02*
X20765301Y-16708246D01*
X20765301Y-16708246D02*
X20755777Y-16660627D01*
X20755777Y-16660627D02*
X20746253Y-16632055D01*
X20746253Y-16632055D02*
X20736730Y-16613008D01*
X20736730Y-16613008D02*
X20717682Y-16584436D01*
X20717682Y-16584436D02*
X20708158Y-16574912D01*
X21070063Y-16879674D02*
X21060539Y-16870150D01*
X21060539Y-16870150D02*
X21041492Y-16841579D01*
X21041492Y-16841579D02*
X21031968Y-16822531D01*
X21031968Y-16822531D02*
X21022444Y-16793960D01*
X21022444Y-16793960D02*
X21012920Y-16746341D01*
X21012920Y-16746341D02*
X21012920Y-16708246D01*
X21012920Y-16708246D02*
X21022444Y-16660627D01*
X21022444Y-16660627D02*
X21031968Y-16632055D01*
X21031968Y-16632055D02*
X21041492Y-16613008D01*
X21041492Y-16613008D02*
X21060539Y-16584436D01*
X21060539Y-16584436D02*
X21070063Y-16574912D01*
X21146253Y-16670150D02*
X21146253Y-16803484D01*
X21146253Y-16689198D02*
X21155777Y-16679674D01*
X21155777Y-16679674D02*
X21174825Y-16670150D01*
X21174825Y-16670150D02*
X21203396Y-16670150D01*
X21203396Y-16670150D02*
X21222444Y-16679674D01*
X21222444Y-16679674D02*
X21231968Y-16698722D01*
X21231968Y-16698722D02*
X21231968Y-16803484D01*
X21355777Y-16803484D02*
X21336730Y-16793960D01*
X21336730Y-16793960D02*
X21327206Y-16784436D01*
X21327206Y-16784436D02*
X21317682Y-16765388D01*
X21317682Y-16765388D02*
X21317682Y-16708246D01*
X21317682Y-16708246D02*
X21327206Y-16689198D01*
X21327206Y-16689198D02*
X21336730Y-16679674D01*
X21336730Y-16679674D02*
X21355777Y-16670150D01*
X21355777Y-16670150D02*
X21384349Y-16670150D01*
X21384349Y-16670150D02*
X21403396Y-16679674D01*
X21403396Y-16679674D02*
X21412920Y-16689198D01*
X21412920Y-16689198D02*
X21422444Y-16708246D01*
X21422444Y-16708246D02*
X21422444Y-16765388D01*
X21422444Y-16765388D02*
X21412920Y-16784436D01*
X21412920Y-16784436D02*
X21403396Y-16793960D01*
X21403396Y-16793960D02*
X21384349Y-16803484D01*
X21384349Y-16803484D02*
X21355777Y-16803484D01*
X21479587Y-16670150D02*
X21555777Y-16670150D01*
X21508158Y-16603484D02*
X21508158Y-16774912D01*
X21508158Y-16774912D02*
X21517682Y-16793960D01*
X21517682Y-16793960D02*
X21536730Y-16803484D01*
X21536730Y-16803484D02*
X21555777Y-16803484D01*
X21774825Y-16670150D02*
X21774825Y-16870150D01*
X21774825Y-16679674D02*
X21793873Y-16670150D01*
X21793873Y-16670150D02*
X21831968Y-16670150D01*
X21831968Y-16670150D02*
X21851015Y-16679674D01*
X21851015Y-16679674D02*
X21860539Y-16689198D01*
X21860539Y-16689198D02*
X21870063Y-16708246D01*
X21870063Y-16708246D02*
X21870063Y-16765388D01*
X21870063Y-16765388D02*
X21860539Y-16784436D01*
X21860539Y-16784436D02*
X21851015Y-16793960D01*
X21851015Y-16793960D02*
X21831968Y-16803484D01*
X21831968Y-16803484D02*
X21793873Y-16803484D01*
X21793873Y-16803484D02*
X21774825Y-16793960D01*
X21984349Y-16803484D02*
X21965301Y-16793960D01*
X21965301Y-16793960D02*
X21955777Y-16774912D01*
X21955777Y-16774912D02*
X21955777Y-16603484D01*
X22146254Y-16803484D02*
X22146254Y-16698722D01*
X22146254Y-16698722D02*
X22136730Y-16679674D01*
X22136730Y-16679674D02*
X22117682Y-16670150D01*
X22117682Y-16670150D02*
X22079587Y-16670150D01*
X22079587Y-16670150D02*
X22060539Y-16679674D01*
X22146254Y-16793960D02*
X22127206Y-16803484D01*
X22127206Y-16803484D02*
X22079587Y-16803484D01*
X22079587Y-16803484D02*
X22060539Y-16793960D01*
X22060539Y-16793960D02*
X22051015Y-16774912D01*
X22051015Y-16774912D02*
X22051015Y-16755865D01*
X22051015Y-16755865D02*
X22060539Y-16736817D01*
X22060539Y-16736817D02*
X22079587Y-16727293D01*
X22079587Y-16727293D02*
X22127206Y-16727293D01*
X22127206Y-16727293D02*
X22146254Y-16717769D01*
X22212920Y-16670150D02*
X22289111Y-16670150D01*
X22241492Y-16603484D02*
X22241492Y-16774912D01*
X22241492Y-16774912D02*
X22251015Y-16793960D01*
X22251015Y-16793960D02*
X22270063Y-16803484D01*
X22270063Y-16803484D02*
X22289111Y-16803484D01*
X22431968Y-16793960D02*
X22412920Y-16803484D01*
X22412920Y-16803484D02*
X22374825Y-16803484D01*
X22374825Y-16803484D02*
X22355777Y-16793960D01*
X22355777Y-16793960D02*
X22346254Y-16774912D01*
X22346254Y-16774912D02*
X22346254Y-16698722D01*
X22346254Y-16698722D02*
X22355777Y-16679674D01*
X22355777Y-16679674D02*
X22374825Y-16670150D01*
X22374825Y-16670150D02*
X22412920Y-16670150D01*
X22412920Y-16670150D02*
X22431968Y-16679674D01*
X22431968Y-16679674D02*
X22441492Y-16698722D01*
X22441492Y-16698722D02*
X22441492Y-16717769D01*
X22441492Y-16717769D02*
X22346254Y-16736817D01*
X22612920Y-16803484D02*
X22612920Y-16603484D01*
X22612920Y-16793960D02*
X22593873Y-16803484D01*
X22593873Y-16803484D02*
X22555777Y-16803484D01*
X22555777Y-16803484D02*
X22536730Y-16793960D01*
X22536730Y-16793960D02*
X22527206Y-16784436D01*
X22527206Y-16784436D02*
X22517682Y-16765388D01*
X22517682Y-16765388D02*
X22517682Y-16708246D01*
X22517682Y-16708246D02*
X22527206Y-16689198D01*
X22527206Y-16689198D02*
X22536730Y-16679674D01*
X22536730Y-16679674D02*
X22555777Y-16670150D01*
X22555777Y-16670150D02*
X22593873Y-16670150D01*
X22593873Y-16670150D02*
X22612920Y-16679674D01*
X22689111Y-16879674D02*
X22698634Y-16870150D01*
X22698634Y-16870150D02*
X22717682Y-16841579D01*
X22717682Y-16841579D02*
X22727206Y-16822531D01*
X22727206Y-16822531D02*
X22736730Y-16793960D01*
X22736730Y-16793960D02*
X22746253Y-16746341D01*
X22746253Y-16746341D02*
X22746253Y-16708246D01*
X22746253Y-16708246D02*
X22736730Y-16660627D01*
X22736730Y-16660627D02*
X22727206Y-16632055D01*
X22727206Y-16632055D02*
X22717682Y-16613008D01*
X22717682Y-16613008D02*
X22698634Y-16584436D01*
X22698634Y-16584436D02*
X22689111Y-16574912D01*
X15895000Y-16932000D02*
X16095000Y-17132000D01*
X16095000Y-16932000D02*
X15895000Y-17132000D01*
X16095000Y-17032000D02*
G75*
G02*
X15895000Y-17032000I-100000J0D01*
G01*
X15895000Y-17032000D02*
G75*
G02*
X16095000Y-17032000I100000J0D01*
G01*
X16346253Y-16942531D02*
X16355777Y-16933008D01*
X16355777Y-16933008D02*
X16374824Y-16923484D01*
X16374824Y-16923484D02*
X16422443Y-16923484D01*
X16422443Y-16923484D02*
X16441491Y-16933008D01*
X16441491Y-16933008D02*
X16451015Y-16942531D01*
X16451015Y-16942531D02*
X16460539Y-16961579D01*
X16460539Y-16961579D02*
X16460539Y-16980627D01*
X16460539Y-16980627D02*
X16451015Y-17009198D01*
X16451015Y-17009198D02*
X16336729Y-17123484D01*
X16336729Y-17123484D02*
X16460539Y-17123484D01*
X16546253Y-17104436D02*
X16555777Y-17113960D01*
X16555777Y-17113960D02*
X16546253Y-17123484D01*
X16546253Y-17123484D02*
X16536729Y-17113960D01*
X16536729Y-17113960D02*
X16546253Y-17104436D01*
X16546253Y-17104436D02*
X16546253Y-17123484D01*
X16736729Y-16923484D02*
X16641491Y-16923484D01*
X16641491Y-16923484D02*
X16631967Y-17018722D01*
X16631967Y-17018722D02*
X16641491Y-17009198D01*
X16641491Y-17009198D02*
X16660539Y-16999674D01*
X16660539Y-16999674D02*
X16708158Y-16999674D01*
X16708158Y-16999674D02*
X16727205Y-17009198D01*
X16727205Y-17009198D02*
X16736729Y-17018722D01*
X16736729Y-17018722D02*
X16746253Y-17037770D01*
X16746253Y-17037770D02*
X16746253Y-17085389D01*
X16746253Y-17085389D02*
X16736729Y-17104436D01*
X16736729Y-17104436D02*
X16727205Y-17113960D01*
X16727205Y-17113960D02*
X16708158Y-17123484D01*
X16708158Y-17123484D02*
X16660539Y-17123484D01*
X16660539Y-17123484D02*
X16641491Y-17113960D01*
X16641491Y-17113960D02*
X16631967Y-17104436D01*
X16870063Y-16923484D02*
X16889110Y-16923484D01*
X16889110Y-16923484D02*
X16908158Y-16933008D01*
X16908158Y-16933008D02*
X16917682Y-16942531D01*
X16917682Y-16942531D02*
X16927205Y-16961579D01*
X16927205Y-16961579D02*
X16936729Y-16999674D01*
X16936729Y-16999674D02*
X16936729Y-17047293D01*
X16936729Y-17047293D02*
X16927205Y-17085389D01*
X16927205Y-17085389D02*
X16917682Y-17104436D01*
X16917682Y-17104436D02*
X16908158Y-17113960D01*
X16908158Y-17113960D02*
X16889110Y-17123484D01*
X16889110Y-17123484D02*
X16870063Y-17123484D01*
X16870063Y-17123484D02*
X16851015Y-17113960D01*
X16851015Y-17113960D02*
X16841491Y-17104436D01*
X16841491Y-17104436D02*
X16831967Y-17085389D01*
X16831967Y-17085389D02*
X16822444Y-17047293D01*
X16822444Y-17047293D02*
X16822444Y-16999674D01*
X16822444Y-16999674D02*
X16831967Y-16961579D01*
X16831967Y-16961579D02*
X16841491Y-16942531D01*
X16841491Y-16942531D02*
X16851015Y-16933008D01*
X16851015Y-16933008D02*
X16870063Y-16923484D01*
X17060539Y-16923484D02*
X17079586Y-16923484D01*
X17079586Y-16923484D02*
X17098634Y-16933008D01*
X17098634Y-16933008D02*
X17108158Y-16942531D01*
X17108158Y-16942531D02*
X17117682Y-16961579D01*
X17117682Y-16961579D02*
X17127205Y-16999674D01*
X17127205Y-16999674D02*
X17127205Y-17047293D01*
X17127205Y-17047293D02*
X17117682Y-17085389D01*
X17117682Y-17085389D02*
X17108158Y-17104436D01*
X17108158Y-17104436D02*
X17098634Y-17113960D01*
X17098634Y-17113960D02*
X17079586Y-17123484D01*
X17079586Y-17123484D02*
X17060539Y-17123484D01*
X17060539Y-17123484D02*
X17041491Y-17113960D01*
X17041491Y-17113960D02*
X17031967Y-17104436D01*
X17031967Y-17104436D02*
X17022444Y-17085389D01*
X17022444Y-17085389D02*
X17012920Y-17047293D01*
X17012920Y-17047293D02*
X17012920Y-16999674D01*
X17012920Y-16999674D02*
X17022444Y-16961579D01*
X17022444Y-16961579D02*
X17031967Y-16942531D01*
X17031967Y-16942531D02*
X17041491Y-16933008D01*
X17041491Y-16933008D02*
X17060539Y-16923484D01*
X17212920Y-17123484D02*
X17212920Y-16990150D01*
X17212920Y-17009198D02*
X17222444Y-16999674D01*
X17222444Y-16999674D02*
X17241491Y-16990150D01*
X17241491Y-16990150D02*
X17270063Y-16990150D01*
X17270063Y-16990150D02*
X17289110Y-16999674D01*
X17289110Y-16999674D02*
X17298634Y-17018722D01*
X17298634Y-17018722D02*
X17298634Y-17123484D01*
X17298634Y-17018722D02*
X17308158Y-16999674D01*
X17308158Y-16999674D02*
X17327205Y-16990150D01*
X17327205Y-16990150D02*
X17355777Y-16990150D01*
X17355777Y-16990150D02*
X17374825Y-16999674D01*
X17374825Y-16999674D02*
X17384348Y-17018722D01*
X17384348Y-17018722D02*
X17384348Y-17123484D01*
X17479586Y-17123484D02*
X17479586Y-16990150D01*
X17479586Y-17009198D02*
X17489110Y-16999674D01*
X17489110Y-16999674D02*
X17508158Y-16990150D01*
X17508158Y-16990150D02*
X17536729Y-16990150D01*
X17536729Y-16990150D02*
X17555777Y-16999674D01*
X17555777Y-16999674D02*
X17565301Y-17018722D01*
X17565301Y-17018722D02*
X17565301Y-17123484D01*
X17565301Y-17018722D02*
X17574825Y-16999674D01*
X17574825Y-16999674D02*
X17593872Y-16990150D01*
X17593872Y-16990150D02*
X17622444Y-16990150D01*
X17622444Y-16990150D02*
X17641491Y-16999674D01*
X17641491Y-16999674D02*
X17651015Y-17018722D01*
X17651015Y-17018722D02*
X17651015Y-17123484D01*
X18041491Y-16913960D02*
X17870063Y-17171103D01*
X18298634Y-16923484D02*
X18317682Y-16923484D01*
X18317682Y-16923484D02*
X18336729Y-16933008D01*
X18336729Y-16933008D02*
X18346253Y-16942531D01*
X18346253Y-16942531D02*
X18355777Y-16961579D01*
X18355777Y-16961579D02*
X18365301Y-16999674D01*
X18365301Y-16999674D02*
X18365301Y-17047293D01*
X18365301Y-17047293D02*
X18355777Y-17085389D01*
X18355777Y-17085389D02*
X18346253Y-17104436D01*
X18346253Y-17104436D02*
X18336729Y-17113960D01*
X18336729Y-17113960D02*
X18317682Y-17123484D01*
X18317682Y-17123484D02*
X18298634Y-17123484D01*
X18298634Y-17123484D02*
X18279587Y-17113960D01*
X18279587Y-17113960D02*
X18270063Y-17104436D01*
X18270063Y-17104436D02*
X18260539Y-17085389D01*
X18260539Y-17085389D02*
X18251015Y-17047293D01*
X18251015Y-17047293D02*
X18251015Y-16999674D01*
X18251015Y-16999674D02*
X18260539Y-16961579D01*
X18260539Y-16961579D02*
X18270063Y-16942531D01*
X18270063Y-16942531D02*
X18279587Y-16933008D01*
X18279587Y-16933008D02*
X18298634Y-16923484D01*
X18451015Y-17104436D02*
X18460539Y-17113960D01*
X18460539Y-17113960D02*
X18451015Y-17123484D01*
X18451015Y-17123484D02*
X18441491Y-17113960D01*
X18441491Y-17113960D02*
X18451015Y-17104436D01*
X18451015Y-17104436D02*
X18451015Y-17123484D01*
X18584348Y-16923484D02*
X18603396Y-16923484D01*
X18603396Y-16923484D02*
X18622444Y-16933008D01*
X18622444Y-16933008D02*
X18631968Y-16942531D01*
X18631968Y-16942531D02*
X18641491Y-16961579D01*
X18641491Y-16961579D02*
X18651015Y-16999674D01*
X18651015Y-16999674D02*
X18651015Y-17047293D01*
X18651015Y-17047293D02*
X18641491Y-17085389D01*
X18641491Y-17085389D02*
X18631968Y-17104436D01*
X18631968Y-17104436D02*
X18622444Y-17113960D01*
X18622444Y-17113960D02*
X18603396Y-17123484D01*
X18603396Y-17123484D02*
X18584348Y-17123484D01*
X18584348Y-17123484D02*
X18565301Y-17113960D01*
X18565301Y-17113960D02*
X18555777Y-17104436D01*
X18555777Y-17104436D02*
X18546253Y-17085389D01*
X18546253Y-17085389D02*
X18536729Y-17047293D01*
X18536729Y-17047293D02*
X18536729Y-16999674D01*
X18536729Y-16999674D02*
X18546253Y-16961579D01*
X18546253Y-16961579D02*
X18555777Y-16942531D01*
X18555777Y-16942531D02*
X18565301Y-16933008D01*
X18565301Y-16933008D02*
X18584348Y-16923484D01*
X18746253Y-17123484D02*
X18784348Y-17123484D01*
X18784348Y-17123484D02*
X18803396Y-17113960D01*
X18803396Y-17113960D02*
X18812920Y-17104436D01*
X18812920Y-17104436D02*
X18831968Y-17075865D01*
X18831968Y-17075865D02*
X18841491Y-17037770D01*
X18841491Y-17037770D02*
X18841491Y-16961579D01*
X18841491Y-16961579D02*
X18831968Y-16942531D01*
X18831968Y-16942531D02*
X18822444Y-16933008D01*
X18822444Y-16933008D02*
X18803396Y-16923484D01*
X18803396Y-16923484D02*
X18765301Y-16923484D01*
X18765301Y-16923484D02*
X18746253Y-16933008D01*
X18746253Y-16933008D02*
X18736729Y-16942531D01*
X18736729Y-16942531D02*
X18727206Y-16961579D01*
X18727206Y-16961579D02*
X18727206Y-17009198D01*
X18727206Y-17009198D02*
X18736729Y-17028246D01*
X18736729Y-17028246D02*
X18746253Y-17037770D01*
X18746253Y-17037770D02*
X18765301Y-17047293D01*
X18765301Y-17047293D02*
X18803396Y-17047293D01*
X18803396Y-17047293D02*
X18822444Y-17037770D01*
X18822444Y-17037770D02*
X18831968Y-17028246D01*
X18831968Y-17028246D02*
X18841491Y-17009198D01*
X18955777Y-17009198D02*
X18936729Y-16999674D01*
X18936729Y-16999674D02*
X18927206Y-16990150D01*
X18927206Y-16990150D02*
X18917682Y-16971103D01*
X18917682Y-16971103D02*
X18917682Y-16961579D01*
X18917682Y-16961579D02*
X18927206Y-16942531D01*
X18927206Y-16942531D02*
X18936729Y-16933008D01*
X18936729Y-16933008D02*
X18955777Y-16923484D01*
X18955777Y-16923484D02*
X18993872Y-16923484D01*
X18993872Y-16923484D02*
X19012920Y-16933008D01*
X19012920Y-16933008D02*
X19022444Y-16942531D01*
X19022444Y-16942531D02*
X19031968Y-16961579D01*
X19031968Y-16961579D02*
X19031968Y-16971103D01*
X19031968Y-16971103D02*
X19022444Y-16990150D01*
X19022444Y-16990150D02*
X19012920Y-16999674D01*
X19012920Y-16999674D02*
X18993872Y-17009198D01*
X18993872Y-17009198D02*
X18955777Y-17009198D01*
X18955777Y-17009198D02*
X18936729Y-17018722D01*
X18936729Y-17018722D02*
X18927206Y-17028246D01*
X18927206Y-17028246D02*
X18917682Y-17047293D01*
X18917682Y-17047293D02*
X18917682Y-17085389D01*
X18917682Y-17085389D02*
X18927206Y-17104436D01*
X18927206Y-17104436D02*
X18936729Y-17113960D01*
X18936729Y-17113960D02*
X18955777Y-17123484D01*
X18955777Y-17123484D02*
X18993872Y-17123484D01*
X18993872Y-17123484D02*
X19012920Y-17113960D01*
X19012920Y-17113960D02*
X19022444Y-17104436D01*
X19022444Y-17104436D02*
X19031968Y-17085389D01*
X19031968Y-17085389D02*
X19031968Y-17047293D01*
X19031968Y-17047293D02*
X19022444Y-17028246D01*
X19022444Y-17028246D02*
X19012920Y-17018722D01*
X19012920Y-17018722D02*
X18993872Y-17009198D01*
X19203396Y-16990150D02*
X19203396Y-17123484D01*
X19155777Y-16913960D02*
X19108158Y-17056817D01*
X19108158Y-17056817D02*
X19231968Y-17056817D01*
X19298634Y-16923484D02*
X19298634Y-16961579D01*
X19374825Y-16923484D02*
X19374825Y-16961579D01*
X19670063Y-17199674D02*
X19660539Y-17190150D01*
X19660539Y-17190150D02*
X19641491Y-17161579D01*
X19641491Y-17161579D02*
X19631968Y-17142531D01*
X19631968Y-17142531D02*
X19622444Y-17113960D01*
X19622444Y-17113960D02*
X19612920Y-17066341D01*
X19612920Y-17066341D02*
X19612920Y-17028246D01*
X19612920Y-17028246D02*
X19622444Y-16980627D01*
X19622444Y-16980627D02*
X19631968Y-16952055D01*
X19631968Y-16952055D02*
X19641491Y-16933008D01*
X19641491Y-16933008D02*
X19660539Y-16904436D01*
X19660539Y-16904436D02*
X19670063Y-16894912D01*
X19831968Y-16990150D02*
X19831968Y-17123484D01*
X19784349Y-16913960D02*
X19736730Y-17056817D01*
X19736730Y-17056817D02*
X19860539Y-17056817D01*
X20089111Y-17123484D02*
X20089111Y-16923484D01*
X20174825Y-17123484D02*
X20174825Y-17018722D01*
X20174825Y-17018722D02*
X20165301Y-16999674D01*
X20165301Y-16999674D02*
X20146253Y-16990150D01*
X20146253Y-16990150D02*
X20117682Y-16990150D01*
X20117682Y-16990150D02*
X20098634Y-16999674D01*
X20098634Y-16999674D02*
X20089111Y-17009198D01*
X20298634Y-17123484D02*
X20279587Y-17113960D01*
X20279587Y-17113960D02*
X20270063Y-17104436D01*
X20270063Y-17104436D02*
X20260539Y-17085389D01*
X20260539Y-17085389D02*
X20260539Y-17028246D01*
X20260539Y-17028246D02*
X20270063Y-17009198D01*
X20270063Y-17009198D02*
X20279587Y-16999674D01*
X20279587Y-16999674D02*
X20298634Y-16990150D01*
X20298634Y-16990150D02*
X20327206Y-16990150D01*
X20327206Y-16990150D02*
X20346253Y-16999674D01*
X20346253Y-16999674D02*
X20355777Y-17009198D01*
X20355777Y-17009198D02*
X20365301Y-17028246D01*
X20365301Y-17028246D02*
X20365301Y-17085389D01*
X20365301Y-17085389D02*
X20355777Y-17104436D01*
X20355777Y-17104436D02*
X20346253Y-17113960D01*
X20346253Y-17113960D02*
X20327206Y-17123484D01*
X20327206Y-17123484D02*
X20298634Y-17123484D01*
X20479587Y-17123484D02*
X20460539Y-17113960D01*
X20460539Y-17113960D02*
X20451015Y-17094912D01*
X20451015Y-17094912D02*
X20451015Y-16923484D01*
X20631968Y-17113960D02*
X20612920Y-17123484D01*
X20612920Y-17123484D02*
X20574825Y-17123484D01*
X20574825Y-17123484D02*
X20555777Y-17113960D01*
X20555777Y-17113960D02*
X20546253Y-17094912D01*
X20546253Y-17094912D02*
X20546253Y-17018722D01*
X20546253Y-17018722D02*
X20555777Y-16999674D01*
X20555777Y-16999674D02*
X20574825Y-16990150D01*
X20574825Y-16990150D02*
X20612920Y-16990150D01*
X20612920Y-16990150D02*
X20631968Y-16999674D01*
X20631968Y-16999674D02*
X20641492Y-17018722D01*
X20641492Y-17018722D02*
X20641492Y-17037770D01*
X20641492Y-17037770D02*
X20546253Y-17056817D01*
X20717682Y-17113960D02*
X20736730Y-17123484D01*
X20736730Y-17123484D02*
X20774825Y-17123484D01*
X20774825Y-17123484D02*
X20793873Y-17113960D01*
X20793873Y-17113960D02*
X20803396Y-17094912D01*
X20803396Y-17094912D02*
X20803396Y-17085389D01*
X20803396Y-17085389D02*
X20793873Y-17066341D01*
X20793873Y-17066341D02*
X20774825Y-17056817D01*
X20774825Y-17056817D02*
X20746253Y-17056817D01*
X20746253Y-17056817D02*
X20727206Y-17047293D01*
X20727206Y-17047293D02*
X20717682Y-17028246D01*
X20717682Y-17028246D02*
X20717682Y-17018722D01*
X20717682Y-17018722D02*
X20727206Y-16999674D01*
X20727206Y-16999674D02*
X20746253Y-16990150D01*
X20746253Y-16990150D02*
X20774825Y-16990150D01*
X20774825Y-16990150D02*
X20793873Y-16999674D01*
X20870063Y-17199674D02*
X20879587Y-17190150D01*
X20879587Y-17190150D02*
X20898634Y-17161579D01*
X20898634Y-17161579D02*
X20908158Y-17142531D01*
X20908158Y-17142531D02*
X20917682Y-17113960D01*
X20917682Y-17113960D02*
X20927206Y-17066341D01*
X20927206Y-17066341D02*
X20927206Y-17028246D01*
X20927206Y-17028246D02*
X20917682Y-16980627D01*
X20917682Y-16980627D02*
X20908158Y-16952055D01*
X20908158Y-16952055D02*
X20898634Y-16933008D01*
X20898634Y-16933008D02*
X20879587Y-16904436D01*
X20879587Y-16904436D02*
X20870063Y-16894912D01*
X21231968Y-17199674D02*
X21222444Y-17190150D01*
X21222444Y-17190150D02*
X21203396Y-17161579D01*
X21203396Y-17161579D02*
X21193873Y-17142531D01*
X21193873Y-17142531D02*
X21184349Y-17113960D01*
X21184349Y-17113960D02*
X21174825Y-17066341D01*
X21174825Y-17066341D02*
X21174825Y-17028246D01*
X21174825Y-17028246D02*
X21184349Y-16980627D01*
X21184349Y-16980627D02*
X21193873Y-16952055D01*
X21193873Y-16952055D02*
X21203396Y-16933008D01*
X21203396Y-16933008D02*
X21222444Y-16904436D01*
X21222444Y-16904436D02*
X21231968Y-16894912D01*
X21308158Y-16990150D02*
X21308158Y-17123484D01*
X21308158Y-17009198D02*
X21317682Y-16999674D01*
X21317682Y-16999674D02*
X21336730Y-16990150D01*
X21336730Y-16990150D02*
X21365301Y-16990150D01*
X21365301Y-16990150D02*
X21384349Y-16999674D01*
X21384349Y-16999674D02*
X21393873Y-17018722D01*
X21393873Y-17018722D02*
X21393873Y-17123484D01*
X21517682Y-17123484D02*
X21498634Y-17113960D01*
X21498634Y-17113960D02*
X21489111Y-17104436D01*
X21489111Y-17104436D02*
X21479587Y-17085389D01*
X21479587Y-17085389D02*
X21479587Y-17028246D01*
X21479587Y-17028246D02*
X21489111Y-17009198D01*
X21489111Y-17009198D02*
X21498634Y-16999674D01*
X21498634Y-16999674D02*
X21517682Y-16990150D01*
X21517682Y-16990150D02*
X21546254Y-16990150D01*
X21546254Y-16990150D02*
X21565301Y-16999674D01*
X21565301Y-16999674D02*
X21574825Y-17009198D01*
X21574825Y-17009198D02*
X21584349Y-17028246D01*
X21584349Y-17028246D02*
X21584349Y-17085389D01*
X21584349Y-17085389D02*
X21574825Y-17104436D01*
X21574825Y-17104436D02*
X21565301Y-17113960D01*
X21565301Y-17113960D02*
X21546254Y-17123484D01*
X21546254Y-17123484D02*
X21517682Y-17123484D01*
X21641492Y-16990150D02*
X21717682Y-16990150D01*
X21670063Y-16923484D02*
X21670063Y-17094912D01*
X21670063Y-17094912D02*
X21679587Y-17113960D01*
X21679587Y-17113960D02*
X21698634Y-17123484D01*
X21698634Y-17123484D02*
X21717682Y-17123484D01*
X21936730Y-16990150D02*
X21936730Y-17190150D01*
X21936730Y-16999674D02*
X21955777Y-16990150D01*
X21955777Y-16990150D02*
X21993873Y-16990150D01*
X21993873Y-16990150D02*
X22012920Y-16999674D01*
X22012920Y-16999674D02*
X22022444Y-17009198D01*
X22022444Y-17009198D02*
X22031968Y-17028246D01*
X22031968Y-17028246D02*
X22031968Y-17085389D01*
X22031968Y-17085389D02*
X22022444Y-17104436D01*
X22022444Y-17104436D02*
X22012920Y-17113960D01*
X22012920Y-17113960D02*
X21993873Y-17123484D01*
X21993873Y-17123484D02*
X21955777Y-17123484D01*
X21955777Y-17123484D02*
X21936730Y-17113960D01*
X22146254Y-17123484D02*
X22127206Y-17113960D01*
X22127206Y-17113960D02*
X22117682Y-17094912D01*
X22117682Y-17094912D02*
X22117682Y-16923484D01*
X22308158Y-17123484D02*
X22308158Y-17018722D01*
X22308158Y-17018722D02*
X22298635Y-16999674D01*
X22298635Y-16999674D02*
X22279587Y-16990150D01*
X22279587Y-16990150D02*
X22241492Y-16990150D01*
X22241492Y-16990150D02*
X22222444Y-16999674D01*
X22308158Y-17113960D02*
X22289111Y-17123484D01*
X22289111Y-17123484D02*
X22241492Y-17123484D01*
X22241492Y-17123484D02*
X22222444Y-17113960D01*
X22222444Y-17113960D02*
X22212920Y-17094912D01*
X22212920Y-17094912D02*
X22212920Y-17075865D01*
X22212920Y-17075865D02*
X22222444Y-17056817D01*
X22222444Y-17056817D02*
X22241492Y-17047293D01*
X22241492Y-17047293D02*
X22289111Y-17047293D01*
X22289111Y-17047293D02*
X22308158Y-17037770D01*
X22374825Y-16990150D02*
X22451015Y-16990150D01*
X22403396Y-16923484D02*
X22403396Y-17094912D01*
X22403396Y-17094912D02*
X22412920Y-17113960D01*
X22412920Y-17113960D02*
X22431968Y-17123484D01*
X22431968Y-17123484D02*
X22451015Y-17123484D01*
X22593873Y-17113960D02*
X22574825Y-17123484D01*
X22574825Y-17123484D02*
X22536730Y-17123484D01*
X22536730Y-17123484D02*
X22517682Y-17113960D01*
X22517682Y-17113960D02*
X22508158Y-17094912D01*
X22508158Y-17094912D02*
X22508158Y-17018722D01*
X22508158Y-17018722D02*
X22517682Y-16999674D01*
X22517682Y-16999674D02*
X22536730Y-16990150D01*
X22536730Y-16990150D02*
X22574825Y-16990150D01*
X22574825Y-16990150D02*
X22593873Y-16999674D01*
X22593873Y-16999674D02*
X22603396Y-17018722D01*
X22603396Y-17018722D02*
X22603396Y-17037770D01*
X22603396Y-17037770D02*
X22508158Y-17056817D01*
X22774825Y-17123484D02*
X22774825Y-16923484D01*
X22774825Y-17113960D02*
X22755777Y-17123484D01*
X22755777Y-17123484D02*
X22717682Y-17123484D01*
X22717682Y-17123484D02*
X22698634Y-17113960D01*
X22698634Y-17113960D02*
X22689111Y-17104436D01*
X22689111Y-17104436D02*
X22679587Y-17085389D01*
X22679587Y-17085389D02*
X22679587Y-17028246D01*
X22679587Y-17028246D02*
X22689111Y-17009198D01*
X22689111Y-17009198D02*
X22698634Y-16999674D01*
X22698634Y-16999674D02*
X22717682Y-16990150D01*
X22717682Y-16990150D02*
X22755777Y-16990150D01*
X22755777Y-16990150D02*
X22774825Y-16999674D01*
X22851015Y-17199674D02*
X22860539Y-17190150D01*
X22860539Y-17190150D02*
X22879587Y-17161579D01*
X22879587Y-17161579D02*
X22889111Y-17142531D01*
X22889111Y-17142531D02*
X22898634Y-17113960D01*
X22898634Y-17113960D02*
X22908158Y-17066341D01*
X22908158Y-17066341D02*
X22908158Y-17028246D01*
X22908158Y-17028246D02*
X22898634Y-16980627D01*
X22898634Y-16980627D02*
X22889111Y-16952055D01*
X22889111Y-16952055D02*
X22879587Y-16933008D01*
X22879587Y-16933008D02*
X22860539Y-16904436D01*
X22860539Y-16904436D02*
X22851015Y-16894912D01*
M02*
